<svg width="83" height="76" viewBox="0 0 83 76" fill="none" xmlns="http://www.w3.org/2000/svg">
<path d="M72.1253 17.2671V60.6099H10.9245V17.2671H6.34618V64.3339H78.1163V17.2671H72.1253Z" fill="#3FE2FD"/>
<path d="M24.4983 22.394H31.7774V37.0225H24.4983C23.6446 37.0225 22.8259 36.712 22.2223 36.1593C21.6187 35.6066 21.2795 34.8569 21.2795 34.0752V25.3413C21.2795 24.5597 21.6187 23.81 22.2223 23.2573C22.8259 22.7046 23.6446 22.394 24.4983 22.394Z" fill="#3FE2FD"/>
<path d="M60.2597 37.021H52.9822V22.3925H60.2597C61.1133 22.3925 61.932 22.703 62.5356 23.2558C63.1393 23.8085 63.4784 24.5581 63.4784 25.3398V34.0737C63.4784 34.8554 63.1393 35.605 62.5356 36.1578C61.932 36.7105 61.1133 37.021 60.2597 37.021Z" fill="#3FE2FD"/>
<path d="M76.9543 66.2583H6.04572C5.73754 66.2583 5.44198 66.1462 5.22406 65.9466C5.00615 65.7471 4.88372 65.4764 4.88372 65.1943V16.7959C4.88372 16.5137 5.00615 16.2431 5.22406 16.0436C5.44198 15.844 5.73754 15.7319 6.04572 15.7319H10.624C10.9322 15.7319 11.2277 15.844 11.4457 16.0436C11.6636 16.2431 11.786 16.5137 11.786 16.7959C11.786 17.0781 11.6636 17.3488 11.4457 17.5483C11.2277 17.7478 10.9322 17.8599 10.624 17.8599H7.20772V64.1303H75.7923V17.8599H72.6134C72.3052 17.8599 72.0096 17.7478 71.7917 17.5483C71.5738 17.3488 71.4514 17.0781 71.4514 16.7959C71.4514 16.5137 71.5738 16.2431 71.7917 16.0436C72.0096 15.844 72.3052 15.7319 72.6134 15.7319H76.9543C77.2625 15.7319 77.558 15.844 77.7759 16.0436C77.9939 16.2431 78.1163 16.5137 78.1163 16.7959V65.1943C78.1163 65.4764 77.9939 65.7471 77.7759 65.9466C77.558 66.1462 77.2625 66.2583 76.9543 66.2583Z" fill="#251AC7"/>
<path d="M41.5 56.3918H10.8846C10.5764 56.3918 10.2809 56.2797 10.063 56.0802C9.84504 55.8806 9.72262 55.61 9.72262 55.3278V13.771C9.72262 13.4888 9.84504 13.2182 10.063 13.0187C10.2809 12.8191 10.5764 12.707 10.8846 12.707H36.2229C37.9301 12.7086 39.5669 13.3304 40.7741 14.4357C41.9813 15.5411 42.6602 17.0399 42.662 18.6031V55.3278C42.662 55.61 42.5396 55.8806 42.3217 56.0802C42.1037 56.2797 41.8082 56.3918 41.5 56.3918ZM12.0466 54.2638H40.338V18.6031C40.3367 17.6041 39.9027 16.6464 39.1312 15.94C38.3598 15.2336 37.3139 14.8362 36.2229 14.835H12.0466V54.2638Z" fill="#251AC7"/>
<path d="M72.1154 56.3918H41.5C41.1918 56.3918 40.8963 56.2797 40.6783 56.0802C40.4604 55.8806 40.338 55.61 40.338 55.3278V18.6031C40.3398 17.0399 41.0187 15.5411 42.2259 14.4357C43.4331 13.3304 45.0699 12.7086 46.7771 12.707H72.1154C72.4236 12.707 72.7191 12.8191 72.937 13.0187C73.155 13.2182 73.2774 13.4888 73.2774 13.771V55.3278C73.2774 55.61 73.155 55.8806 72.937 56.0802C72.7191 56.2797 72.4236 56.3918 72.1154 56.3918ZM42.662 54.2638H70.9534V14.835H46.7771C45.6861 14.8362 44.6402 15.2336 43.8687 15.94C43.0973 16.6464 42.6633 17.6041 42.662 18.6031V54.2638Z" fill="#251AC7"/>
<path d="M72.0955 61.6554H10.8846C10.5764 61.6554 10.2809 61.5433 10.063 61.3438C9.84504 61.1443 9.72262 60.8736 9.72262 60.5914V55.3277C9.72262 55.0455 9.84504 54.7749 10.063 54.5753C10.2809 54.3758 10.5764 54.2637 10.8846 54.2637H72.0955C72.4036 54.2637 72.6992 54.3758 72.9171 54.5753C73.135 54.7749 73.2575 55.0455 73.2575 55.3277V60.5884C73.2579 60.7284 73.2282 60.8671 73.17 60.9965C73.1118 61.1259 73.0262 61.2436 72.9183 61.3427C72.8103 61.4418 72.6821 61.5205 72.5409 61.5741C72.3997 61.6278 72.2483 61.6554 72.0955 61.6554ZM12.0466 59.5274H70.9335V56.3917H12.0466V59.5274Z" fill="#251AC7"/>
<path d="M30.5722 38.9026H27.8299C25.4768 38.9002 23.2208 38.0431 21.5571 36.5194C19.8934 34.9957 18.9577 32.9298 18.9555 30.7752V28.9512C18.9577 26.7965 19.8934 24.7307 21.5571 23.207C23.2208 21.6833 25.4768 20.8261 27.8299 20.8237H30.5722C31.3296 20.8245 32.0558 21.1004 32.5914 21.5908C33.1269 22.0812 33.4282 22.7461 33.4291 23.4397V36.2928C33.4265 36.9853 33.1244 37.6486 32.589 38.1377C32.0536 38.6268 31.3285 38.9018 30.5722 38.9026ZM27.8299 22.9517C26.0929 22.9533 24.4276 23.586 23.1995 24.7108C21.9714 25.8356 21.2809 27.3607 21.2795 28.9512V30.7752C21.2809 32.3657 21.9714 33.8907 23.1995 35.0155C24.4276 36.1404 26.0929 36.773 27.8299 36.7746H30.5722C30.7135 36.7746 30.8491 36.7232 30.949 36.6317C31.0489 36.5402 31.1051 36.4161 31.1051 36.2867V23.4336C31.1051 23.3042 31.0489 23.1801 30.949 23.0886C30.8491 22.9971 30.7135 22.9457 30.5722 22.9457L27.8299 22.9517Z" fill="#251AC7"/>
<path d="M56.44 38.9026H53.701C52.9436 38.9018 52.2174 38.6259 51.6819 38.1355C51.1463 37.6451 50.845 36.9802 50.8441 36.2867V23.4336C50.8468 22.7411 51.1488 22.0777 51.6842 21.5887C52.2196 21.0996 52.9447 20.8245 53.701 20.8237H56.44C58.7931 20.8261 61.049 21.6833 62.7128 23.207C64.3765 24.7307 65.3122 26.7965 65.3144 28.9512V30.7752C65.3122 32.9298 64.3765 34.9957 62.7128 36.5194C61.049 38.0431 58.7931 38.9002 56.44 38.9026ZM53.701 22.9517C53.5597 22.9517 53.4241 23.0031 53.3242 23.0946C53.2243 23.1861 53.1681 23.3102 53.1681 23.4397V36.2928C53.1681 36.3568 53.1819 36.4203 53.2087 36.4795C53.2355 36.5387 53.2747 36.5925 53.3242 36.6378C53.3737 36.6831 53.4324 36.719 53.4971 36.7435C53.5617 36.7681 53.631 36.7807 53.701 36.7807H56.44C58.177 36.7791 59.8423 36.1464 61.0704 35.0216C62.2985 33.8968 62.989 32.3718 62.9904 30.7812V28.9572C62.9908 27.3657 62.3011 25.8391 61.0728 24.7129C59.8445 23.5868 58.1782 22.9533 56.44 22.9517H53.701Z" fill="#251AC7"/>
<path d="M55.122 22.9518C54.8138 22.9518 54.5182 22.8397 54.3003 22.6402C54.0824 22.4406 53.96 22.17 53.96 21.8878V19.1883C53.96 16.2781 52.6974 13.4871 50.4501 11.4293C48.2027 9.37147 45.1547 8.2154 41.9764 8.2154C38.7982 8.2154 35.7501 9.37147 33.5028 11.4293C31.2554 13.4871 29.9929 16.2781 29.9929 19.1883V21.8878C29.9929 22.17 29.8705 22.4406 29.6525 22.6402C29.4346 22.8397 29.1391 22.9518 28.8309 22.9518C28.5227 22.9518 28.2271 22.8397 28.0092 22.6402C27.7913 22.4406 27.6689 22.17 27.6689 21.8878V19.1883C27.6689 15.7137 29.1763 12.3815 31.8595 9.92456C34.5427 7.46767 38.1818 6.0874 41.9764 6.0874C45.771 6.0874 49.4102 7.46767 52.0934 9.92456C54.7766 12.3815 56.284 15.7137 56.284 19.1883V21.8878C56.284 22.17 56.1615 22.4406 55.9436 22.6402C55.7257 22.8397 55.4301 22.9518 55.122 22.9518Z" fill="#251AC7"/>
</svg>
