<svg width="18" height="9" viewBox="0 0 18 9" fill="none" xmlns="http://www.w3.org/2000/svg">
<path fill-rule="evenodd" clip-rule="evenodd" d="M16.44 0.0529785H15.416C14.8505 0.0529785 14.392 0.409116 14.392 0.848433V7.74237C14.392 8.18169 14.8505 8.53783 15.416 8.53783H16.44C17.0055 8.53783 17.464 8.18169 17.464 7.74237V0.848433C17.464 0.409116 17.0055 0.0529785 16.44 0.0529785ZM10.6373 1.90904H11.6613C12.2269 1.90904 12.6853 2.26518 12.6853 2.70449V7.74237C12.6853 8.18169 12.2269 8.53783 11.6613 8.53783H10.6373C10.0718 8.53783 9.61334 8.18169 9.61334 7.74237V2.70449C9.61334 2.26518 10.0718 1.90904 10.6373 1.90904ZM6.88267 3.7651H5.85866C5.29312 3.7651 4.83466 4.12124 4.83466 4.56055V7.74237C4.83466 8.18169 5.29312 8.53783 5.85866 8.53783H6.88267C7.44821 8.53783 7.90668 8.18169 7.90668 7.74237V4.56055C7.90668 4.12124 7.44821 3.7651 6.88267 3.7651ZM2.10399 5.35601H1.08C0.514459 5.35601 0.0559998 5.71215 0.0559998 6.15146V7.74237C0.0559998 8.18169 0.514459 8.53783 1.08 8.53783H2.10399C2.66953 8.53783 3.12799 8.18169 3.12799 7.74237V6.15146C3.12799 5.71215 2.66953 5.35601 2.10399 5.35601Z" fill="#8E33BB"/>
</svg>
