<svg width="40" height="40" viewBox="0 0 40 40" fill="none" xmlns="http://www.w3.org/2000/svg">
<g clip-path="url(#clip0_46_250)">
<path opacity="0.18" d="M7.42791 38.8984C6.04985 38.5982 4.75258 37.8353 3.65944 36.6822C2.37122 35.339 0.97418 33.5291 1.0172 31.2826C1.06276 28.9018 1.73344 26.6083 2.4598 24.4592C3.44178 21.5647 4.80592 18.5089 4.44401 15.2819C4.08209 12.0549 4.57055 8.19999 5.85371 5.45654C7.86322 1.14828 11.4216 0.107315 14.9649 0.00993408C17.3034 -0.0538671 19.7153 0.13082 21.8463 1.4102C24.0887 2.75339 25.8957 5.23492 28.1735 6.39005C29.692 7.14895 31.3548 7.2967 32.8404 8.15298C34.7107 9.23089 36.1508 11.3665 37.0872 13.7708C38.0237 16.1751 38.4969 18.8447 38.8588 21.4942C39.4511 25.9737 38.0439 31.568 36.0141 35.2383C34.6652 37.6762 32.4001 40.5002 30.0742 39.9092C18.2297 36.9139 20.5049 41.7023 7.42791 38.8984Z" fill="#E2CBF3"/>
<path d="M12.0062 37.4312H27.6976C27.6723 37.6192 27.6243 37.7905 27.5964 37.9785C29.2124 38.0229 30.8283 37.8904 32.4279 37.5823C32.7759 37.5373 33.1171 37.4241 33.4402 37.2465C33.5997 37.1458 33.7717 36.9107 33.6933 36.7126C33.6627 36.6607 33.6245 36.6176 33.581 36.5858C33.5375 36.5541 33.4896 36.5344 33.4402 36.5279C32.5021 36.2794 31.5572 36.0735 30.6056 35.91C30.2807 35.8923 29.9646 35.7652 29.6869 35.5407C29.3149 35.178 29.1985 34.503 29.1959 33.8885C29.2377 33.2775 29.2377 32.6628 29.1959 32.0517C28.9808 30.4936 28.1836 29.0833 28.7201 27.6629C29.201 26.3667 30.0843 25.3425 30.3728 23.949C30.5727 22.9819 30.4588 21.9577 30.3424 20.9705L29.9628 17.7032C29.9175 17.0013 29.7715 16.3175 29.5325 15.6884C29.4535 15.4798 29.3412 15.2965 29.2035 15.1511C29.0466 15.0135 28.9808 15.1008 28.829 15.0302C28.4974 14.8758 28.2266 14.4762 27.8697 14.8657C27.9298 13.7378 27.9307 12.6056 27.8723 11.4775C27.8772 10.9179 27.7909 10.3635 27.6192 9.85227C27.4747 9.52779 27.2957 9.23262 27.0877 8.97585C26.7503 8.52812 26.4077 8.09942 26.0602 7.68975C25.8113 7.38058 25.542 7.10185 25.2554 6.85698C24.3468 6.09808 23.4407 6.12158 22.4284 6.31299C21.3173 6.5279 20.1227 6.37679 19.0092 6.31299C17.8956 6.24919 16.7314 6.12158 15.5899 6.13502C15.0267 6.13838 14.464 6.1821 13.9044 6.26598C13.7475 6.28948 12.3276 6.49432 12.3175 6.66222C12.1151 9.74482 13.1072 12.7065 13.8639 15.638C14.8282 19.3654 15.433 23.311 15.2179 27.2465C15.0028 31.182 14.0993 34.634 12.0062 37.4312Z" fill="url(#paint0_linear_46_250)"/>
<path d="M32.4835 34.9363C32.4203 35.1747 32.3165 35.44 32.4101 35.6616C32.4179 35.6838 32.4314 35.7017 32.4481 35.712C32.4605 35.7193 32.4738 35.7231 32.4873 35.7231C32.5009 35.7231 32.5142 35.7193 32.5266 35.712C32.929 35.5038 33.1593 34.9497 33.3289 34.4192C33.3814 34.2923 33.3993 34.1452 33.3795 34.0028C33.3335 33.8679 33.2552 33.7569 33.1568 33.6872C33.0128 33.5459 32.8782 33.3886 32.7543 33.217C32.7898 33.2708 32.6835 33.6166 32.6658 33.6771C32.6135 33.8 32.5702 33.9293 32.5367 34.0632C32.5376 34.1901 32.5435 34.3167 32.5544 34.4427C32.5504 34.6111 32.5265 34.7777 32.4835 34.9363Z" fill="#A0685B"/>
<path d="M28.181 36.7428C28.0722 36.9006 27.9279 37.0416 27.9077 37.2498C27.8988 37.2869 27.8988 37.3268 27.9077 37.364C27.9431 37.458 28.0469 37.4513 28.1228 37.4211C28.4217 37.2823 28.7 37.0755 28.9453 36.8099C28.9795 36.7798 29.0087 36.741 29.0314 36.6957C29.0491 36.626 29.0491 36.5505 29.0314 36.4808L28.9656 35.957C28.9648 35.9405 28.9594 35.9249 28.9504 35.9133C28.9453 35.9101 28.9397 35.9084 28.934 35.9084C28.9283 35.9084 28.9226 35.9101 28.9175 35.9133C28.8148 35.9 28.7114 35.9 28.6087 35.9133C28.4695 35.9133 28.462 35.9335 28.4341 36.1047C28.3912 36.3421 28.3042 36.5614 28.181 36.7428Z" fill="#A0685B"/>
<path d="M29.0846 37.139C29.0858 37.1647 29.0814 37.1904 29.072 37.2129C29.0542 37.2396 29.0301 37.2574 29.0036 37.2632C28.87 37.3264 28.7418 37.4086 28.6215 37.5084C28.3649 37.6782 28.0993 37.823 27.8268 37.9415C27.7714 37.9795 27.7108 38.0024 27.6486 38.0087C27.5865 38.0151 27.524 38.0048 27.4649 37.9785C27.4506 37.971 27.4383 37.9582 27.4294 37.9415C27.4231 37.913 27.4231 37.8827 27.4294 37.8542C27.4697 37.6015 27.5627 37.3688 27.6977 37.1826C27.745 37.1066 27.8025 37.0429 27.8673 36.9946C27.8998 36.9704 27.9359 36.9561 27.9731 36.9526C28.0103 36.9491 28.0476 36.9566 28.0824 36.9744C28.1558 37.0181 28.2064 37.1256 28.2849 37.1558C28.326 37.1667 28.3685 37.166 28.4094 37.1539C28.4504 37.1417 28.489 37.1184 28.5228 37.0853C28.6117 37.0222 28.6963 36.9492 28.7759 36.867C28.8341 36.8032 28.9049 36.6789 28.9783 36.6554C29.1378 36.6084 29.0897 37.008 29.0846 37.139Z" fill="#E2CBF3"/>
<path d="M33.5744 34.184C33.5885 34.2083 33.5973 34.2374 33.5997 34.268C33.5942 34.3079 33.5791 34.3444 33.5566 34.3721C33.4585 34.545 33.3737 34.7306 33.3036 34.9261C33.1423 35.3047 32.9604 35.6672 32.7594 36.0108C32.6873 36.1757 32.5691 36.2964 32.4304 36.3465C32.4138 36.3517 32.3964 36.3517 32.3798 36.3465C32.3581 36.3289 32.342 36.3015 32.3342 36.2693C32.2528 35.9952 32.23 35.6965 32.2684 35.4063C32.274 35.2894 32.2972 35.1752 32.3368 35.0705C32.3563 35.0202 32.3838 34.9761 32.4174 34.9413C32.4511 34.9065 32.4901 34.8818 32.5316 34.869C32.6253 34.8489 32.7215 34.906 32.8126 34.869C32.8566 34.8429 32.8963 34.8053 32.9293 34.7586C32.9623 34.712 32.988 34.657 33.0049 34.5971C33.0545 34.464 33.0959 34.3259 33.1289 34.184C33.1423 34.0546 33.1732 33.9295 33.22 33.8146C33.3643 33.6434 33.5161 34.0564 33.5744 34.184Z" fill="#E2CBF3"/>
<path d="M31.6358 25.6783C31.7153 26.4429 31.5995 27.2209 31.3067 27.8879C31.0866 28.3781 31.0537 28.9658 30.8436 29.4359C30.795 29.5284 30.7622 29.6338 30.7474 29.7448C30.753 29.8423 30.7739 29.9372 30.8088 30.0234C30.8437 30.1095 30.8917 30.1851 30.9499 30.2452L32.2963 32.1088C32.5405 32.3906 32.7225 32.755 32.8227 33.1632C32.8675 33.3698 32.849 33.5915 32.7713 33.7802C32.6936 33.9688 32.5629 34.1091 32.4077 34.1706L29.4794 31.8838C28.9967 31.1223 28.7418 30.1519 28.7632 29.1572C28.8012 28.4856 29.8312 25.1276 29.8312 25.1276C30.1785 24.754 30.5533 24.4278 30.9499 24.1538C31.1701 24.0229 31.1802 24.1001 31.3067 24.3855C31.4006 24.5975 31.4761 24.8228 31.532 25.0571C31.5806 25.2596 31.6153 25.4675 31.6358 25.6783Z" fill="#E2CBF3"/>
<path d="M29.8311 25.1309C29.8311 25.1309 28.7504 28.4888 28.7631 29.1604C28.7935 31.0207 29.4793 31.8871 29.4793 31.8871C29.4068 33.1922 29.3351 34.4996 29.2642 35.8092C28.9453 36.0409 28.472 36.2289 28.2873 35.8092C28.2403 35.6885 28.2144 35.5554 28.2114 35.4196C28.1051 34.025 27.9971 32.6325 27.8874 31.2423C27.7977 30.4169 27.7875 29.5796 27.857 28.7507V28.6802C27.857 28.6802 27.8899 28.472 27.933 28.247C28.057 27.5956 28.3253 26.3901 28.7428 25.695C29.1186 25.5888 29.4802 25.4088 29.8159 25.1611L29.8311 25.1309Z" fill="#E2CBF3"/>
<path d="M29.8311 25.1309C29.8311 25.1309 28.7504 28.4888 28.7631 29.1604C28.7935 31.0207 29.4793 31.8871 29.4793 31.8871C29.4068 33.1922 29.3351 34.4996 29.2642 35.8092C28.9453 36.0409 28.472 36.2289 28.2873 35.8092C28.2403 35.6885 28.2144 35.5554 28.2114 35.4196C28.1051 34.025 27.9971 32.6325 27.8874 31.2423C27.7977 30.4169 27.7875 29.5796 27.857 28.7507V28.6802C27.857 28.6802 27.8899 28.472 27.933 28.247C28.057 27.5956 28.3253 26.3901 28.7428 25.695C29.1186 25.5888 29.4802 25.4088 29.8159 25.1611L29.8311 25.1309Z" fill="url(#paint1_linear_46_250)"/>
<path d="M31.1397 17.2667C30.9154 17.5544 30.6516 17.7824 30.3627 17.9383C30.2943 17.6025 30.4386 17.4682 30.4386 17.4682C30.5879 17.485 30.7853 16.9981 30.7221 16.847C30.6588 16.6959 30.5322 16.7261 30.469 16.8067C30.3933 16.7282 30.3306 16.6298 30.2849 16.5177C30.2392 16.4056 30.2114 16.2822 30.2032 16.1553C30.2032 16.0075 30.388 15.5844 30.0159 15.4031C29.7214 15.3006 29.412 15.3006 29.1175 15.4031C29.0922 15.4031 29.1175 15.121 29.1175 15.1042C29.1546 14.9563 29.2254 14.8273 29.32 14.7348C29.4474 14.6707 29.5839 14.6443 29.7198 14.6576C29.9097 14.6576 30.102 14.6341 30.2918 14.6341C30.486 14.6186 30.6805 14.6551 30.8638 14.7416C31.0381 14.8665 31.1856 15.0483 31.2923 15.2698C31.399 15.4912 31.4614 15.7451 31.4737 16.0075C31.4783 16.1454 31.5024 16.2809 31.5446 16.4071C31.5927 16.5313 31.6838 16.622 31.7319 16.7429C31.8129 16.9645 31.7496 17.2365 31.8078 17.4682C31.9097 17.4968 32.0067 17.5503 32.0938 17.626C32.1364 17.6659 32.17 17.7204 32.191 17.7837C32.212 17.847 32.2195 17.9168 32.2127 17.9853C32.2826 18.0533 32.3362 18.1466 32.3671 18.254C32.3736 18.2809 32.3759 18.3092 32.3737 18.3373C32.3716 18.3654 32.3651 18.3926 32.3546 18.4172C32.3441 18.4418 32.33 18.4633 32.313 18.4803C32.296 18.4972 32.2765 18.5094 32.2558 18.5159C32.3349 18.5841 32.4057 18.6679 32.4658 18.7644C32.4925 18.8119 32.5105 18.8669 32.5184 18.9252C32.5263 18.9834 32.5239 19.0433 32.5114 19.1002C32.4831 19.1672 32.4451 19.2261 32.3994 19.2734C32.3538 19.3207 32.3015 19.3554 32.2456 19.3755C32.3412 19.4159 32.428 19.4862 32.4987 19.5804C32.5312 19.6303 32.549 19.6941 32.549 19.76C32.549 19.826 32.5312 19.8897 32.4987 19.9397C32.5354 19.9238 32.5744 19.92 32.6124 19.9286C32.6504 19.9372 32.6862 19.9579 32.7169 19.989C32.7475 20.0201 32.772 20.0605 32.7882 20.1069C32.8044 20.1533 32.8119 20.2042 32.81 20.2553C32.8602 20.2353 32.913 20.2298 32.9649 20.2393C33.0168 20.2488 33.0665 20.273 33.1107 20.3103C33.1549 20.3476 33.1925 20.3971 33.221 20.4554C33.2494 20.5137 33.2681 20.5794 33.2757 20.6482C33.2724 20.8255 33.2312 20.9979 33.1568 21.1452C33.1087 21.2694 33.0479 21.4037 32.9442 21.4373C32.9948 21.5381 32.9442 21.6757 32.8708 21.7731C32.7974 21.8705 32.7721 22.0317 32.6961 22.1425C32.6002 22.2548 32.4871 22.3385 32.3646 22.3876C32.1099 22.5026 31.8376 22.5314 31.5724 22.4716C31.2184 22.4179 30.8892 22.2031 30.6411 21.8638C30.2817 21.3332 30.2336 20.5643 30.1349 19.8658C30.1288 19.7798 30.1022 19.6987 30.059 19.6341C29.9552 19.5031 29.7856 19.6072 29.6414 19.6039C29.3883 19.6039 29.2263 19.2345 29.2187 18.9054C29.2405 18.5768 29.2897 18.2525 29.3655 17.9383C29.4018 17.7809 29.4067 17.6136 29.3797 17.4529C29.3526 17.2922 29.2945 17.1436 29.2111 17.0216C29.1403 16.941 29.0517 16.8906 28.9783 16.8201C28.6417 16.4843 28.6619 15.7624 28.9479 15.3661C29.102 15.1815 29.2873 15.0488 29.4882 14.9793C29.689 14.9097 29.8996 14.9054 30.102 14.9665C30.4285 15.0438 31.1675 15.2855 31.3193 15.6851C31.4712 16.0847 31.332 16.9108 31.1397 17.2667Z" fill="#473F47"/>
<path d="M28.6468 19.3418L27.07 21.4976L24.9719 20.0302C24.7127 19.8195 24.4128 19.7134 24.1089 19.7246C24.0785 19.7246 24.038 19.7481 24.0431 19.7884C24.0482 19.8287 24.0861 19.8321 24.0912 19.8656C24.0963 19.8992 24.0634 19.9227 24.0355 19.9328L23.5293 20.0839C23.4559 20.1041 23.3674 20.1511 23.3623 20.2518C23.365 20.285 23.3732 20.317 23.3863 20.3454C23.3994 20.3739 23.4172 20.3981 23.4382 20.4163C23.7919 20.7524 24.2305 20.8922 24.6606 20.8059C24.7027 20.7991 24.7452 20.7991 24.7872 20.8059C24.8275 20.8187 24.866 20.8402 24.9011 20.8697C25.0631 20.9906 25.22 21.1182 25.3718 21.2592C25.7818 21.6454 26.1513 22.1054 26.5689 22.4781C26.6537 22.5646 26.754 22.6202 26.86 22.6393C26.9538 22.6355 27.0461 22.6058 27.1308 22.552C27.7331 22.2162 28.3507 21.8804 28.8087 21.2827C28.8487 21.2329 28.8813 21.1737 28.9049 21.1081C28.9223 21.0423 28.9309 20.973 28.9302 20.9032C28.9302 20.6111 28.9302 20.319 28.9302 20.0268C28.9325 19.8933 28.9108 19.7609 28.867 19.6407C28.8436 19.5814 28.8061 19.5341 28.7603 19.5061C28.7145 19.4782 28.663 19.4711 28.6139 19.4862" fill="#A0685B"/>
<path d="M27.6496 21.632C27.5984 21.6851 27.5423 21.7291 27.4825 21.7629C27.3501 21.8179 27.2105 21.8362 27.0725 21.8167C26.8634 21.81 26.6543 21.8269 26.4474 21.867C26.3954 21.8707 26.345 21.8915 26.3006 21.9275C26.2786 21.9457 26.2615 21.9728 26.252 22.0049C26.2424 22.0369 26.2408 22.0721 26.2474 22.1055C26.262 22.1416 26.2828 22.1727 26.3082 22.1961C26.4643 22.3959 26.6586 22.5352 26.87 22.5991C27.1301 22.6025 27.3841 22.4941 27.5939 22.2901L28.0545 21.9308C28.1241 21.8864 28.1848 21.8208 28.2317 21.7394C28.2949 21.6085 28.3101 21.2391 28.1532 21.2022C27.9963 21.1652 27.7508 21.5178 27.6496 21.632Z" fill="#78433B"/>
<path d="M28.8847 18.8012C28.915 18.7875 28.9464 18.7785 28.9783 18.7744C29.1476 18.7723 29.3167 18.7857 29.4845 18.8147C29.7098 18.8147 29.935 18.8348 30.1577 18.8147C30.588 18.8147 31.2915 18.7408 31.6762 19.3587C32.0609 19.9765 31.8711 20.863 31.7016 21.5279C31.6155 21.8637 31.4485 22.1491 31.3725 22.4715C31.3017 22.9032 31.294 23.3489 31.3498 23.7845C31.3536 23.8797 31.3681 23.9736 31.3928 24.0632C31.451 24.2479 31.5851 24.399 31.6256 24.5736C31.6403 24.6765 31.6339 24.7828 31.6072 24.8814C31.5805 24.98 31.5345 25.0673 31.4738 25.1344C31.3504 25.2653 31.2096 25.3643 31.0587 25.4265C30.879 25.5205 30.6993 25.6112 30.5146 25.6851C29.9185 25.9123 29.2918 25.9616 28.6797 25.8295C28.653 25.8304 28.6265 25.8224 28.6028 25.806C28.5791 25.7896 28.559 25.7655 28.5443 25.7359C28.5296 25.7063 28.5208 25.6722 28.5188 25.6369C28.5168 25.6016 28.5217 25.5661 28.5329 25.534C28.5917 24.9087 28.5677 24.2745 28.462 23.6602C28.3684 23.1095 28.1254 22.6864 28.047 22.129C27.9686 21.7305 27.9686 21.3119 28.047 20.9134C28.0622 20.863 28.1178 20.8261 28.1229 20.7724C28.128 20.7186 28.0596 20.581 28.0368 20.5172C27.9625 20.3079 27.9031 20.0898 27.8597 19.8657C27.8508 19.8309 27.8508 19.7931 27.8597 19.7583C27.8706 19.7314 27.8862 19.7083 27.9052 19.6911C28.0799 19.5031 28.257 19.315 28.4443 19.1471C28.579 19.0066 28.727 18.8903 28.8847 18.8012Z" fill="white"/>
<path d="M30.3678 17.3809C30.2792 17.757 29.9072 18.4218 29.4794 18.2674C29.5297 18.3876 29.5532 18.5242 29.5474 18.6615C29.5416 18.7988 29.5066 18.931 29.4465 19.043C29.4465 19.043 29.5857 19.5098 30.5196 18.8181C30.5196 18.8181 30.2665 18.7878 30.3374 18.0995C30.3558 17.8592 30.4183 17.6285 30.5196 17.4279C30.5087 17.4428 30.495 17.4537 30.48 17.4595C30.4649 17.4653 30.449 17.4659 30.4337 17.4612C30.4184 17.4564 30.4043 17.4466 30.3928 17.4325C30.3812 17.4184 30.3726 17.4006 30.3678 17.3809Z" fill="#A0685B"/>
<path d="M30.3247 17.5688C30.3247 17.5688 30.1197 18.7273 29.773 18.6803C29.4263 18.6333 29.4465 17.9382 29.4465 17.9382L30.3247 17.5688Z" fill="#78433B"/>
<path d="M29.406 14.728C29.406 14.728 28.8391 14.7717 28.6695 15.863C28.6405 15.9926 28.6356 16.1295 28.6554 16.2621C28.6751 16.3947 28.7189 16.5189 28.7829 16.6241C28.847 16.7292 28.9293 16.812 29.0229 16.8655C29.1164 16.9189 29.2184 16.9414 29.32 16.9308L29.8261 15.0403L29.406 14.728Z" fill="#473F47"/>
<path d="M29.7831 18.3209C29.2769 18.378 28.958 17.7434 28.8998 16.9106C28.8998 16.8199 28.8998 16.7293 28.8998 16.6319C28.8993 16.3618 28.9222 16.0925 28.9681 15.8293C29.1934 14.5533 30.5626 15.0637 30.5626 15.0637C31.6255 15.7051 30.6765 18.2236 29.7831 18.3209Z" fill="#A0685B"/>
<path d="M29.4161 15.0369C29.5503 15.6514 29.7274 16.5278 30.1754 16.867C30.2371 16.9208 30.3091 16.95 30.3829 16.9509C30.4538 16.9342 30.4462 16.8603 30.4994 16.7965C30.5168 16.773 30.5393 16.7572 30.5637 16.7512C30.5881 16.7452 30.6134 16.7493 30.636 16.7629C30.6549 16.7822 30.6701 16.8072 30.6802 16.8358C30.6903 16.8644 30.6951 16.8958 30.6942 16.9274C30.6935 17.0028 30.6786 17.0768 30.6507 17.1425C30.6228 17.2082 30.583 17.2636 30.5348 17.3035C30.4896 17.3307 30.4464 17.3633 30.4057 17.4009C30.3604 17.4596 30.3333 17.5387 30.3298 17.6225C30.3219 17.7355 30.3388 17.8491 30.3783 17.9497C30.4177 18.0504 30.4782 18.1338 30.5525 18.19C30.5625 18.1933 30.5729 18.1933 30.5829 18.19C30.5961 18.1872 30.6079 18.1775 30.6158 18.1632L30.8182 17.918C30.912 17.8081 30.9968 17.6854 31.0713 17.552C31.1638 17.3692 31.214 17.1544 31.2156 16.9342C31.2156 16.8334 31.1852 16.7327 31.1852 16.6353C31.1995 16.5097 31.225 16.3869 31.2611 16.2693C31.3074 16.1179 31.3306 15.9558 31.3295 15.7925C31.3094 15.6381 31.2605 15.4929 31.187 15.3703C31.1136 15.2476 31.0181 15.1515 30.9094 15.0906C30.5554 14.8962 30.1733 14.809 29.7907 14.8354C29.7152 14.8285 29.6394 14.8423 29.568 14.8757C29.5047 14.916 29.4769 15.0067 29.4161 15.0369Z" fill="#473F47"/>
<path d="M30.3247 22.7904L30.717 23.9354C31.2283 23.0647 31.6222 22.0831 31.8812 21.0341C32.1621 19.691 31.6635 19.3552 31.6635 19.3552C31.2839 19.1705 31.0258 19.8891 30.6512 21.3431C30.4462 22.1557 30.3247 22.7904 30.3247 22.7904Z" fill="#A0685B"/>
<path d="M32.0331 19.8254C32.0929 20.0688 32.1336 20.3198 32.1546 20.5743L32.19 20.9101C32.2053 20.9803 32.2053 21.0548 32.19 21.125C32.147 21.2459 31.9749 21.1955 31.8888 21.2156L31.4307 21.3097C31.1245 21.3735 30.8208 21.4339 30.5146 21.491C30.493 21.2838 30.493 21.0736 30.5146 20.8664C30.5424 20.6717 30.6057 20.4903 30.6411 20.2956C30.6765 20.1008 30.6816 19.9598 30.712 19.8221C30.777 19.494 30.9243 19.205 31.1296 19.0027C31.4535 18.6905 31.9243 19.446 32.023 19.7852C32.0257 19.7989 32.0291 19.8123 32.0331 19.8254Z" fill="white"/>
<path d="M26.3462 36.7059H11.4115V6.80664H23.2028L26.3462 11.125V36.7059Z" fill="white"/>
<path d="M23.2029 6.80664L26.3462 11.125H23.2231L23.2029 6.80664Z" fill="white"/>
<path d="M23.2029 6.80664L26.3462 11.125H23.2231L23.2029 6.80664Z" fill="#E2CBF3"/>
<g opacity="0.41">
<path d="M15.4584 22.3137H13.1097V25.027H15.4584V22.3137Z" fill="#E2CBF3"/>
</g>
<path d="M17.7868 20.2014H15.4381V25.0268H17.7868V20.2014Z" fill="#E2CBF3"/>
<g opacity="0.5">
<path d="M20.1151 17.9751H17.7665V25.0268H20.1151V17.9751Z" fill="#E2CBF3"/>
</g>
<path d="M22.4461 15.8059H20.0974V25.0269H22.4461V15.8059Z" fill="#E2CBF3"/>
<path d="M24.7746 13.6199H22.4259V25.0269H24.7746V13.6199Z" fill="#E2CBF3"/>
<path d="M24.7746 13.6199H22.4259V25.0269H24.7746V13.6199Z" fill="url(#paint2_linear_46_250)"/>
<path d="M23.1649 18.9455C23.1649 18.9455 24.0204 17.4378 25.1289 18.3344C26.2374 19.2309 25.4528 21.0476 25.4528 21.0476L26.3007 19.7783C26.3007 19.7783 26.283 18.1564 25.6502 17.6225C25.0175 17.0886 23.8786 17.1322 23.8786 17.1322L23.1674 18.4351L23.1649 18.9455Z" fill="url(#paint3_linear_46_250)"/>
<path d="M22.5397 19.4963C22.4256 19.978 22.4462 20.4981 22.5977 20.9614C22.7493 21.4246 23.0216 21.7997 23.3648 22.0181C23.6585 22.2136 23.9798 22.3254 24.308 22.3462C24.6363 22.367 24.9641 22.2964 25.2705 22.139L26.1488 23.3109L26.3386 23.734L26.3082 22.1725L25.6502 20.8764C25.6502 20.8764 23.3724 22.9549 22.8662 19.0664C22.8586 19.0731 22.6258 18.9724 22.5397 19.4963Z" fill="url(#paint4_linear_46_250)"/>
<path d="M27.5635 23.0155C27.6145 23.0846 27.6431 23.1774 27.6431 23.2741C27.6431 23.3708 27.6145 23.4636 27.5635 23.5327C27.5114 23.6003 27.4415 23.6382 27.3686 23.6382C27.2957 23.6382 27.2258 23.6003 27.1737 23.5327L25.4502 21.3399C25.3994 21.2714 25.3708 21.1792 25.3708 21.083C25.3708 20.9869 25.3994 20.8946 25.4502 20.8261C25.4756 20.7918 25.506 20.7646 25.5394 20.746C25.5729 20.7274 25.6088 20.7178 25.6451 20.7178C25.6814 20.7178 25.7173 20.7274 25.7507 20.746C25.7842 20.7646 25.8145 20.7918 25.84 20.8261L27.5635 23.0155Z" fill="#E2CBF3"/>
<path d="M24.4405 16.9744C24.0644 16.9737 23.6967 17.121 23.3838 17.3977C23.0709 17.6744 22.8269 18.0681 22.6826 18.5288C22.5384 18.9895 22.5004 19.4967 22.5734 19.9861C22.6465 20.4755 22.8273 20.9252 23.093 21.2782C23.3587 21.6312 23.6974 21.8717 24.0662 21.9693C24.4349 22.0669 24.8172 22.0171 25.1647 21.8264C25.5121 21.6356 25.8091 21.3124 26.0181 20.8976C26.2271 20.4828 26.3386 19.9951 26.3386 19.4962C26.3386 18.8279 26.1387 18.187 25.7828 17.7142C25.4269 17.2413 24.9441 16.9753 24.4405 16.9744ZM24.4405 21.38C24.1596 21.38 23.8851 21.2695 23.6516 21.0625C23.4182 20.8555 23.2362 20.5613 23.1287 20.2171C23.0212 19.8729 22.9931 19.4941 23.0479 19.1287C23.1027 18.7633 23.2379 18.4276 23.4365 18.1641C23.6351 17.9007 23.888 17.7213 24.1635 17.6486C24.4389 17.5759 24.7244 17.6132 24.9838 17.7558C25.2432 17.8984 25.465 18.1398 25.621 18.4496C25.777 18.7594 25.8603 19.1236 25.8603 19.4962C25.8596 19.9955 25.7098 20.4742 25.4437 20.8273C25.1776 21.1804 24.8168 21.3791 24.4405 21.38Z" fill="#E2CBF3"/>
<path d="M24.4405 16.9744C24.0644 16.9737 23.6967 17.121 23.3838 17.3977C23.0709 17.6744 22.8269 18.0681 22.6826 18.5288C22.5384 18.9895 22.5004 19.4967 22.5734 19.9861C22.6465 20.4755 22.8273 20.9252 23.093 21.2782C23.3587 21.6312 23.6974 21.8717 24.0662 21.9693C24.4349 22.0669 24.8172 22.0171 25.1647 21.8264C25.5121 21.6356 25.8091 21.3124 26.0181 20.8976C26.2271 20.4828 26.3386 19.9951 26.3386 19.4962C26.3386 18.8279 26.1387 18.187 25.7828 17.7142C25.4269 17.2413 24.9441 16.9753 24.4405 16.9744ZM24.4405 21.38C24.1596 21.38 23.8851 21.2695 23.6516 21.0625C23.4182 20.8555 23.2362 20.5613 23.1287 20.2171C23.0212 19.8729 22.9931 19.4941 23.0479 19.1287C23.1027 18.7633 23.2379 18.4276 23.4365 18.1641C23.6351 17.9007 23.888 17.7213 24.1635 17.6486C24.4389 17.5759 24.7244 17.6132 24.9838 17.7558C25.2432 17.8984 25.465 18.1398 25.621 18.4496C25.777 18.7594 25.8603 19.1236 25.8603 19.4962C25.8596 19.9955 25.7098 20.4742 25.4437 20.8273C25.1776 21.1804 24.8168 21.3791 24.4405 21.38Z" fill="url(#paint5_linear_46_250)"/>
<path d="M24.5822 16.7932C24.2063 16.7932 23.8388 16.9411 23.5262 17.2182C23.2137 17.4953 22.9701 17.8892 22.8262 18.35C22.6823 18.8108 22.6447 19.3178 22.718 19.807C22.7914 20.2962 22.9724 20.7456 23.2382 21.0982C23.504 21.4509 23.8427 21.6911 24.2114 21.7884C24.5801 21.8857 24.9623 21.8358 25.3096 21.6449C25.6569 21.454 25.9537 21.1308 26.1626 20.7161C26.3714 20.3014 26.4829 19.8138 26.4829 19.315C26.4829 18.9839 26.4337 18.6559 26.3382 18.35C26.2427 18.044 26.1027 17.766 25.9262 17.5318C25.7497 17.2977 25.5402 17.1119 25.3096 16.9852C25.079 16.8584 24.8318 16.7932 24.5822 16.7932ZM24.5822 21.1989C24.3007 21.1995 24.0253 21.0893 23.791 20.8822C23.5567 20.6751 23.374 20.3804 23.2661 20.0354C23.1581 19.6905 23.1297 19.3107 23.1845 18.9443C23.2393 18.578 23.3749 18.2414 23.5739 17.9773C23.773 17.7131 24.0267 17.5333 24.3028 17.4606C24.579 17.3879 24.8652 17.4256 25.1252 17.5688C25.3852 17.7121 25.6073 17.9545 25.7634 18.2653C25.9195 18.5762 26.0025 18.9415 26.002 19.315C26.002 19.8147 25.8524 20.2938 25.5862 20.6471C25.3199 21.0004 24.9588 21.1989 24.5822 21.1989Z" fill="#E2CBF3"/>
<path d="M30.717 23.9356C30.717 23.9356 30.7322 23.0054 30.3905 22.8208C30.0488 22.6361 27.6572 22.1492 27.6572 22.1492L27.4344 22.485C27.4344 22.485 29.7806 24.2781 30.717 23.9356Z" fill="#A0685B"/>
<path d="M27.4016 22.0651C27.345 22.05 27.2892 22.0298 27.2346 22.0047L26.7815 21.7898C26.7613 21.7898 26.7335 21.7898 26.7183 21.7898C26.7159 21.7972 26.7147 21.8052 26.7147 21.8133C26.7147 21.8214 26.7159 21.8294 26.7183 21.8368C26.7183 21.9275 26.7815 21.9946 26.8246 22.0651C26.8246 22.0651 26.8423 22.1021 26.8372 22.1222C26.8322 22.1424 26.8068 22.1558 26.7841 22.1558C26.5573 22.1742 26.33 22.1742 26.1033 22.1558C26.0742 22.1457 26.0437 22.1457 26.0147 22.1558C26.0007 22.1626 25.9889 22.1758 25.9815 22.193C25.9741 22.2102 25.9715 22.2303 25.9742 22.2498C25.9828 22.2732 25.9971 22.2921 26.0147 22.3036C26.0709 22.3504 26.1338 22.3812 26.1994 22.3942C26.1376 22.4279 26.0714 22.445 26.0046 22.4446C26.0077 22.4736 26.0163 22.5012 26.0296 22.5247C26.0428 22.5481 26.0603 22.5668 26.0805 22.5789C26.1219 22.5995 26.1654 22.612 26.2096 22.6159C26.1621 22.647 26.1105 22.6653 26.0577 22.6696C26.0451 22.7166 26.078 22.7602 26.1083 22.7905C26.2708 22.9409 26.4645 23.0207 26.6626 23.0188C26.8671 23.0754 27.0782 23.0754 27.2826 23.0188C27.4314 22.8997 27.5862 22.7942 27.7458 22.7032C27.7745 22.6991 27.8022 22.6865 27.8268 22.6662C27.8494 22.641 27.8653 22.6069 27.8723 22.5688C27.9381 22.2801 27.7939 22.1525 27.6015 22.1021L27.4016 22.0651Z" fill="#A0685B"/>
<path d="M24.3772 27.2766H13.6083V28.1732H24.3772V27.2766Z" fill="#E2CBF3"/>
<path d="M24.3772 29.5366H13.6083V30.4332H24.3772V29.5366Z" fill="#E2CBF3"/>
<path d="M24.3772 31.7998H13.6083V32.6964H24.3772V31.7998Z" fill="#E2CBF3"/>
<path d="M24.3772 34.0598H13.6083V34.9564H24.3772V34.0598Z" fill="#E2CBF3"/>
</g>
<defs>
<linearGradient id="paint0_linear_46_250" x1="24.4354" y1="91.7159" x2="15.5257" y2="-83.5689" gradientUnits="userSpaceOnUse">
<stop offset="0.01"/>
<stop offset="0.08" stop-opacity="0.69"/>
<stop offset="0.21" stop-opacity="0.32"/>
<stop offset="1" stop-opacity="0"/>
</linearGradient>
<linearGradient id="paint1_linear_46_250" x1="30.6777" y1="30.9041" x2="11.668" y2="37.6783" gradientUnits="userSpaceOnUse">
<stop offset="0.01"/>
<stop offset="0.08" stop-opacity="0.69"/>
<stop offset="0.21" stop-opacity="0.32"/>
<stop offset="1" stop-opacity="0"/>
</linearGradient>
<linearGradient id="paint2_linear_46_250" x1="17.7058" y1="13.7777" x2="42.3589" y2="26.9475" gradientUnits="userSpaceOnUse">
<stop offset="0.01"/>
<stop offset="0.08" stop-opacity="0.69"/>
<stop offset="0.21" stop-opacity="0.32"/>
<stop offset="1" stop-opacity="0"/>
</linearGradient>
<linearGradient id="paint3_linear_46_250" x1="26.0754" y1="15.648" x2="21.2948" y2="22.6198" gradientUnits="userSpaceOnUse">
<stop offset="0.01"/>
<stop offset="0.08" stop-opacity="0.69"/>
<stop offset="0.21" stop-opacity="0.32"/>
<stop offset="1" stop-opacity="0"/>
</linearGradient>
<linearGradient id="paint4_linear_46_250" x1="27.2168" y1="17.5151" x2="16.3147" y2="26.4746" gradientUnits="userSpaceOnUse">
<stop offset="0.01"/>
<stop offset="0.08" stop-opacity="0.69"/>
<stop offset="0.21" stop-opacity="0.32"/>
<stop offset="1" stop-opacity="0"/>
</linearGradient>
<linearGradient id="paint5_linear_46_250" x1="28.6873" y1="12.9381" x2="3.71789" y2="34.844" gradientUnits="userSpaceOnUse">
<stop offset="0.01"/>
<stop offset="0.08" stop-opacity="0.69"/>
<stop offset="0.21" stop-opacity="0.32"/>
<stop offset="1" stop-opacity="0"/>
</linearGradient>
<clipPath id="clip0_46_250">
<rect width="40" height="40" fill="white"/>
</clipPath>
</defs>
</svg>
