<svg width="48" height="38" viewBox="0 0 48 38" fill="none" xmlns="http://www.w3.org/2000/svg">
<g clip-path="url(#clip0_112_1044)">
<mask id="mask0_112_1044" style="mask-type:alpha" maskUnits="userSpaceOnUse" x="0" y="0" width="48" height="38">
<path d="M48 0H0V38H48V0Z" fill="white"/>
</mask>
<g mask="url(#mask0_112_1044)">
<path d="M24 4.88574C18.6981 4.88574 14.4 8.28837 14.4 12.4857V13.3226C13.4272 13.4518 12.6858 14.1216 12.6858 14.9286V16.8286C12.6858 17.6499 13.4538 18.3293 14.4523 18.441C14.8067 21.129 16.9308 23.4002 19.8858 24.5115V27.0072H19.2C12.3833 27.0072 6.85718 31.3821 6.85718 36.7786V38H41.1429V36.7786C41.1429 31.3821 35.6167 27.0072 28.8 27.0072H28.1143V24.5115C31.0692 23.4002 33.1934 21.129 33.5478 18.441C34.5463 18.3293 35.3143 17.6499 35.3143 16.8286V14.9286C35.3143 14.1216 34.5729 13.4518 33.6 13.3226V12.4857C33.6 8.28837 29.302 4.88574 24 4.88574Z" fill="#EDB98A"/>
<path d="M19.8857 24.5117V25.5974C21.1714 26.0805 22.5769 26.3304 24 26.3288C25.4231 26.3304 26.8287 26.0805 28.1143 25.5974V24.5117C26.8287 24.9948 25.4231 25.2447 24 25.2431C22.5769 25.2447 21.1714 24.9948 19.8857 24.5117Z" fill="black" fill-opacity="0.1"/>
<path d="M24.0858 30.3998C27.2575 30.3998 29.8286 29.0934 29.8286 27.482C29.8286 27.3343 29.807 27.1871 29.7642 27.0433C36.1303 27.4328 41.1429 31.6457 41.1429 36.7854V37.9998H6.85718V36.7854C6.85718 31.5988 11.9615 27.356 18.4103 27.0337C18.3656 27.1805 18.3429 27.331 18.3429 27.482C18.3429 29.0934 20.914 30.3998 24.0858 30.3998Z" fill="#FFAFB9"/>
<path fill-rule="evenodd" clip-rule="evenodd" d="M25.5053 34.978C25.0957 35.3386 24.6726 35.6897 24.2478 36.0393C24.4167 35.5573 24.5461 35.011 24.7971 34.5524C24.8684 34.4217 24.8142 34.4052 24.956 34.3497C25.0604 34.3087 25.3122 34.3555 25.4372 34.3581C25.7041 34.3634 25.9772 34.3842 26.2422 34.3513C25.9929 34.5575 25.7473 34.7665 25.5054 34.9782L25.5053 34.978ZM22.8886 35.5293C22.4259 35.0839 21.9656 34.6379 21.4043 34.2649C21.6253 34.2835 21.8665 34.259 22.0829 34.2928C22.4161 34.3449 22.3978 34.4272 22.5663 34.6944C22.8149 35.0888 23.0615 35.48 23.2606 35.8918C23.1387 35.7697 23.0135 35.6496 22.8886 35.5294V35.5293ZM21.3289 33.8287C21.494 33.6149 21.525 33.4253 21.8295 33.3157C22.1826 33.1882 22.7381 33.215 23.1131 33.1914C22.8783 33.3981 22.5925 33.6125 22.4953 33.8865C22.3455 33.6533 22.159 33.4557 21.8662 33.3206C21.8293 33.306 22.0647 33.9381 22.0955 33.9815C21.8014 33.9685 21.4918 33.9261 21.1998 33.969L21.3289 33.8287ZM24.1414 33.149C24.4143 33.1539 24.6848 33.1707 24.9539 33.206C24.7367 33.4333 24.6713 33.6988 24.5941 33.9701C24.5122 33.6636 24.2154 33.3781 23.954 33.1493L24.1414 33.149ZM23.5417 33.2948C23.5818 33.2733 24.3058 33.985 24.4102 34.0488C23.8424 34.0477 23.2757 34.0257 22.7086 34.0061C23.0355 33.8042 23.2268 33.5055 23.5417 33.2949V33.2948ZM24.0023 35.6149C23.9334 35.798 23.869 35.9825 23.7941 36.1642C23.5275 35.522 23.132 34.9172 22.7641 34.3084C23.3367 34.3204 23.9086 34.3368 24.4811 34.3432C24.3406 34.7718 24.1619 35.1907 24.0023 35.6148V35.6149ZM25.2416 33.245C25.4605 33.3981 25.7725 33.7118 25.8735 33.8173C25.8836 33.8277 25.8937 33.8382 25.9042 33.8485C25.9402 33.8839 26.0698 34.0188 26.1207 34.0716C25.7389 34.0409 25.3415 34.054 24.9584 34.0512C25.0438 33.7725 25.1477 33.5068 25.0585 33.2196C25.1197 33.2273 25.1806 33.2359 25.2416 33.245ZM26.5527 34.0073C26.1827 33.6441 25.8035 33.0223 25.2046 32.9111C24.6094 32.8006 23.9106 32.8495 23.3062 32.8799C22.779 32.9062 21.9205 32.8522 21.4556 33.0961C21.2168 33.2214 21.0399 33.5039 20.9571 33.7137C20.8827 33.9028 21.0027 34.0238 20.7435 34.0238C20.727 34.0238 21.1727 34.5223 21.2252 34.5615C21.6147 34.852 21.987 35.1318 22.3321 35.4568C22.8181 35.9147 23.2587 36.5884 23.8998 36.7782C23.7822 36.7321 24.3785 36.3755 24.4501 36.3141C24.8118 36.0036 25.178 35.6961 25.5425 35.3872C25.8747 35.1059 26.2367 34.8403 26.559 34.5526C26.805 34.333 26.8057 34.2574 26.5527 34.0073ZM20.7428 32.8424C20.7502 32.8443 20.587 32.5649 20.6014 32.582C20.5199 32.4846 20.4221 32.4137 20.3034 32.3476C20.1786 32.2783 19.5647 32.1983 19.543 32.1639C19.7991 32.5238 20.2573 32.7241 20.7428 32.8424ZM23.3753 32.1905C23.4039 32.2773 23.4499 32.36 23.5115 32.4353C23.5235 32.4459 23.6588 31.8675 23.6573 31.8182C23.6552 31.7339 23.5909 31.2139 23.4541 31.2139C23.2249 31.2139 23.3386 32.0919 23.3754 32.1905H23.3753ZM27.9378 31.8924C27.4249 31.8924 26.2784 32.6869 26.4107 33.1139C26.4116 33.1152 26.4874 33.0664 26.4707 33.0755C26.4741 33.0736 26.4774 33.0717 26.4805 33.0696C26.6986 32.9305 26.9465 32.7955 27.1649 32.6345C27.321 32.5192 27.5055 32.4158 27.6476 32.2898C27.6622 32.2768 27.9881 31.8924 27.9378 31.8924Z" fill="white"/>
<path d="M21.6001 20.3569C21.6001 21.0859 22.6558 21.5783 24.0001 21.5783C25.3444 21.5783 26.4001 21.0859 26.4001 20.3569C26.4001 20.2069 26.2372 20.0854 26.0572 20.0854C25.8356 20.0854 25.7367 20.2083 25.7144 20.3569C25.5015 20.7556 24.9743 20.9969 24.0001 21.0354C23.0259 20.9969 22.4987 20.7556 22.2858 20.3569C22.2635 20.2083 22.1646 20.0854 21.943 20.0854C21.763 20.0854 21.6001 20.2069 21.6001 20.3569Z" fill="black" fill-opacity="0.6"/>
<path fill-rule="evenodd" clip-rule="evenodd" d="M21.9429 17.6426C21.9429 18.2422 22.864 18.7283 24 18.7283C25.1361 18.7283 26.0572 18.2422 26.0572 17.6426" fill="black" fill-opacity="0.16"/>
<path d="M18.6858 15.8784C18.6858 15.8784 17.6572 16.8651 17.6572 17.4079C17.6572 17.5149 17.6838 17.6207 17.7355 17.7195C17.7872 17.8183 17.863 17.9081 17.9585 17.9837C18.054 18.0593 18.1674 18.1193 18.2922 18.1602C18.417 18.2011 18.5507 18.2222 18.6858 18.2222C18.8209 18.2222 18.9546 18.2011 19.0794 18.1602C19.2042 18.1193 19.3176 18.0593 19.4131 17.9837C19.5086 17.9081 19.5844 17.8183 19.6361 17.7195C19.6878 17.6207 19.7144 17.5149 19.7144 17.4079C19.7144 16.8651 18.6858 15.8784 18.6858 15.8784Z" fill="#92D9FF"/>
<path d="M20.5715 15.2C20.5715 15.416 20.4632 15.6231 20.2703 15.7758C20.0774 15.9285 19.8158 16.0143 19.543 16.0143C19.2702 16.0143 19.0086 15.9285 18.8157 15.7758C18.6228 15.6231 18.5144 15.416 18.5144 15.2C18.5144 14.9841 18.6228 14.7769 18.8157 14.6242C19.0086 14.4715 19.2702 14.3857 19.543 14.3857C19.8158 14.3857 20.0774 14.4715 20.2703 14.6242C20.4632 14.7769 20.5715 14.9841 20.5715 15.2ZM29.4858 15.2C29.4858 15.416 29.3775 15.6231 29.1846 15.7758C28.9917 15.9285 28.7301 16.0143 28.4573 16.0143C28.1845 16.0143 27.9228 15.9285 27.73 15.7758C27.5371 15.6231 27.4287 15.416 27.4287 15.2C27.4287 14.9841 27.5371 14.7769 27.73 14.6242C27.9228 14.4715 28.1845 14.3857 28.4573 14.3857C28.7301 14.3857 28.9917 14.4715 29.1846 14.6242C29.3775 14.7769 29.4858 14.9841 29.4858 15.2Z" fill="black" fill-opacity="0.6"/>
<path d="M17.0762 13.189C17.8031 12.4062 18.2553 12.4449 19.3584 13.104L19.4733 13.1728C20.3009 13.6697 20.6928 13.8426 21.2572 13.8426C21.3481 13.8426 21.4353 13.814 21.4996 13.7631C21.5639 13.7122 21.6 13.6432 21.6 13.5712C21.6 13.4992 21.5639 13.4302 21.4996 13.3793C21.4353 13.3284 21.3481 13.2998 21.2572 13.2998C20.903 13.2998 20.5884 13.1611 19.8876 12.7402L19.7714 12.6705C19.1268 12.2856 18.7499 12.1173 18.2808 12.0774C17.6493 12.0233 17.0709 12.2783 16.5237 12.8675C16.497 12.8963 16.4777 12.9289 16.467 12.9635C16.4562 12.9981 16.4542 13.034 16.461 13.0693C16.4677 13.1045 16.4832 13.1384 16.5065 13.1689C16.5298 13.1994 16.5605 13.2259 16.5968 13.2471C16.6331 13.2682 16.6743 13.2834 16.718 13.292C16.7617 13.3005 16.8071 13.3021 16.8516 13.2967C16.8962 13.2913 16.9389 13.2791 16.9774 13.2606C17.016 13.2422 17.0495 13.2179 17.0762 13.1892V13.189ZM30.9237 13.189C30.1968 12.4062 29.7448 12.4449 28.6416 13.104L28.5268 13.1728C27.6991 13.6697 27.3072 13.8426 26.7429 13.8426C26.6519 13.8426 26.5647 13.814 26.5004 13.7631C26.4361 13.7122 26.4 13.6432 26.4 13.5712C26.4 13.4992 26.4361 13.4302 26.5004 13.3793C26.5647 13.3284 26.6519 13.2998 26.7429 13.2998C27.0971 13.2998 27.4116 13.1611 28.1124 12.7402L28.2287 12.6705C28.8732 12.2856 29.2502 12.1173 29.7192 12.0774C30.3508 12.0233 30.9292 12.2783 31.4764 12.8675C31.503 12.8963 31.5223 12.9289 31.5331 12.9635C31.5438 12.9981 31.5459 13.0341 31.5391 13.0693C31.5323 13.1046 31.5168 13.1384 31.4935 13.1689C31.4701 13.1994 31.4395 13.226 31.4032 13.2471C31.3669 13.2682 31.3257 13.2835 31.282 13.292C31.2382 13.3005 31.1928 13.3022 31.1483 13.2968C31.1037 13.2914 31.061 13.2791 31.0225 13.2607C30.9839 13.2422 30.9504 13.2179 30.9237 13.1892V13.189Z" fill="black" fill-opacity="0.6"/>
<path fill-rule="evenodd" clip-rule="evenodd" d="M29.8816 4.75076C26.4208 3.1629 22.9936 3.42293 20.4064 3.93973C17.8192 4.45653 16.2887 5.92401 14.9755 8.09503C14.3308 9.16107 13.9485 10.4216 13.8897 11.6009C13.8666 12.064 13.9454 12.542 14.1031 12.9879C14.1609 13.1515 14.4726 13.7189 14.5581 13.2605C14.5866 13.1078 14.4823 12.8973 14.4724 12.7351C14.459 12.5222 14.4733 12.3067 14.4916 12.0941C14.5259 11.6968 14.6154 11.307 14.7745 10.9283C15.0021 10.3871 15.2917 9.80028 15.735 9.3436C16.8323 8.21337 18.7319 8.14904 20.2399 7.5272C20.1091 7.71788 19.6046 8.02663 19.7793 8.24147C19.9002 8.38994 20.357 8.34488 20.5753 8.34013C21.1494 8.32764 21.7261 8.24866 22.2931 8.18447C23.1868 8.08336 24.0242 7.87843 24.8653 7.62953C25.5537 7.42569 26.3401 7.23704 26.8576 6.80466C27.6926 7.48974 28.7675 8.13385 29.8406 8.56935C30.8037 8.96021 32.357 9.15537 32.9457 9.94794C33.6426 10.8863 33.322 12.0388 33.5347 13.0558C33.6157 13.4426 33.7996 13.4339 33.9002 13.088C34.0711 12.5003 34.1519 11.8899 34.0975 11.2858C33.9745 9.92215 33.3424 6.33862 29.8816 4.75076Z" fill="#4A312C"/>
</g>
</g>
<defs>
<clipPath id="clip0_112_1044">
<rect width="48" height="38" fill="white"/>
</clipPath>
</defs>
</svg>
