<svg width="360" height="44" viewBox="0 0 360 44" fill="none" xmlns="http://www.w3.org/2000/svg">
<rect width="360" height="44" fill="#E2CBF3"/>
<path d="M42.6023 16.4857L33.0004 24.9604V34.107C33.0004 34.3439 33.0882 34.571 33.2445 34.7385C33.4007 34.9059 33.6127 35 33.8337 35L39.6697 34.9838C39.8899 34.9826 40.1008 34.888 40.2562 34.7207C40.4116 34.5534 40.4988 34.3269 40.4988 34.0909V28.7493C40.4988 28.5125 40.5866 28.2853 40.7428 28.1179C40.8991 27.9504 41.111 27.8563 41.332 27.8563H44.6651C44.8861 27.8563 45.0981 27.9504 45.2543 28.1179C45.4106 28.2853 45.4984 28.5125 45.4984 28.7493V34.087C45.498 34.2045 45.5193 34.3209 45.5611 34.4295C45.6028 34.5382 45.6641 34.637 45.7415 34.7202C45.8189 34.8034 45.9109 34.8694 46.0122 34.9145C46.1134 34.9595 46.222 34.9827 46.3317 34.9827L52.1656 35C52.3866 35 52.5985 34.9059 52.7548 34.7385C52.9111 34.571 52.9989 34.3439 52.9989 34.107V24.9542L43.3991 16.4857C43.2862 16.3882 43.1456 16.335 43.0007 16.335C42.8557 16.335 42.7151 16.3882 42.6023 16.4857ZM57.7693 22.2458L53.4155 18.3999V10.6697C53.4155 10.4921 53.3496 10.3218 53.2324 10.1962C53.1152 10.0706 52.9563 10 52.7905 10H49.8741C49.7083 10 49.5494 10.0706 49.4322 10.1962C49.315 10.3218 49.2491 10.4921 49.2491 10.6697V14.7221L44.5865 10.6111C44.139 10.2165 43.5775 10.0008 42.9981 10.0008C42.4186 10.0008 41.8571 10.2165 41.4096 10.6111L28.2268 22.2458C28.1635 22.3018 28.1112 22.3707 28.0727 22.4484C28.0343 22.5262 28.0105 22.6113 28.0028 22.6989C27.995 22.7865 28.0035 22.8748 28.0276 22.9589C28.0518 23.043 28.0911 23.1212 28.1435 23.189L29.4715 24.9191C29.5237 24.9871 29.5879 25.0434 29.6604 25.0848C29.733 25.1262 29.8124 25.1519 29.8942 25.1603C29.976 25.1688 30.0586 25.1598 30.1372 25.1341C30.2157 25.1083 30.2888 25.0661 30.3522 25.01L42.6023 14.1975C42.7151 14.1 42.8557 14.0468 43.0007 14.0468C43.1456 14.0468 43.2862 14.1 43.3991 14.1975L55.6497 25.01C55.7129 25.0661 55.7859 25.1083 55.8644 25.1342C55.9428 25.1601 56.0253 25.1691 56.107 25.1608C56.1888 25.1525 56.2682 25.1271 56.3407 25.0859C56.4133 25.0447 56.4775 24.9886 56.5298 24.9208L57.8579 23.1906C57.9101 23.1225 57.9493 23.0439 57.9732 22.9594C57.9971 22.875 58.0051 22.7863 57.9969 22.6985C57.9886 22.6107 57.9643 22.5255 57.9253 22.4478C57.8862 22.3701 57.8332 22.3015 57.7693 22.2458Z" fill="#8E33BB"/>
<path d="M143.592 33.6162L137.75 28.748C137.486 28.5283 137.129 28.4062 136.754 28.4062H135.798C137.416 26.6826 138.377 24.5146 138.377 22.1562C138.377 16.5459 132.921 12 126.188 12C119.455 12 114 16.5459 114 22.1562C114 27.7666 119.455 32.3125 126.188 32.3125C129.019 32.3125 131.62 31.5117 133.689 30.1641V30.96C133.689 31.2725 133.835 31.5703 134.099 31.79L139.941 36.6582C140.492 37.1172 141.383 37.1172 141.928 36.6582L143.586 35.2764C144.137 34.8174 144.137 34.0752 143.592 33.6162ZM126.188 28.4062C122.046 28.4062 118.688 25.6133 118.688 22.1562C118.688 18.7041 122.04 15.9062 126.188 15.9062C130.331 15.9062 133.689 18.6992 133.689 22.1562C133.689 25.6084 130.337 28.4062 126.188 28.4062Z" fill="#8E33BB"/>
<path d="M310 21.5C314.734 21.5 318.571 18.7021 318.571 15.25C318.571 11.7979 314.734 9 310 9C305.266 9 301.429 11.7979 301.429 15.25C301.429 18.7021 305.266 21.5 310 21.5ZM316 23.0625H314.882C313.395 23.5605 311.741 23.8438 310 23.8438C308.259 23.8438 306.612 23.5605 305.118 23.0625H304C299.031 23.0625 295 26.002 295 29.625V31.6562C295 32.9502 296.44 34 298.214 34H321.786C323.56 34 325 32.9502 325 31.6562V29.625C325 26.002 320.969 23.0625 316 23.0625Z" fill="black"/>
<path d="M223.25 26.5H225.125C225.438 26.5 225.75 26.1875 225.75 25.875V19.3125C225.75 19 225.438 18.6875 225.125 18.6875H223.25C222.937 18.6875 222.625 19 222.625 19.3125V25.875C222.625 26.1875 222.937 26.5 223.25 26.5ZM227.938 26.5H229.812C230.125 26.5 230.438 26.1875 230.438 25.875V14.625C230.438 14.3125 230.125 14 229.812 14H227.938C227.625 14 227.312 14.3125 227.312 14.625V25.875C227.312 26.1875 227.625 26.5 227.938 26.5ZM213.875 26.5H215.75C216.062 26.5 216.375 26.1875 216.375 25.875V22.4375C216.375 22.125 216.062 21.8125 215.75 21.8125H213.875C213.562 21.8125 213.25 22.125 213.25 22.4375V25.875C213.25 26.1875 213.562 26.5 213.875 26.5ZM218.562 26.5H220.438C220.75 26.5 221.062 26.1875 221.062 25.875V16.1875C221.062 15.875 220.75 15.5625 220.438 15.5625H218.562C218.25 15.5625 217.938 15.875 217.938 16.1875V25.875C217.938 26.1875 218.25 26.5 218.562 26.5ZM231.219 29.625H210.125V14.7812C210.125 14.3496 209.775 14 209.344 14H207.781C207.35 14 207 14.3496 207 14.7812V31.1875C207 32.0503 207.7 32.75 208.562 32.75H231.219C231.65 32.75 232 32.4004 232 31.9688V30.4062C232 29.9746 231.65 29.625 231.219 29.625Z" fill="#8E33BB"/>
</svg>
