<svg width="8" height="5" viewBox="0 0 8 5" fill="none" xmlns="http://www.w3.org/2000/svg">
<path d="M0.546849 4.60901C0.63345 3.7077 1.04485 2.84667 1.70324 2.16908C2.34462 1.50902 3.22126 1.05624 4.16664 0.871774C4.69438 0.768803 5.24107 0.74871 5.77551 0.818073C5.90345 0.834677 5.90004 1.01945 5.77074 1.00267C4.86115 0.884613 3.92101 1.02885 3.10369 1.41089C2.26594 1.80248 1.59543 2.4394 1.18123 3.20744C0.944364 3.64665 0.79661 4.12601 0.749785 4.61335C0.73845 4.73131 0.535449 4.72767 0.546849 4.60901Z" fill="white"/>
<path d="M5.55038 0.0768502L7.11285 0.77806C7.16969 0.803565 7.17902 0.88776 7.13073 0.924069L5.65159 2.03625C5.55148 2.11152 5.41057 1.97852 5.51147 1.90265L6.99061 0.790477L7.00849 0.936483L5.44601 0.235272C5.32868 0.182615 5.43399 0.0246146 5.55038 0.0768502Z" fill="white"/>
</svg>
