<svg width="65" height="59" viewBox="0 0 65 59" fill="none" xmlns="http://www.w3.org/2000/svg">
<path opacity="0.3" d="M16.1624 12.7262C10.7446 15.2527 6.72436 21.6561 5.92486 29.404C5.25698 35.9326 6.85273 43.1462 16.2469 45.2011C34.5249 49.2013 53.3667 49.669 57.7363 38.8799C62.106 28.0908 56.126 10.8142 46.8489 9.61845C39.4876 8.66734 26.746 7.79254 16.1624 12.7262Z" fill="#E6E6E6"/>
<path d="M39.346 11.2173H25.6538C24.7949 11.2173 24.0986 12.0558 24.0986 13.0902V44.2538C24.0986 45.2882 24.7949 46.1267 25.6538 46.1267H39.346C40.2049 46.1267 40.9011 45.2882 40.9011 44.2538V13.0902C40.9011 12.0558 40.2049 11.2173 39.346 11.2173Z" fill="#24285B"/>
<path opacity="0.03" d="M32.5001 45.0605C33.1723 45.0605 33.7172 44.4043 33.7172 43.5947C33.7172 42.7852 33.1723 42.1289 32.5001 42.1289C31.8279 42.1289 31.283 42.7852 31.283 43.5947C31.283 44.4043 31.8279 45.0605 32.5001 45.0605Z" fill="black"/>
<path d="M39.2617 14.2471H25.7368V41.4282H39.2617V14.2471Z" fill="#A995FF"/>
<path opacity="0.03" d="M30.9513 39.8117C31.1954 39.8117 31.3933 39.5734 31.3933 39.2794C31.3933 38.9854 31.1954 38.7471 30.9513 38.7471C30.7072 38.7471 30.5093 38.9854 30.5093 39.2794C30.5093 39.5734 30.7072 39.8117 30.9513 39.8117Z" fill="black"/>
<path opacity="0.44" d="M32.5001 39.8117C32.7442 39.8117 32.9421 39.5734 32.9421 39.2794C32.9421 38.9854 32.7442 38.7471 32.5001 38.7471C32.256 38.7471 32.0581 38.9854 32.0581 39.2794C32.0581 39.5734 32.256 39.8117 32.5001 39.8117Z" fill="white"/>
<path opacity="0.03" d="M34.0487 39.8117C34.2928 39.8117 34.4907 39.5734 34.4907 39.2794C34.4907 38.9854 34.2928 38.7471 34.0487 38.7471C33.8046 38.7471 33.6067 38.9854 33.6067 39.2794C33.6067 39.5734 33.8046 39.8117 34.0487 39.8117Z" fill="black"/>
<path opacity="0.03" d="M37.458 17.2451H27.5422V27.4393H37.458V17.2451Z" fill="black"/>
<path opacity="0.03" d="M34.4989 29.4043H27.5422V30.3378H34.4989V29.4043Z" fill="black"/>
<path opacity="0.03" d="M37.4578 29.4043H34.9683V30.3378H37.4578V29.4043Z" fill="black"/>
<path opacity="0.03" d="M30.7922 32.2671H27.5422V33.2006H30.7922V32.2671Z" fill="black"/>
<path opacity="0.03" d="M37.4578 32.2671H31.4827V33.2006H37.4578V32.2671Z" fill="black"/>
<path opacity="0.03" d="M35.0514 35.1323H27.5422V36.0658H35.0514V35.1323Z" fill="black"/>
<path d="M22.5744 14.2471H9.04956V41.4282H22.5744V14.2471Z" fill="#A995FF"/>
<path opacity="0.44" d="M14.2643 39.8117C14.5084 39.8117 14.7063 39.5734 14.7063 39.2794C14.7063 38.9854 14.5084 38.7471 14.2643 38.7471C14.0202 38.7471 13.8223 38.9854 13.8223 39.2794C13.8223 39.5734 14.0202 39.8117 14.2643 39.8117Z" fill="white"/>
<path opacity="0.03" d="M15.8128 39.8117C16.057 39.8117 16.2549 39.5734 16.2549 39.2794C16.2549 38.9854 16.057 38.7471 15.8128 38.7471C15.5687 38.7471 15.3708 38.9854 15.3708 39.2794C15.3708 39.5734 15.5687 39.8117 15.8128 39.8117Z" fill="black"/>
<path opacity="0.03" d="M17.3614 39.8117C17.6055 39.8117 17.8034 39.5734 17.8034 39.2794C17.8034 38.9854 17.6055 38.7471 17.3614 38.7471C17.1173 38.7471 16.9194 38.9854 16.9194 39.2794C16.9194 39.5734 17.1173 39.8117 17.3614 39.8117Z" fill="black"/>
<path opacity="0.03" d="M20.7707 17.2451H10.855V27.4393H20.7707V17.2451Z" fill="black"/>
<path opacity="0.03" d="M17.8116 29.4043H10.855V30.3378H17.8116V29.4043Z" fill="black"/>
<path opacity="0.03" d="M20.7708 29.4043H18.2812V30.3378H20.7708V29.4043Z" fill="black"/>
<path opacity="0.03" d="M14.105 32.2671H10.855V33.2006H14.105V32.2671Z" fill="black"/>
<path opacity="0.03" d="M20.7708 32.2671H14.7957V33.2006H20.7708V32.2671Z" fill="black"/>
<path opacity="0.03" d="M18.3641 35.1323H10.855V36.0658H18.3641V35.1323Z" fill="black"/>
<path d="M55.9487 14.2471H42.4238V41.4282H55.9487V14.2471Z" fill="#A995FF"/>
<path opacity="0.03" d="M47.6385 39.8117C47.8826 39.8117 48.0805 39.5734 48.0805 39.2794C48.0805 38.9854 47.8826 38.7471 47.6385 38.7471C47.3944 38.7471 47.1965 38.9854 47.1965 39.2794C47.1965 39.5734 47.3944 39.8117 47.6385 39.8117Z" fill="black"/>
<path opacity="0.03" d="M49.1871 39.8117C49.4312 39.8117 49.6291 39.5734 49.6291 39.2794C49.6291 38.9854 49.4312 38.7471 49.1871 38.7471C48.943 38.7471 48.7451 38.9854 48.7451 39.2794C48.7451 39.5734 48.943 39.8117 49.1871 39.8117Z" fill="black"/>
<path opacity="0.44" d="M50.7357 39.8117C50.9798 39.8117 51.1777 39.5734 51.1777 39.2794C51.1777 38.9854 50.9798 38.7471 50.7357 38.7471C50.4916 38.7471 50.2937 38.9854 50.2937 39.2794C50.2937 39.5734 50.4916 39.8117 50.7357 39.8117Z" fill="white"/>
<path opacity="0.03" d="M54.145 17.2451H44.2292V27.4393H54.145V17.2451Z" fill="black"/>
<path opacity="0.03" d="M51.1859 29.4043H44.2292V30.3378H51.1859V29.4043Z" fill="black"/>
<path opacity="0.03" d="M54.145 29.4043H51.6555V30.3378H54.145V29.4043Z" fill="black"/>
<path opacity="0.03" d="M47.4792 32.2671H44.2292V33.2006H47.4792V32.2671Z" fill="black"/>
<path opacity="0.03" d="M54.1465 32.2671H48.1714V33.2006H54.1465V32.2671Z" fill="black"/>
<path opacity="0.03" d="M51.7384 35.1323H44.2292V36.0658H51.7384V35.1323Z" fill="black"/>
<path opacity="0.1" d="M37.1151 46.1346C37.1151 45.9389 36.7706 37.9151 36.9916 36.7213C37.2126 35.5275 39.2406 29.6917 38.7059 29.0106C38.1713 28.3296 36.2132 29.8796 36.2132 29.8796C36.2132 29.8796 36.5707 22.8519 35.7257 22.3509C34.8807 21.8499 34.5053 23.8128 34.5053 23.8128L34.0552 31.6742L31.8257 46.0974L37.1151 46.1346Z" fill="black"/>
<path d="M35.6087 37.9522C35.8931 36.5823 36.3205 35.2456 36.5935 33.862C36.7738 32.9461 37.9406 29.1182 38.2672 27.9909C38.368 27.6445 38.4541 27.2257 38.2591 26.9439C38.1933 26.8615 38.1113 26.8004 38.0207 26.7662C37.9301 26.732 37.8338 26.7258 37.7407 26.7482C37.5529 26.7955 37.3796 26.9045 37.2402 27.0633C36.9152 27.4077 36.3156 29.1123 35.8768 29.1104C35.3455 29.1104 35.5957 27.349 35.5811 27.0105C35.521 25.5525 35.6103 23.6835 35.1375 22.3136C34.7865 21.296 33.9155 21.4329 33.7107 22.5328C33.506 23.6326 33.5141 28.2414 33.5141 28.2414C33.5141 28.2414 30.1146 27.5389 29.5345 28.7875C28.9543 30.036 29.9342 37.9679 29.9342 37.9679L35.6087 37.9522Z" fill="#F4A28C"/>
<path d="M36.0229 50.1193L35.9611 37.5141L29.609 35.835L27.0513 50.1193H36.0229Z" fill="#FFD200"/>
<path opacity="0.1" d="M36.023 50.119L35.9612 37.5138L32.929 36.7114L32.3862 50.119H36.023Z" fill="black"/>
</svg>
