<svg width="77" height="71" viewBox="0 0 77 71" fill="none" xmlns="http://www.w3.org/2000/svg">
<path d="M22.4501 31.2199L29.7128 27.6699L37.114 31.6161C37.114 31.6161 33.957 33.1398 34.188 33.3812C34.419 33.6226 33.957 37.8627 33.957 37.8627C33.957 37.8627 28.8504 39.3665 25.333 37.8627L25.0989 33.1327L22.4501 31.2199Z" fill="#3FE2FD"/>
<path d="M37.3588 36.6558C38.1082 36.6558 38.7156 36.0957 38.7156 35.4048C38.7156 34.7139 38.1082 34.1538 37.3588 34.1538C36.6095 34.1538 36.0021 34.7139 36.0021 35.4048C36.0021 36.0957 36.6095 36.6558 37.3588 36.6558Z" fill="#3FE2FD"/>
<path d="M12.4509 8.00732H7.94331V61.7202H12.4509V8.00732Z" fill="#3FE2FD"/>
<path d="M17.1048 13.7201C18.1475 13.7201 18.9928 12.9407 18.9928 11.9792C18.9928 11.0177 18.1475 10.2383 17.1048 10.2383C16.062 10.2383 15.2167 11.0177 15.2167 11.9792C15.2167 12.9407 16.062 13.7201 17.1048 13.7201Z" fill="#3FE2FD"/>
<path d="M23.5158 13.7201C24.5585 13.7201 25.4038 12.9407 25.4038 11.9792C25.4038 11.0177 24.5585 10.2383 23.5158 10.2383C22.4731 10.2383 21.6277 11.0177 21.6277 11.9792C21.6277 12.9407 22.4731 13.7201 23.5158 13.7201Z" fill="#3FE2FD"/>
<path d="M18.9913 23.6157H15.9251V42.0913H18.9913V23.6157Z" fill="#3FE2FD"/>
<path d="M22.3023 36.8353C22.113 36.8352 21.9271 36.7892 21.7633 36.7018L13.7553 32.4418C13.5916 32.3546 13.4556 32.2291 13.3611 32.0781C13.2666 31.927 13.2169 31.7557 13.2169 31.5813C13.2169 31.4069 13.2666 31.2356 13.3611 31.0846C13.4556 30.9336 13.5916 30.8081 13.7553 30.7208L21.7633 26.4608C21.9272 26.3736 22.113 26.3276 22.3023 26.3276C22.4915 26.3276 22.6774 26.3736 22.8413 26.4608L30.8493 30.7208C31.013 30.8081 31.1489 30.9336 31.2434 31.0846C31.3379 31.2356 31.3877 31.4069 31.3877 31.5813C31.3877 31.7557 31.3379 31.927 31.2434 32.0781C31.1489 32.2291 31.013 32.3546 30.8493 32.4418L22.8413 36.7018C22.6774 36.7892 22.4915 36.8352 22.3023 36.8353ZM16.4503 31.5813L22.3023 34.694L28.1543 31.5813L22.3023 28.4687L16.4503 31.5813Z" fill="#251AC7"/>
<path d="M22.3531 40.0246C20.945 40.0255 19.5472 39.8027 18.2213 39.3657L17.191 39.0263C16.9818 38.9573 16.8009 38.8303 16.673 38.6628C16.5451 38.4953 16.4765 38.2954 16.4765 38.0905V33.3108C16.4765 33.0472 16.59 32.7944 16.7922 32.608C16.9944 32.4216 17.2686 32.3168 17.5545 32.3168C17.8404 32.3168 18.1146 32.4216 18.3167 32.608C18.5189 32.7944 18.6325 33.0472 18.6325 33.3108V37.3834L18.9482 37.487C21.1249 38.2028 23.5014 38.2113 25.6841 37.5112L26.0999 37.3777V33.2469C26.0999 32.9833 26.2135 32.7305 26.4157 32.5441C26.6178 32.3577 26.892 32.2529 27.1779 32.2529C27.4638 32.2529 27.738 32.3577 27.9402 32.5441C28.1423 32.7305 28.2559 32.9833 28.2559 33.2469V38.0834C28.256 38.2897 28.1865 38.4908 28.0571 38.6589C27.9277 38.8271 27.7448 38.954 27.5337 39.0221L26.3956 39.3884C25.0964 39.8083 23.7298 40.0233 22.3531 40.0246Z" fill="#251AC7"/>
<path d="M30.3057 35.7817C30.0198 35.7817 29.7456 35.677 29.5434 35.4906C29.3412 35.3042 29.2277 35.0513 29.2277 34.7877V31.5799C29.2277 31.3163 29.3412 31.0635 29.5434 30.8771C29.7456 30.6907 30.0198 30.5859 30.3057 30.5859C30.5916 30.5859 30.8658 30.6907 31.0679 30.8771C31.2701 31.0635 31.3837 31.3163 31.3837 31.5799V34.7877C31.3837 35.0513 31.2701 35.3042 31.0679 35.4906C30.8658 35.677 30.5916 35.7817 30.3057 35.7817Z" fill="#251AC7"/>
<path d="M58.577 63.6875H5.39C2.41934 63.6875 0 61.7194 0 59.2983V10.3892C0 7.97522 2.4178 6 5.39 6H58.577C61.5492 6 63.967 7.96812 63.967 10.3892V59.2983C63.967 61.7194 61.5492 63.6875 58.577 63.6875ZM5.39 7.988C3.60822 7.988 2.156 9.06436 2.156 10.3892V59.2983C2.156 60.6231 3.60668 61.6995 5.39 61.6995H58.577C60.3603 61.6995 61.811 60.6231 61.811 59.2983V10.3892C61.811 9.06436 60.3603 7.988 58.577 7.988H5.39Z" fill="#251AC7"/>
<path d="M62.1452 17.1086H1.67398C1.38807 17.1086 1.11388 17.0039 0.911716 16.8175C0.709552 16.6311 0.595978 16.3782 0.595978 16.1146C0.595978 15.851 0.709552 15.5982 0.911716 15.4117C1.11388 15.2253 1.38807 15.1206 1.67398 15.1206H62.1452C62.4311 15.1206 62.7053 15.2253 62.9074 15.4117C63.1096 15.5982 63.2232 15.851 63.2232 16.1146C63.2232 16.3782 63.1096 16.6311 62.9074 16.8175C62.7053 17.0039 62.4311 17.1086 62.1452 17.1086Z" fill="#251AC7"/>
<path d="M36.1577 44.0602H8.62861C8.34271 44.0602 8.06852 43.9554 7.86635 43.769C7.66419 43.5826 7.55061 43.3298 7.55061 43.0662V23.4886C7.55061 23.225 7.66419 22.9722 7.86635 22.7858C8.06852 22.5994 8.34271 22.4946 8.62861 22.4946H36.1577C36.4436 22.4946 36.7178 22.5994 36.9199 22.7858C37.1221 22.9722 37.2357 23.225 37.2357 23.4886V43.0662C37.2357 43.3298 37.1221 43.5826 36.9199 43.769C36.7178 43.9554 36.4436 44.0602 36.1577 44.0602ZM9.70661 42.0722H35.0797V24.4826H9.70661V42.0722Z" fill="#251AC7"/>
<path d="M55.5755 27.4192H42.0097C41.7238 27.4192 41.4496 27.3144 41.2474 27.128C41.0452 26.9416 40.9317 26.6888 40.9317 26.4252C40.9317 26.1615 41.0452 25.9087 41.2474 25.7223C41.4496 25.5359 41.7238 25.4312 42.0097 25.4312H55.5755C55.8614 25.4312 56.1356 25.5359 56.3378 25.7223C56.54 25.9087 56.6535 26.1615 56.6535 26.4252C56.6535 26.6888 56.54 26.9416 56.3378 27.128C56.1356 27.3144 55.8614 27.4192 55.5755 27.4192Z" fill="#251AC7"/>
<path d="M55.5755 34.0608H42.0097C41.7238 34.0608 41.4496 33.956 41.2474 33.7696C41.0452 33.5832 40.9317 33.3304 40.9317 33.0668C40.9317 32.8031 41.0452 32.5503 41.2474 32.3639C41.4496 32.1775 41.7238 32.0728 42.0097 32.0728H55.5755C55.8614 32.0728 56.1356 32.1775 56.3378 32.3639C56.54 32.5503 56.6535 32.8031 56.6535 33.0668C56.6535 33.3304 56.54 33.5832 56.3378 33.7696C56.1356 33.956 55.8614 34.0608 55.5755 34.0608Z" fill="#251AC7"/>
<path d="M55.5755 41.3664H42.0097C41.7238 41.3664 41.4496 41.2617 41.2474 41.0753C41.0452 40.8889 40.9317 40.636 40.9317 40.3724C40.9317 40.1088 41.0452 39.856 41.2474 39.6696C41.4496 39.4831 41.7238 39.3784 42.0097 39.3784H55.5755C55.8614 39.3784 56.1356 39.4831 56.3378 39.6696C56.54 39.856 56.6535 40.1088 56.6535 40.3724C56.6535 40.636 56.54 40.8889 56.3378 41.0753C56.1356 41.2617 55.8614 41.3664 55.5755 41.3664Z" fill="#251AC7"/>
<path d="M55.5755 50.4773H8.62861C8.34271 50.4773 8.06852 50.3725 7.86635 50.1861C7.66419 49.9997 7.55061 49.7469 7.55061 49.4833C7.55061 49.2196 7.66419 48.9668 7.86635 48.7804C8.06852 48.594 8.34271 48.4893 8.62861 48.4893H55.5755C55.8614 48.4893 56.1356 48.594 56.3378 48.7804C56.5399 48.9668 56.6535 49.2196 56.6535 49.4833C56.6535 49.7469 56.5399 49.9997 56.3378 50.1861C56.1356 50.3725 55.8614 50.4773 55.5755 50.4773Z" fill="#251AC7"/>
<path d="M55.5755 56.5691H8.62861C8.34271 56.5691 8.06852 56.4643 7.86635 56.2779C7.66419 56.0915 7.55061 55.8387 7.55061 55.5751C7.55061 55.3114 7.66419 55.0586 7.86635 54.8722C8.06852 54.6858 8.34271 54.5811 8.62861 54.5811H55.5755C55.8614 54.5811 56.1356 54.6858 56.3378 54.8722C56.5399 55.0586 56.6535 55.3114 56.6535 55.5751C56.6535 55.8387 56.5399 56.0915 56.3378 56.2779C56.1356 56.4643 55.8614 56.5691 55.5755 56.5691Z" fill="#251AC7"/>
</svg>
