<svg width="71" height="51" viewBox="0 0 71 51" fill="none" xmlns="http://www.w3.org/2000/svg">
<path d="M35.5002 43.1355C45.7199 43.1355 54.0046 35.2398 54.0046 25.4999C54.0046 15.76 45.7199 7.86426 35.5002 7.86426C25.2805 7.86426 16.9958 15.76 16.9958 25.4999C16.9958 35.2398 25.2805 43.1355 35.5002 43.1355Z" fill="white"/>
<path d="M35.5001 43.2202C31.8227 43.2202 28.228 42.1809 25.1703 40.2338C22.1127 38.2867 19.7296 35.5192 18.3223 32.2812C16.915 29.0433 16.5468 25.4803 17.2643 22.043C17.9817 18.6056 19.7525 15.4481 22.3528 12.9699C24.9531 10.4917 28.2661 8.80402 31.8728 8.12028C35.4795 7.43654 39.2179 7.78746 42.6154 9.12866C46.0128 10.4699 48.9167 12.7411 50.9597 15.6552C53.0028 18.5693 54.0932 21.9953 54.0932 25.5C54.0876 30.198 52.1269 34.7021 48.6412 38.0241C45.1556 41.3462 40.4296 43.2148 35.5001 43.2202ZM35.5001 7.94896C31.8579 7.94896 28.2974 8.97831 25.2689 10.9068C22.2405 12.8354 19.8801 15.5765 18.4863 18.7835C17.0925 21.9905 16.7278 25.5195 17.4383 28.924C18.1489 32.3286 19.9028 35.4559 22.4783 37.9105C25.0538 40.365 28.3351 42.0366 31.9074 42.7138C35.4797 43.391 39.1825 43.0434 42.5475 41.715C45.9125 40.3867 48.7886 38.1371 50.8122 35.2508C52.8357 32.3646 53.9157 28.9713 53.9157 25.5C53.9106 20.8467 51.9687 16.3854 48.5162 13.095C45.0637 9.80459 40.3827 7.95389 35.5001 7.94896Z" fill="#D1D3D4"/>
<path d="M50.7102 39.1924C50.7102 39.1924 48.7861 34.8635 48.2802 33.1718C47.9703 32.0172 47.8423 30.825 47.9003 29.6345L46.5336 22.9913C46.5336 22.9913 36.9202 18.2834 34.0802 16.6476C31.2402 15.0117 27.8056 12.4742 26.8027 13.0376C25.7998 13.6009 25.9738 14.8426 27.1577 16.0826C27.6441 16.5901 28.3026 17.1229 28.7055 17.6812C29.0339 18.1346 29.4457 19.564 29.0499 20.0715C28.5777 20.6788 27.3192 18.7909 26.6625 19.3949C26.3164 19.7095 26.24 20.8277 26.9376 21.797C27.3158 22.2489 27.7404 22.6637 28.205 23.0353C29.1635 23.8253 29.3676 24.436 30.1273 25.3884C30.9083 26.3679 30.3154 24.908 30.2533 26.0363C30.1788 27.4066 29.9782 29.0424 30.3846 30.3839C31.0361 32.5273 34.8541 35.1781 36.5102 36.5314C38.1663 37.8848 37.332 42.5115 37.332 42.5115L50.7102 39.1924Z" fill="white"/>
<path d="M37.3284 42.5858C37.3155 42.5855 37.3029 42.5825 37.2913 42.5771C37.2797 42.5718 37.2694 42.5641 37.2612 42.5547C37.253 42.5452 37.2469 42.5342 37.2435 42.5224C37.2401 42.5105 37.2394 42.4981 37.2414 42.486C37.2503 42.4403 38.0491 37.8931 36.4498 36.5854C36.1782 36.3638 35.841 36.1016 35.4824 35.8242C33.6382 34.3863 30.8479 32.2142 30.2959 30.3973C29.9409 29.2504 30.0403 27.8818 30.1184 26.6757C30.1343 26.4524 30.1485 26.2341 30.1592 26.0227C30.1618 25.8911 30.1845 25.7606 30.2266 25.6353C30.1769 25.5812 30.1184 25.5135 30.0491 25.4306C29.7918 25.1058 29.6018 24.8284 29.4172 24.5577C29.075 24.0072 28.6437 23.5116 28.1392 23.0893C28.0452 23.0098 27.202 22.3095 26.8577 21.8341C26.1264 20.8191 26.2134 19.6705 26.595 19.3237C26.9766 18.9769 27.5322 19.3524 28.015 19.6908C28.2012 19.8355 28.4036 19.9604 28.6185 20.0629C28.8333 20.1492 28.9202 20.0883 28.9735 20.0173C29.3285 19.5571 28.9557 18.1801 28.6185 17.7251C28.322 17.3479 27.9911 16.9963 27.6298 16.6745C27.4328 16.4885 27.2482 16.3125 27.0778 16.1349C26.3181 15.3398 25.9578 14.5413 26.0607 13.8901C26.0925 13.6955 26.1706 13.5105 26.2891 13.3492C26.4075 13.188 26.5632 13.0547 26.7441 12.9596C27.5446 12.5113 29.5681 13.7716 31.9111 15.2315C32.6442 15.6883 33.4003 16.1603 34.1139 16.5697C36.9184 18.1852 46.4714 22.8643 46.5673 22.91C46.5792 22.9158 46.5896 22.9242 46.5976 22.9345C46.6057 22.9447 46.611 22.9566 46.6134 22.9692L47.9802 29.6124C47.981 29.6197 47.981 29.6271 47.9802 29.6344C47.9238 30.8152 48.0506 31.9974 48.3565 33.1429C48.8517 34.8109 50.7598 39.1111 50.7794 39.1534C50.7846 39.1646 50.7874 39.1767 50.7874 39.1889C50.7874 39.2012 50.7846 39.2133 50.7794 39.2245C50.7732 39.2351 50.7648 39.2445 50.7547 39.2521C50.7447 39.2596 50.7331 39.2652 50.7208 39.2684L37.3515 42.5858H37.3284ZM30.3722 25.7689C30.3531 25.8553 30.3419 25.943 30.3385 26.0311C30.3278 26.2443 30.3118 26.4625 30.2976 26.6858C30.2178 27.8784 30.1201 29.2318 30.4663 30.35C30.9988 32.1161 33.766 34.2679 35.596 35.6922C35.951 35.9714 36.2918 36.2353 36.5652 36.4569C38.1041 37.7155 37.5627 41.6114 37.4385 42.3777L50.5877 39.1348C50.309 38.5038 48.6565 34.7365 48.1985 33.1937C47.7175 31.5764 47.8062 29.7985 47.8151 29.6412L46.459 23.0437C45.7916 22.7172 36.7533 18.2833 34.034 16.7168C33.324 16.3058 32.5608 15.8321 31.8259 15.3753C29.7243 14.066 27.5517 12.7127 26.8559 13.1068C26.6967 13.188 26.5597 13.3035 26.4558 13.4442C26.3519 13.585 26.2841 13.7469 26.2577 13.9171C26.1637 14.5092 26.5187 15.2705 27.2304 16.0232C27.3973 16.1924 27.5854 16.3717 27.7754 16.5561C28.145 16.8847 28.4831 17.2442 28.7853 17.6303C29.1137 18.0837 29.5646 19.5588 29.1279 20.1205C28.9983 20.2896 28.8084 20.3201 28.5599 20.2203C28.3325 20.1127 28.1182 19.9817 27.9209 19.8295C27.4754 19.5148 27.0157 19.19 26.7317 19.4472C26.4477 19.7043 26.3287 20.7836 27.0192 21.7394C27.3903 22.1849 27.8065 22.5946 28.2617 22.9625C28.7796 23.3952 29.2224 23.9033 29.5734 24.468C29.7509 24.7353 29.9444 25.0111 30.1982 25.3291C30.2568 25.4018 30.3047 25.4594 30.3456 25.4983C30.3604 25.4925 30.3759 25.4886 30.3917 25.4864C30.4424 25.487 30.4913 25.5041 30.5304 25.5349C30.5695 25.5656 30.5963 25.6083 30.6065 25.6556C30.6196 25.683 30.6216 25.7141 30.6121 25.7428C30.6026 25.7716 30.5823 25.7959 30.555 25.8112C30.5071 25.8383 30.4538 25.8383 30.3722 25.774V25.7689Z" fill="#231F20"/>
<path d="M28.8527 33.9028H41.2795C41.7804 33.9028 42.1865 33.5158 42.1865 33.0384V7.71414C42.1865 7.23672 41.7804 6.8497 41.2795 6.8497H28.8527C28.3518 6.8497 27.9457 7.23672 27.9457 7.71414L27.9457 33.0384C27.9457 33.5158 28.3518 33.9028 28.8527 33.9028Z" fill="white"/>
<path d="M41.2794 33.9872H28.8544C28.5902 33.9867 28.3369 33.8864 28.1502 33.7081C27.9635 33.5299 27.8586 33.2883 27.8586 33.0365V7.7139C27.8586 7.46205 27.9635 7.22048 28.1502 7.04224C28.3369 6.86399 28.5902 6.76363 28.8544 6.76318H41.2794C41.544 6.76318 41.7977 6.86335 41.9848 7.04164C42.1719 7.21994 42.277 7.46175 42.277 7.7139V33.0365C42.277 33.2886 42.1719 33.5304 41.9848 33.7087C41.7977 33.887 41.544 33.9872 41.2794 33.9872ZM28.8544 6.93235C28.6388 6.93502 28.4329 7.01854 28.2814 7.16482C28.1299 7.3111 28.045 7.50837 28.045 7.7139V33.0365C28.045 33.2434 28.1312 33.442 28.2846 33.5885C28.438 33.735 28.6461 33.8176 28.8633 33.818H41.2883C41.5058 33.818 41.7144 33.7357 41.8682 33.5891C42.0219 33.4425 42.1083 33.2437 42.1083 33.0365V7.7139C42.1083 7.50662 42.0219 7.30783 41.8682 7.16126C41.7144 7.01469 41.5058 6.93235 41.2883 6.93235H28.8544Z" fill="#231F20"/>
<path d="M28.6664 30.1167H41.4109V9.29567H28.6664L28.6664 30.1167Z" fill="#CC85FF"/>
<path d="M36.132 33.1614H33.7074C33.5359 33.161 33.3715 33.0957 33.2504 32.98C33.1293 32.8642 33.0613 32.7074 33.0613 32.544V31.6609C33.0613 31.4974 33.1293 31.3407 33.2504 31.2249C33.3715 31.1092 33.5359 31.0439 33.7074 31.0435H36.132C36.3035 31.0439 36.4679 31.1092 36.589 31.2249C36.7101 31.3407 36.7781 31.4974 36.7781 31.6609V32.544C36.7781 32.7074 36.7101 32.8642 36.589 32.98C36.4679 33.0957 36.3035 33.161 36.132 33.1614ZM33.7074 31.2126C33.5829 31.2131 33.4637 31.2605 33.3759 31.3445C33.2881 31.4285 33.2388 31.5423 33.2388 31.6609V32.544C33.2388 32.6626 33.2881 32.7763 33.3759 32.8604C33.4637 32.9444 33.5829 32.9918 33.7074 32.9923H36.132C36.2565 32.9918 36.3757 32.9444 36.4635 32.8604C36.5513 32.7763 36.6006 32.6626 36.6006 32.544V31.6609C36.6006 31.5423 36.5513 31.4285 36.4635 31.3445C36.3757 31.2605 36.2565 31.2131 36.132 31.2126H33.7074Z" fill="#D1D3D4"/>
<path d="M37.63 8.14719H34.0055C33.982 8.14719 33.9594 8.13828 33.9427 8.12242C33.9261 8.10656 33.9167 8.08504 33.9167 8.06261C33.9167 8.04018 33.9261 8.01866 33.9427 8.0028C33.9594 7.98694 33.982 7.97803 34.0055 7.97803H37.63C37.6536 7.97803 37.6762 7.98694 37.6928 8.0028C37.7094 8.01866 37.7188 8.04018 37.7188 8.06261C37.7188 8.08504 37.7094 8.10656 37.6928 8.12242C37.6762 8.13828 37.6536 8.14719 37.63 8.14719Z" fill="#D1D3D4"/>
<path d="M33.496 8.10471H33.015C32.9915 8.10471 32.9689 8.0958 32.9523 8.07994C32.9356 8.06408 32.9263 8.04256 32.9263 8.02013C32.9263 7.9977 32.9356 7.97618 32.9523 7.96032C32.9689 7.94446 32.9915 7.93555 33.015 7.93555H33.5014C33.5249 7.93555 33.5475 7.94446 33.5641 7.96032C33.5808 7.97618 33.5901 7.9977 33.5901 8.02013C33.5901 8.03168 33.5877 8.04311 33.5829 8.05372C33.5781 8.06432 33.5711 8.07388 33.5623 8.08181C33.5535 8.08973 33.543 8.09585 33.5316 8.09979C33.5203 8.10373 33.5081 8.10541 33.496 8.10471Z" fill="#D1D3D4"/>
<path d="M30.5159 20.5941C30.5254 20.8325 30.4592 21.0681 30.3259 21.2701C30.1925 21.472 29.9983 21.6308 29.7686 21.7258C29.2001 21.9666 28.5579 21.9974 27.967 21.812C27.6289 21.7082 27.3149 21.5434 27.0422 21.3265C26.5736 20.9493 26.3002 20.4435 26.3606 19.9732C26.46 19.2069 27.5072 18.7281 28.5829 18.8432C29.5875 18.9498 30.4573 19.9174 30.5159 20.5941Z" fill="white"/>
<path d="M28.7764 22.0101C28.4929 22.0099 28.211 21.9688 27.9404 21.8883C27.5908 21.7791 27.2666 21.6068 26.9855 21.3808C26.476 20.9714 26.2098 20.4385 26.2755 19.9547C26.3802 19.1664 27.4203 18.6267 28.5972 18.7519C29.632 18.8636 30.5497 19.8414 30.6082 20.5772C30.6203 20.8324 30.5507 21.085 30.4086 21.3016C30.2666 21.5182 30.0589 21.6886 29.813 21.7902C29.4898 21.9384 29.1351 22.0137 28.7764 22.0101ZM28.2635 18.9025C27.328 18.9025 26.5293 19.3559 26.4494 19.975C26.3926 20.3996 26.6376 20.8767 27.1008 21.2488C27.3615 21.4595 27.663 21.6193 27.9883 21.7191C28.5573 21.9 29.1767 21.8711 29.7243 21.6379C29.9382 21.5508 30.1194 21.404 30.2439 21.2167C30.3685 21.0295 30.4305 20.8106 30.4219 20.5891C30.3686 19.9902 29.5681 19.026 28.567 18.9194C28.4662 18.9081 28.3649 18.9025 28.2635 18.9025Z" fill="#231F20"/>
<path d="M30.3313 24.0062C30.4332 24.1437 30.5009 24.3016 30.5292 24.4678C30.5575 24.634 30.5457 24.8041 30.4946 24.9653C30.4139 25.1557 30.2867 25.3251 30.1237 25.4593C29.6977 25.8433 29.1137 26.1157 28.5262 26.0328C28.1698 25.9636 27.8347 25.8178 27.5464 25.6065C27.0334 25.2681 26.5399 24.8418 26.3695 24.2718C26.1228 23.4462 26.7512 22.2417 27.7682 22.3585C28.6096 22.4549 29.8858 23.3481 30.3313 24.0062Z" fill="white"/>
<path d="M28.7443 26.1327C28.6688 26.133 28.5934 26.1274 28.5189 26.1158C28.1521 26.0421 27.8078 25.8894 27.5125 25.6692C26.8344 25.226 26.4475 24.7861 26.3002 24.2888C26.2309 24.0135 26.2303 23.7265 26.2985 23.451C26.3666 23.1754 26.5015 22.9189 26.6924 22.702C26.8219 22.5459 26.9912 22.424 27.1842 22.3479C27.3771 22.2718 27.5873 22.244 27.7947 22.2673C28.6609 22.3705 29.9584 23.2823 30.4146 23.9589C30.5254 24.1067 30.599 24.2768 30.6298 24.456C30.6606 24.6352 30.6477 24.8188 30.5921 24.9925C30.5067 25.1949 30.3723 25.3752 30.1998 25.5186C29.815 25.8933 29.2941 26.1131 28.7443 26.1327ZM27.6367 22.4347C27.479 22.437 27.3238 22.4726 27.1823 22.539C27.0408 22.6054 26.9165 22.701 26.8185 22.8187C26.6462 23.014 26.5244 23.245 26.4627 23.4933C26.4011 23.7415 26.4013 24.0001 26.4635 24.2482C26.6001 24.7066 26.964 25.116 27.6066 25.5373C27.8836 25.7405 28.2052 25.8816 28.5473 25.95C29.0443 26.0194 29.5981 25.8181 30.0649 25.3968C30.2202 25.2728 30.342 25.115 30.4199 24.9367C30.467 24.7878 30.4776 24.6306 30.4508 24.4772C30.4241 24.3238 30.3607 24.1783 30.2655 24.052C29.8395 23.4227 28.5793 22.5379 27.7805 22.4415C27.7328 22.436 27.6848 22.4338 27.6367 22.4347Z" fill="#231F20"/>
<path d="M29.8291 26.6605C30.0265 26.7908 30.1919 26.9605 30.3137 27.1578C30.433 27.3874 30.4816 27.6446 30.4536 27.8994C30.4256 28.1543 30.3223 28.3963 30.1557 28.5974C29.9847 28.7946 29.7742 28.9574 29.5365 29.0762C29.2988 29.195 29.0386 29.2674 28.7712 29.2893C28.4559 29.3258 28.136 29.2983 27.8326 29.2088C27.5292 29.1194 27.249 28.9698 27.0104 28.77C26.7755 28.5661 26.6004 28.3074 26.5023 28.0193C26.4043 27.7313 26.3867 27.4239 26.4513 27.1274C26.84 25.5744 28.8138 25.9567 29.8291 26.6605Z" fill="white"/>
<path d="M28.5118 29.3909C27.937 29.3967 27.3805 29.1989 26.9498 28.8361C26.7028 28.6225 26.5187 28.351 26.4159 28.0486C26.3131 27.7461 26.2953 27.4233 26.3641 27.1123C26.4099 26.8786 26.518 26.6602 26.6781 26.478C26.8383 26.2957 27.0449 26.1559 27.2782 26.0719C28.0823 25.7894 29.1952 26.121 29.8804 26.5963C30.0892 26.7331 30.2637 26.9122 30.3916 27.1207C30.5178 27.365 30.5691 27.6383 30.5396 27.9091C30.51 28.18 30.4009 28.4373 30.2247 28.6517C30.0473 28.8589 29.8279 29.0299 29.5797 29.1546C29.3315 29.2792 29.0595 29.355 28.7799 29.3774C28.6911 29.3909 28.6006 29.3909 28.5118 29.3909ZM27.9456 26.1345C27.7396 26.1324 27.5348 26.1644 27.3403 26.2292C27.1338 26.303 26.951 26.4269 26.81 26.5886C26.669 26.7503 26.5747 26.9442 26.5363 27.1512C26.4744 27.4328 26.491 27.725 26.5844 27.9987C26.6778 28.2723 26.8448 28.5179 27.0688 28.7109C27.2975 28.9017 27.566 29.0443 27.8566 29.1294C28.1471 29.2145 28.4533 29.2402 28.755 29.2049C29.0108 29.1849 29.2598 29.1162 29.4872 29.0029C29.7147 28.8896 29.916 28.7339 30.0792 28.5451C30.2366 28.3565 30.3344 28.129 30.3611 27.8894C30.3878 27.6497 30.3424 27.4077 30.23 27.1918C30.1156 27.0053 29.9592 26.8452 29.7721 26.7232C29.238 26.3581 28.6025 26.1521 27.9456 26.1311V26.1345Z" fill="#231F20"/>
<path d="M49.7657 35.5166L48.4557 32.8726L35.9065 37.0155L36.7212 39.8997L49.7657 35.5166Z" fill="#CC85FF"/>
<path d="M35.7966 38.7798L49.6416 34.4932L53.5892 41.4476L38.1876 45.9051L35.7966 38.7798Z" fill="#231F20"/>
<path d="M38.1874 45.988C38.1686 45.9882 38.1503 45.9827 38.135 45.9724C38.1197 45.9621 38.1082 45.9474 38.1022 45.9304L35.713 38.8051C35.7095 38.7947 35.7081 38.7837 35.709 38.7727C35.7099 38.7618 35.7131 38.7511 35.7184 38.7414C35.7237 38.7316 35.731 38.723 35.7398 38.7159C35.7486 38.7088 35.7588 38.7035 35.7698 38.7003L49.6148 34.4136C49.6343 34.4068 49.6556 34.4071 49.6749 34.4142C49.6942 34.4214 49.71 34.435 49.7196 34.4525L53.6672 41.4019C53.6735 41.4128 53.6772 41.4251 53.6779 41.4376C53.6786 41.4501 53.6763 41.4627 53.6712 41.4742C53.6661 41.4858 53.6582 41.4961 53.6483 41.5044C53.6384 41.5127 53.6266 41.5187 53.6139 41.522L38.2122 45.9795C38.2048 45.9841 38.1963 45.987 38.1874 45.988ZM35.9083 38.8339L38.2442 45.8002L53.4595 41.4019L49.5989 34.5997L35.9083 38.8339Z" fill="#231F20"/>
<path d="M47.9039 30.0372C47.9039 30.0372 47.8151 22.7833 46.9276 21.3437C46.0401 19.9041 43.2392 13.8564 42.4901 13.8141C41.7411 13.7718 40.9672 15.9574 41.6328 17.9045C42.0189 19.0519 42.5877 20.1359 43.3191 21.1187C43.3191 21.1187 41.379 22.7275 42.8434 28.063" fill="white"/>
<path d="M47.9038 30.1216C47.8805 30.1216 47.8582 30.1129 47.8416 30.0974C47.825 30.082 47.8155 30.0609 47.815 30.0387C47.815 29.966 47.7174 22.7899 46.8512 21.3875C46.5761 20.9426 46.1252 20.068 45.6087 19.0564C44.6165 17.1381 42.9568 13.9256 42.4865 13.8985C42.3969 13.9071 42.3108 13.9358 42.2352 13.9822C42.1596 14.0287 42.0967 14.0916 42.0516 14.1658C41.5067 14.8425 41.2191 16.4546 41.7108 17.8875C42.095 19.0257 42.6588 20.1015 43.3828 21.078C43.3965 21.0951 43.4028 21.1165 43.4005 21.1378C43.3982 21.1592 43.3874 21.1789 43.3704 21.193C43.3509 21.2082 41.4925 22.8424 42.9213 28.051C42.9273 28.0726 42.9242 28.0955 42.9125 28.1148C42.9009 28.1341 42.8817 28.1483 42.8592 28.1542C42.848 28.1573 42.8363 28.1582 42.8247 28.1568C42.8132 28.1555 42.802 28.152 42.7919 28.1464C42.7818 28.1409 42.773 28.1335 42.766 28.1247C42.7589 28.1158 42.7538 28.1058 42.7509 28.095C41.4161 23.2348 42.8699 21.4451 43.1947 21.1203C42.4843 20.1422 41.927 19.0709 41.5404 17.9399C41.0327 16.4546 41.338 14.7714 41.9114 14.0643C41.9722 13.9694 42.0567 13.8903 42.1574 13.8339C42.258 13.7776 42.3716 13.7457 42.4882 13.7412C43.0207 13.77 44.1816 15.9404 45.7613 18.9854C46.2832 20.0004 46.7323 20.8648 47.0038 21.3047C47.8913 22.746 47.989 29.7427 47.9925 30.0387C47.9927 30.0498 47.9907 30.0609 47.9864 30.0712C47.9822 30.0816 47.9759 30.091 47.9678 30.099C47.9597 30.107 47.95 30.1135 47.9394 30.1179C47.9287 30.1224 47.9172 30.1248 47.9055 30.125L47.9038 30.1216Z" fill="#231F20"/>
<path d="M48.8357 39.7001C49.3503 39.7001 49.7676 39.3025 49.7676 38.812C49.7676 38.3215 49.3503 37.9238 48.8357 37.9238C48.321 37.9238 47.9038 38.3215 47.9038 38.812C47.9038 39.3025 48.321 39.7001 48.8357 39.7001Z" fill="white"/>
<path d="M37.552 8.70508H21.0978C20.6844 8.70508 20.288 8.86156 19.9958 9.14011C19.7035 9.41865 19.5393 9.79644 19.5393 10.1904V18.0786C19.5393 18.4727 19.7034 18.8506 19.9957 19.1295C20.2879 19.4083 20.6843 19.5651 21.0978 19.5656H35.051L37.3461 22.3484V19.5656H37.552C37.9655 19.5651 38.3619 19.4083 38.6541 19.1295C38.9463 18.8506 39.1105 18.4727 39.1105 18.0786V10.1904C39.1105 9.79644 38.9463 9.41865 38.654 9.14011C38.3617 8.86156 37.9653 8.70508 37.552 8.70508Z" fill="white"/>
<path d="M37.3462 22.4348C37.3327 22.4349 37.3193 22.4319 37.3072 22.426C37.2952 22.4201 37.2848 22.4115 37.277 22.4009L35.0068 19.6503H21.0979C20.661 19.6494 20.2423 19.4835 19.9335 19.1889C19.6248 18.8943 19.4512 18.4951 19.4507 18.0787V10.1905C19.4512 9.77425 19.6248 9.37521 19.9337 9.0809C20.2425 8.78659 20.6612 8.62105 21.0979 8.62061H37.5521C37.9889 8.62105 38.4076 8.78659 38.7164 9.0809C39.0252 9.37521 39.1989 9.77425 39.1993 10.1905V18.0787C39.1989 18.4951 39.0252 18.8943 38.7165 19.1889C38.4077 19.4835 37.989 19.6494 37.5521 19.6503H37.435V22.3569C37.4351 22.3746 37.4293 22.3918 37.4185 22.4061C37.4076 22.4204 37.3923 22.431 37.3746 22.4364C37.3651 22.4377 37.3555 22.4371 37.3462 22.4348ZM21.0979 8.78977C20.7084 8.79067 20.3351 8.93853 20.0597 9.20101C19.7843 9.4635 19.6291 9.81926 19.6282 10.1905V18.0787C19.6287 18.4502 19.7836 18.8064 20.0591 19.0693C20.3345 19.3321 20.7081 19.4802 21.0979 19.4811H35.0512C35.0645 19.481 35.0777 19.4839 35.0897 19.4895C35.1017 19.4951 35.1122 19.5032 35.1204 19.5132L37.2504 22.1049V19.5674C37.2504 19.5449 37.2597 19.5234 37.2764 19.5076C37.293 19.4917 37.3156 19.4828 37.3391 19.4828H37.545C37.935 19.4823 38.3088 19.3344 38.5844 19.0714C38.8599 18.8085 39.0147 18.452 39.0147 18.0804V10.1905C39.0143 9.81912 38.8593 9.46311 38.5837 9.20052C38.3082 8.93794 37.9347 8.79022 37.545 8.78977H21.0979Z" fill="#231F20"/>
<path d="M31.0928 11.4219H27.557C27.2002 11.4219 26.9109 11.6976 26.9109 12.0376V13.7411C26.9109 14.0812 27.2002 14.3569 27.557 14.3569H31.0928C31.4496 14.3569 31.7389 14.0812 31.7389 13.7411V12.0376C31.7389 11.6976 31.4496 11.4219 31.0928 11.4219Z" fill="#CC85FF"/>
<path d="M30.53 12.1225H28.1196C28.0254 12.1225 27.9351 12.0868 27.8685 12.0234C27.802 11.9599 27.7646 11.8739 27.7646 11.7841V10.8723C27.7575 10.6727 27.7926 10.4738 27.8679 10.2874C27.9432 10.101 28.0571 9.93099 28.2027 9.78741C28.3484 9.64383 28.5229 9.52964 28.7158 9.45166C28.9087 9.37368 29.1161 9.3335 29.3257 9.3335C29.5352 9.3335 29.7426 9.37368 29.9356 9.45166C30.1285 9.52964 30.303 9.64383 30.4486 9.78741C30.5943 9.93099 30.7081 10.101 30.7834 10.2874C30.8587 10.4738 30.8938 10.6727 30.8868 10.8723V11.7841C30.8868 11.8287 30.8775 11.8729 30.8596 11.914C30.8416 11.9552 30.8153 11.9925 30.7822 12.024C30.749 12.0554 30.7097 12.0803 30.6664 12.0972C30.6231 12.1141 30.5768 12.1227 30.53 12.1225ZM28.4728 11.4458H30.175V10.8723C30.1803 10.7627 30.1621 10.6532 30.1217 10.5504C30.0813 10.4476 30.0195 10.3537 29.9399 10.2744C29.8604 10.195 29.7648 10.1318 29.6589 10.0887C29.553 10.0455 29.4391 10.0233 29.3239 10.0233C29.2087 10.0233 29.0948 10.0455 28.9889 10.0887C28.883 10.1318 28.7874 10.195 28.7079 10.2744C28.6283 10.3537 28.5665 10.4476 28.5261 10.5504C28.4857 10.6532 28.4675 10.7627 28.4728 10.8723V11.4458Z" fill="#CC85FF"/>
<path d="M29.3248 12.8719C29.5797 12.8719 29.7863 12.6749 29.7863 12.432C29.7863 12.1891 29.5797 11.9922 29.3248 11.9922C29.0699 11.9922 28.8633 12.1891 28.8633 12.432C28.8633 12.6749 29.0699 12.8719 29.3248 12.8719Z" fill="#231F20"/>
<path d="M29.4545 12.5166H29.1953V13.5434H29.4545V12.5166Z" fill="#231F20"/>
<path d="M36.8065 17.7892H21.7741C21.6234 17.7892 21.4789 17.7322 21.3724 17.6307C21.2659 17.5292 21.2061 17.3915 21.2061 17.2479V15.7254C21.2061 15.5818 21.2659 15.4442 21.3724 15.3426C21.4789 15.2411 21.6234 15.1841 21.7741 15.1841H36.8065C36.9573 15.1841 37.102 15.2411 37.2088 15.3425C37.3156 15.444 37.3758 15.5817 37.3763 15.7254V17.2479C37.3758 17.3916 37.3156 17.5293 37.2088 17.6308C37.102 17.7323 36.9573 17.7892 36.8065 17.7892ZM21.7741 15.3499C21.6705 15.3499 21.5712 15.3891 21.4979 15.4589C21.4247 15.5287 21.3836 15.6233 21.3836 15.722V17.2445C21.3833 17.2935 21.3933 17.342 21.4128 17.3872C21.4323 17.4325 21.4611 17.4736 21.4974 17.5082C21.5337 17.5428 21.5769 17.5702 21.6243 17.5888C21.6718 17.6074 21.7227 17.6169 21.7741 17.6167H36.8065C36.858 17.6169 36.9089 17.6075 36.9565 17.5889C37.0041 17.5703 37.0474 17.5429 37.0838 17.5083C37.1203 17.4737 37.1492 17.4326 37.1689 17.3873C37.1886 17.3421 37.1988 17.2935 37.1988 17.2445V15.722C37.1983 15.6232 37.1568 15.5285 37.0833 15.4588C37.0098 15.389 36.9103 15.3499 36.8065 15.3499H21.7741Z" fill="#D1D3D4"/>
<path d="M22.8177 16.5599L23.0182 16.8119L22.7946 16.9608L22.594 16.7036L22.397 16.9523L22.1875 16.8035L22.3899 16.5565L22.0686 16.455L22.1556 16.2181L22.4715 16.323V16.0151H22.7431V16.323L23.0591 16.2283L23.1425 16.4651L22.8177 16.5599Z" fill="black"/>
<path d="M24.2787 16.5599L24.4793 16.8119L24.2556 16.9608L24.055 16.7036L23.858 16.9523L23.6397 16.8035L23.842 16.5565L23.5208 16.455L23.6077 16.2181L23.9237 16.323V16.0151H24.1953V16.323L24.5112 16.2283L24.5946 16.4651L24.2787 16.5599Z" fill="black"/>
<path d="M25.7376 16.5599L25.9382 16.8119L25.7145 16.9608L25.5157 16.7036L25.3187 16.9523L25.1004 16.8035L25.3027 16.5565L24.9814 16.455L25.0684 16.2181L25.3844 16.323V16.0151H25.6559V16.323L25.9719 16.2283L26.0553 16.4651L25.7376 16.5599Z" fill="black"/>
<path d="M27.2002 16.5599L27.4007 16.8119L27.1771 16.9608L26.9801 16.7036L26.783 16.9523L26.5665 16.8035L26.7671 16.5565L26.4458 16.455L26.5328 16.2181L26.8487 16.323V16.0151H27.1221V16.323L27.4363 16.2283L27.5215 16.4651L27.2002 16.5599Z" fill="black"/>
<path d="M28.6611 16.5599L28.8616 16.8119L28.638 16.9608L28.4374 16.7036L28.2404 16.9523L28.0238 16.8035L28.2226 16.5565L27.9014 16.455L27.9883 16.2181L28.3043 16.323V16.0151H28.5776V16.323L28.8918 16.2283L28.977 16.4651L28.6611 16.5599Z" fill="black"/>
</svg>
