<svg width="89" height="68" viewBox="0 0 89 68" fill="none" xmlns="http://www.w3.org/2000/svg">
<path d="M62.8763 15.3672H26.0903C24.7485 15.3672 23.6606 16.4699 23.6606 17.8303V41.6737C23.6606 43.034 24.7485 44.1368 26.0903 44.1368H62.8763C64.2182 44.1368 65.306 43.034 65.306 41.6737V17.8303C65.306 16.4699 64.2182 15.3672 62.8763 15.3672Z" fill="#CC85FF"/>
<path d="M62.8786 44.3599H26.0904C25.3868 44.3593 24.7122 44.0755 24.2149 43.5709C23.7176 43.0664 23.4382 42.3823 23.4382 41.669V17.8278C23.4394 17.1151 23.7192 16.4319 24.2163 15.928C24.7135 15.424 25.3874 15.1404 26.0904 15.1392H62.8786C63.5814 15.1404 64.2551 15.4241 64.7519 15.9281C65.2487 16.4321 65.528 17.1153 65.5286 17.8278V41.669C65.5289 42.0221 65.4605 42.3718 65.3275 42.6981C65.1945 43.0244 64.9994 43.3209 64.7533 43.5708C64.5072 43.8207 64.215 44.019 63.8934 44.1544C63.5717 44.2898 63.2269 44.3596 62.8786 44.3599ZM26.0904 15.5903C25.5052 15.5909 24.9442 15.8268 24.5304 16.2463C24.1166 16.6658 23.8838 17.2345 23.8832 17.8278V41.669C23.8844 42.2619 24.1174 42.8301 24.5311 43.249C24.9449 43.668 25.5056 43.9037 26.0904 43.9043H62.8786C63.463 43.9031 64.0232 43.6672 64.4364 43.2483C64.8497 42.8293 65.0824 42.2615 65.0836 41.669V17.8278C65.083 17.2349 64.8505 16.6665 64.4372 16.2471C64.0239 15.8277 63.4634 15.5915 62.8786 15.5903H26.0904Z" fill="#093F68"/>
<path d="M51.1393 50.3213H37.8293L39.2177 44.1343H49.7487L51.1393 50.3213Z" fill="#CC85FF"/>
<path d="M51.1395 50.5469H37.8251C37.7917 50.5467 37.7587 50.5389 37.7287 50.5241C37.6986 50.5092 37.6723 50.4877 37.6515 50.4611C37.631 50.4348 37.6166 50.404 37.6092 50.3713C37.6019 50.3385 37.6019 50.3045 37.6093 50.2717L38.9977 44.0847C39.009 44.0338 39.0373 43.9885 39.0779 43.9564C39.1184 43.9243 39.1687 43.9075 39.2202 43.9088H49.7511C49.8025 43.9075 49.8528 43.9243 49.8934 43.9564C49.9339 43.9885 49.9623 44.0338 49.9736 44.0847L51.362 50.2717C51.3693 50.3045 51.3693 50.3385 51.362 50.3713C51.3547 50.404 51.3402 50.4348 51.3197 50.4611C51.2983 50.4886 51.2709 50.5107 51.2396 50.5256C51.2083 50.5405 51.174 50.5477 51.1395 50.5469ZM38.1077 50.0957H50.8591L49.5731 44.3599H39.3959L38.1077 50.0957Z" fill="#093F68"/>
<path d="M62.4691 17.7622H26.4998V39.1133H62.4691V17.7622Z" fill="white"/>
<path d="M62.4692 39.3414H26.4998C26.4408 39.3414 26.3842 39.3176 26.3425 39.2753C26.3008 39.233 26.2773 39.1756 26.2773 39.1158V17.7602C26.2773 17.7004 26.3008 17.643 26.3425 17.6007C26.3842 17.5584 26.4408 17.5347 26.4998 17.5347H62.4692C62.5282 17.5347 62.5848 17.5584 62.6265 17.6007C62.6682 17.643 62.6917 17.7004 62.6917 17.7602V39.1136C62.692 39.1434 62.6864 39.1729 62.6754 39.2006C62.6643 39.2282 62.648 39.2533 62.6273 39.2745C62.6066 39.2957 62.582 39.3125 62.5549 39.324C62.5277 39.3355 62.4986 39.3414 62.4692 39.3414ZM26.7223 38.8903H62.2467V17.9858H26.7223V38.8903Z" fill="#093F68"/>
<path d="M52.7726 50.3213H36.1986C35.5682 50.3213 35.0571 50.8393 35.0571 51.4784C35.0571 52.1174 35.5682 52.6355 36.1986 52.6355H52.7726C53.403 52.6355 53.914 52.1174 53.914 51.4784C53.914 50.8393 53.403 50.3213 52.7726 50.3213Z" fill="#CC85FF"/>
<path d="M52.7702 52.861H36.1962C35.8345 52.861 35.4875 52.7153 35.2318 52.456C34.976 52.1967 34.8323 51.8451 34.8323 51.4784C34.8323 51.1117 34.976 50.76 35.2318 50.5007C35.4875 50.2414 35.8345 50.0957 36.1962 50.0957H52.7702C53.132 50.0957 53.4789 50.2414 53.7347 50.5007C53.9904 50.76 54.1341 51.1117 54.1341 51.4784C54.1341 51.8451 53.9904 52.1967 53.7347 52.456C53.4789 52.7153 53.132 52.861 52.7702 52.861ZM36.1962 50.5468C35.9525 50.5468 35.7188 50.645 35.5464 50.8197C35.3741 50.9944 35.2773 51.2313 35.2773 51.4784C35.2773 51.7254 35.3741 51.9624 35.5464 52.1371C35.7188 52.3118 35.9525 52.4099 36.1962 52.4099H52.7702C53.0139 52.4099 53.2477 52.3118 53.42 52.1371C53.5923 51.9624 53.6891 51.7254 53.6891 51.4784C53.6891 51.2313 53.5923 50.9944 53.42 50.8197C53.2477 50.645 53.0139 50.5468 52.7702 50.5468H36.1962Z" fill="#093F68"/>
<path d="M52.3386 24.5269C52.3386 31.2282 45.9907 36.6618 44.4844 36.6618C42.978 36.6618 36.6301 31.2282 36.6301 24.5269C36.6301 24.5269 40.1456 21.9263 44.4844 21.9263C48.8231 21.9263 52.3386 24.5269 52.3386 24.5269Z" fill="#70CC40"/>
<path d="M44.4845 36.8761C42.9003 36.8761 36.4077 31.3229 36.4077 24.5157C36.4076 24.4801 36.4158 24.445 36.4317 24.4132C36.4476 24.3815 36.4706 24.354 36.4989 24.333C36.6458 24.227 40.1235 21.6895 44.4845 21.6895C48.8455 21.6895 52.3231 24.227 52.47 24.333C52.4983 24.354 52.5214 24.3815 52.5372 24.4132C52.5531 24.445 52.5613 24.4801 52.5612 24.5157C52.5612 31.3229 46.0575 36.8761 44.4845 36.8761ZM36.8527 24.633C36.9284 30.9959 43.0449 36.425 44.4845 36.425C45.924 36.425 52.0495 30.9959 52.114 24.633C51.5355 24.2337 48.3137 22.1518 44.4845 22.1518C40.6552 22.1518 37.4312 24.2337 36.8527 24.633Z" fill="#093F68"/>
<path d="M43.0894 31.9992L40.7732 29.6489C40.7027 29.5774 40.6631 29.4805 40.6631 29.3794C40.6631 29.2783 40.7027 29.1813 40.7732 29.1098L41.503 28.3745C41.5735 28.303 41.6692 28.2629 41.7689 28.2629C41.8686 28.2629 41.9643 28.303 42.0348 28.3745L43.1985 29.5564C43.2208 29.5791 43.2473 29.5972 43.2765 29.6095C43.3057 29.6218 43.3371 29.6281 43.3687 29.6281C43.4003 29.6281 43.4316 29.6218 43.4608 29.6095C43.49 29.5972 43.5166 29.5791 43.5389 29.5564L47.3481 25.7039C47.3987 25.6525 47.4589 25.6116 47.5251 25.5837C47.5914 25.5559 47.6624 25.5415 47.7341 25.5415C47.8059 25.5415 47.8769 25.5559 47.9431 25.5837C48.0094 25.6116 48.0695 25.6525 48.1202 25.7039L48.6052 26.1957C48.6563 26.247 48.6969 26.3082 48.7246 26.3755C48.7523 26.4429 48.7666 26.5151 48.7666 26.5881C48.7666 26.6611 48.7523 26.7334 48.7246 26.8007C48.6969 26.8681 48.6563 26.9292 48.6052 26.9806L43.659 31.9969C43.583 32.0722 43.481 32.1145 43.3747 32.115C43.2684 32.1154 43.1661 32.0739 43.0894 31.9992Z" fill="white"/>
<path d="M42.978 39.6681C42.9359 39.6675 42.894 39.6614 42.8534 39.6501L39.5359 38.6599C39.4226 38.6261 39.3272 38.548 39.2707 38.4429C39.2141 38.3378 39.2011 38.2142 39.2344 38.0994C39.2678 37.9845 39.3447 37.8878 39.4484 37.8305C39.5521 37.7732 39.674 37.76 39.7873 37.7938L43.1048 38.7839C43.2078 38.8144 43.2965 38.8816 43.3546 38.9731C43.4126 39.0646 43.436 39.1743 43.4206 39.2819C43.4052 39.3896 43.3519 39.488 43.2705 39.5589C43.1892 39.6299 43.0853 39.6687 42.978 39.6681Z" fill="#093F68"/>
<path d="M39.2713 39.9257C39.0858 39.9259 38.9012 39.8978 38.724 39.8422L36.6102 39.1655C36.146 39.0185 35.7582 38.691 35.5317 38.2547C35.3053 37.8184 35.2586 37.3089 35.402 36.8378L35.4554 36.6641C35.5999 36.1932 35.9229 35.7997 36.3535 35.57C36.784 35.3403 37.2869 35.2934 37.7516 35.4394L39.8654 36.1048C40.0956 36.177 40.3095 36.2946 40.4948 36.4507C40.6801 36.6069 40.8333 36.7985 40.9455 37.0147C41.0577 37.2309 41.1268 37.4674 41.1488 37.7107C41.1707 37.9539 41.1452 38.1992 41.0736 38.4325L41.0202 38.6062C40.9038 38.9844 40.6714 39.3152 40.3569 39.5504C40.0424 39.7857 39.6622 39.9132 39.2713 39.9144V39.9257ZM37.2087 36.2694C37.0065 36.2691 36.8095 36.3348 36.6469 36.4566C36.4842 36.5784 36.3645 36.75 36.3054 36.9461L36.252 37.122C36.1782 37.3643 36.202 37.6263 36.3184 37.8508C36.4347 38.0753 36.6341 38.2439 36.8728 38.3197L38.9887 38.9964C39.228 39.0711 39.4868 39.0466 39.7083 38.9282C39.9298 38.8098 40.0959 38.6072 40.1702 38.3648L40.2236 38.1911C40.2973 37.9486 40.2732 37.6862 40.1564 37.4617C40.0396 37.2372 39.8397 37.0688 39.6006 36.9934L37.4869 36.3281C37.3976 36.2943 37.3038 36.2745 37.2087 36.2694Z" fill="#093F68"/>
<path d="M36.6301 37.3834C36.5614 37.3834 36.4936 37.3671 36.4321 37.3361L33.3393 35.7707C33.2852 35.7455 33.2366 35.7095 33.1964 35.6649C33.1562 35.6203 33.1253 35.5679 33.1055 35.511C33.0856 35.454 33.0773 35.3936 33.0809 35.3333C33.0845 35.273 33.1001 35.214 33.1266 35.1599C33.1531 35.1058 33.1901 35.0577 33.2354 35.0184C33.2806 34.979 33.3332 34.9493 33.3899 34.931C33.4467 34.9126 33.5065 34.906 33.5659 34.9116C33.6252 34.9171 33.6829 34.9347 33.7354 34.9632L36.8281 36.5286C36.9179 36.5739 36.9899 36.6486 37.0325 36.7406C37.0751 36.8326 37.0858 36.9365 37.0629 37.0355C37.0399 37.1344 36.9847 37.2226 36.9062 37.2857C36.8276 37.3489 36.7304 37.3833 36.6301 37.3834Z" fill="#093F68"/>
<path d="M32.93 37.334C32.6329 37.3346 32.3403 37.261 32.0779 37.1198L30.1199 36.0732C29.6895 35.843 29.367 35.449 29.223 34.9779C29.0791 34.5067 29.1256 33.9969 29.3522 33.5605L29.4368 33.4003C29.6643 32.9646 30.0529 32.6379 30.5175 32.4921C30.9821 32.3462 31.4848 32.393 31.9154 32.6222L33.8734 33.6688C34.3038 33.8989 34.6263 34.2929 34.7703 34.764C34.9142 35.2352 34.8677 35.745 34.6411 36.1814L34.5565 36.3438C34.3997 36.6431 34.1654 36.8934 33.8789 37.0678C33.5923 37.2423 33.2643 37.3343 32.93 37.334ZM32.485 36.3213C32.7064 36.4392 32.9649 36.4633 33.2038 36.3885C33.4427 36.3137 33.6427 36.146 33.76 35.9221L33.8445 35.7597C33.9023 35.6484 33.9379 35.5268 33.9493 35.4016C33.9606 35.2765 33.9476 35.1502 33.9108 35.0302C33.874 34.9102 33.8142 34.7987 33.7349 34.7021C33.6556 34.6055 33.5582 34.5257 33.4485 34.4672L31.4905 33.4206C31.2691 33.3028 31.0106 33.2786 30.7717 33.3534C30.5328 33.4282 30.3328 33.596 30.2155 33.8199L30.131 33.9823C30.0147 34.2067 29.9909 34.4687 30.0647 34.7109C30.1385 34.9531 30.3039 35.1558 30.5248 35.2747L32.485 36.3213Z" fill="#093F68"/>
<path d="M30.9609 34.8819C30.8922 34.8818 30.8244 34.8656 30.7629 34.8345L27.6701 33.2736C27.616 33.2484 27.5674 33.2124 27.5272 33.1678C27.487 33.1232 27.4561 33.0709 27.4363 33.0139C27.4164 32.9569 27.4081 32.8965 27.4117 32.8362C27.4153 32.7759 27.4309 32.717 27.4574 32.6629C27.484 32.6088 27.5209 32.5606 27.5662 32.5213C27.6114 32.482 27.664 32.4523 27.7207 32.4339C27.7775 32.4156 27.8374 32.409 27.8967 32.4145C27.956 32.42 28.0137 32.4376 28.0662 32.4662L31.1589 34.027C31.2645 34.0803 31.3449 34.1739 31.3825 34.2872C31.42 34.4006 31.4117 34.5244 31.3592 34.6315C31.3224 34.7066 31.2656 34.7699 31.1952 34.8141C31.1248 34.8584 31.0437 34.8818 30.9609 34.8819Z" fill="#093F68"/>
<path d="M27.6279 34.6386C27.2397 34.6388 26.8615 34.5131 26.5488 34.28L24.7688 32.9582C24.3764 32.6669 24.114 32.2297 24.0394 31.7425C23.9647 31.2554 24.0838 30.758 24.3705 30.3598L24.4773 30.2109C24.6192 30.0138 24.798 29.847 25.0035 29.72C25.2091 29.593 25.4373 29.5083 25.6752 29.4708C25.9131 29.4333 26.1559 29.4437 26.3898 29.5014C26.6237 29.5591 26.844 29.6631 27.0383 29.8072L28.8183 31.129C29.2105 31.4203 29.4729 31.8573 29.548 32.3443C29.623 32.8313 29.5047 33.3286 29.2188 33.7274L29.112 33.8762C28.9414 34.1129 28.7181 34.3054 28.4601 34.4379C28.2022 34.5704 27.917 34.6392 27.6279 34.6386ZM27.0739 33.5492C27.2761 33.6986 27.5286 33.7607 27.7759 33.7218C28.0232 33.6829 28.2452 33.5462 28.3933 33.3417L28.5001 33.1928C28.6473 32.9875 28.7082 32.7314 28.6694 32.4807C28.6306 32.2299 28.4953 32.005 28.2932 31.8552L26.5132 30.5335C26.3113 30.3842 26.0592 30.3221 25.8122 30.361C25.5653 30.3999 25.3436 30.5366 25.196 30.741L25.0892 30.8899C24.9417 31.0949 24.8805 31.3508 24.9189 31.6015C24.9572 31.8522 25.0921 32.0773 25.2939 32.2274L27.0739 33.5492Z" fill="#093F68"/>
<path d="M25.9746 31.8822C25.8665 31.8821 25.7621 31.842 25.6809 31.7695L22.9175 29.3289C22.8687 29.2915 22.8281 29.2444 22.7981 29.1904C22.7681 29.1363 22.7495 29.0766 22.7433 29.015C22.7371 28.9533 22.7435 28.891 22.762 28.832C22.7806 28.7729 22.811 28.7184 22.8513 28.6718C22.8917 28.6252 22.941 28.5875 22.9963 28.5611C23.0516 28.5347 23.1117 28.5201 23.1728 28.5183C23.2339 28.5164 23.2948 28.5274 23.3515 28.5504C23.4083 28.5735 23.4597 28.6082 23.5027 28.6523L26.2594 31.0928C26.3482 31.1715 26.4025 31.2827 26.4104 31.402C26.4183 31.5212 26.3792 31.6388 26.3017 31.7289C26.2608 31.7761 26.2105 31.8142 26.1542 31.8406C26.0979 31.867 26.0367 31.8812 25.9746 31.8822Z" fill="#093F68"/>
<path d="M45.9885 39.6681C45.8813 39.6681 45.7778 39.6289 45.6969 39.5578C45.616 39.4867 45.5631 39.3883 45.5479 39.2808C45.5328 39.1733 45.5564 39.0639 45.6144 38.9726C45.6725 38.8813 45.761 38.8143 45.8639 38.7839L49.1791 37.7938C49.2352 37.777 49.294 37.7716 49.3522 37.7779C49.4103 37.7843 49.4667 37.8021 49.518 37.8305C49.5693 37.8589 49.6147 37.8972 49.6514 37.9434C49.6881 37.9895 49.7155 38.0425 49.732 38.0994C49.7485 38.1563 49.7538 38.2159 49.7476 38.2748C49.7414 38.3338 49.7238 38.3909 49.6958 38.4429C49.6678 38.495 49.63 38.5409 49.5844 38.5782C49.5389 38.6154 49.4866 38.6431 49.4305 38.6599L46.1153 39.6501C46.0739 39.6616 46.0313 39.6677 45.9885 39.6681Z" fill="#093F68"/>
<path d="M49.6976 39.9253C49.3066 39.9248 48.9259 39.7976 48.6113 39.5622C48.2967 39.3268 48.0645 38.9957 47.9487 38.6171L47.8953 38.4434C47.8237 38.2101 47.7982 37.9649 47.8201 37.7216C47.8421 37.4783 47.9112 37.2418 48.0234 37.0256C48.1356 36.8094 48.2888 36.6178 48.4741 36.4616C48.6594 36.3055 48.8733 36.1879 49.1035 36.1157L51.2173 35.4503C51.4473 35.3774 51.6894 35.3512 51.9294 35.3734C52.1695 35.3955 52.4029 35.4655 52.6163 35.5792C52.8296 35.693 53.0187 35.8484 53.1726 36.0365C53.3266 36.2245 53.4424 36.4415 53.5135 36.675L53.5669 36.8487C53.6396 37.0827 53.6659 37.3289 53.6445 37.5733C53.6231 37.8176 53.5543 38.0553 53.442 38.2726C53.3298 38.4899 53.1763 38.6827 52.9904 38.8397C52.8045 38.9967 52.5898 39.115 52.3587 39.1877L50.2449 39.8644C50.0665 39.9122 49.882 39.9327 49.6976 39.9253ZM51.7602 36.269C51.6658 36.2689 51.5721 36.2834 51.482 36.3119L49.3661 36.9773C49.1274 37.0531 48.928 37.2217 48.8117 37.4462C48.6953 37.6706 48.6715 37.9327 48.7453 38.175L48.7987 38.3487C48.873 38.591 49.0391 38.7937 49.2606 38.9121C49.4821 39.0304 49.7409 39.055 49.9802 38.9802L52.0939 38.3035C52.333 38.2282 52.5329 38.0598 52.6497 37.8353C52.7665 37.6107 52.7906 37.3484 52.7169 37.1058L52.6635 36.9299C52.6013 36.737 52.4804 36.5691 52.318 36.4503C52.1557 36.3315 51.9604 36.2681 51.7602 36.269Z" fill="#093F68"/>
<path d="M52.3386 37.3834C52.2382 37.3838 52.1405 37.3497 52.0616 37.2868C51.9827 37.2238 51.9271 37.1356 51.9039 37.0365C51.8807 36.9374 51.8912 36.8333 51.9338 36.7411C51.9764 36.6489 52.0485 36.574 52.1384 36.5285L55.2311 34.9632C55.3367 34.9096 55.459 34.9008 55.5711 34.9387C55.6831 34.9766 55.7757 35.058 55.8285 35.1651C55.8813 35.2721 55.89 35.3961 55.8527 35.5097C55.8153 35.6232 55.735 35.7171 55.6294 35.7707L52.5366 37.336C52.4751 37.3671 52.4073 37.3833 52.3386 37.3834Z" fill="#093F68"/>
<path d="M56.0322 37.334C55.6983 37.3341 55.3707 37.242 55.0845 37.0676C54.7983 36.8931 54.5644 36.6429 54.408 36.3438L54.3234 36.1814C54.0968 35.745 54.0503 35.2352 54.1942 34.764C54.3382 34.2929 54.6607 33.8989 55.0911 33.6688L57.0491 32.6222C57.4797 32.393 57.9824 32.3462 58.447 32.4921C58.9116 32.6379 59.3002 32.9646 59.5277 33.4003L59.6123 33.5605C59.8389 33.9969 59.8854 34.5067 59.7415 34.9779C59.5975 35.449 59.275 35.843 58.8446 36.0732L56.8866 37.1198C56.6234 37.2611 56.33 37.3346 56.0322 37.334ZM57.9035 33.3101C57.7484 33.3091 57.5955 33.3471 57.4585 33.4206L55.4982 34.4672C55.2773 34.5861 55.1119 34.7888 55.0381 35.031C54.9643 35.2732 54.9881 35.5352 55.1044 35.7597L55.189 35.9221C55.3062 36.146 55.5062 36.3137 55.7451 36.3885C55.984 36.4633 56.2425 36.4392 56.4639 36.3213L58.4219 35.2747C58.5317 35.2163 58.629 35.1365 58.7083 35.0399C58.7876 34.9433 58.8474 34.8318 58.8842 34.7117C58.921 34.5917 58.9341 34.4655 58.9227 34.3403C58.9113 34.2151 58.8757 34.0935 58.8179 33.9823L58.7334 33.8199C58.6534 33.6668 58.534 33.5386 58.3878 33.4489C58.2417 33.3591 58.0743 33.3112 57.9035 33.3101Z" fill="#093F68"/>
<path d="M58.0079 34.8819C57.9251 34.8818 57.844 34.8584 57.7736 34.8141C57.7033 34.7699 57.6465 34.7066 57.6096 34.6315C57.557 34.5247 57.5483 34.4011 57.5854 34.2878C57.6225 34.1745 57.7025 34.0807 57.8077 34.027L60.9026 32.4662C60.9551 32.4376 61.0128 32.42 61.0721 32.4145C61.1315 32.409 61.1913 32.4156 61.2481 32.4339C61.3049 32.4523 61.3574 32.482 61.4027 32.5213C61.4479 32.5606 61.4849 32.6088 61.5114 32.6629C61.5379 32.717 61.5535 32.7759 61.5571 32.8362C61.5607 32.8965 61.5524 32.9569 61.5326 33.0139C61.5127 33.0709 61.4818 33.1232 61.4416 33.1678C61.4014 33.2124 61.3528 33.2484 61.2987 33.2736L58.2059 34.8345C58.1444 34.8656 58.0766 34.8818 58.0079 34.8819Z" fill="#093F68"/>
<path d="M61.3411 34.6383C61.0519 34.639 60.7666 34.5703 60.5087 34.4378C60.2507 34.3053 60.0274 34.1128 59.857 33.8759L59.7502 33.727C59.4643 33.3283 59.3459 32.831 59.421 32.344C59.496 31.857 59.7584 31.4199 60.1507 31.1286L61.9307 29.8069C62.1251 29.6627 62.3456 29.5587 62.5797 29.501C62.8138 29.4432 63.0568 29.4328 63.2948 29.4703C63.5329 29.5078 63.7613 29.5925 63.967 29.7195C64.1728 29.8465 64.3518 30.0134 64.4939 30.2106L64.6007 30.3595C64.8866 30.7582 65.005 31.2555 64.9299 31.7426C64.8548 32.2296 64.5924 32.6666 64.2002 32.9579L62.4202 34.2797C62.1071 34.5122 61.7292 34.6378 61.3411 34.6383ZM63.0187 30.3505C62.8187 30.3509 62.6239 30.4157 62.4625 30.5354L60.6825 31.8572C60.4803 32.007 60.345 32.2319 60.3062 32.4826C60.2675 32.7333 60.3283 32.9894 60.4755 33.1947L60.5823 33.3436C60.7304 33.5482 60.9524 33.6849 61.1997 33.7238C61.4471 33.7626 61.6995 33.7006 61.9018 33.5511L63.6818 32.2294C63.7823 32.1556 63.8675 32.0624 63.9324 31.9551C63.9973 31.8478 64.0406 31.7286 64.0598 31.6042C64.079 31.4799 64.0738 31.353 64.0444 31.2307C64.0151 31.1084 63.9621 30.9933 63.8887 30.8918L63.7819 30.7429C63.6941 30.6213 63.5792 30.5224 63.4466 30.4542C63.314 30.386 63.1674 30.3505 63.0187 30.3505Z" fill="#093F68"/>
<path d="M62.9941 31.8822C62.9235 31.8819 62.854 31.8645 62.7913 31.8316C62.7286 31.7986 62.6746 31.7511 62.6337 31.6928C62.5672 31.5948 62.5417 31.4742 62.5625 31.3572C62.5833 31.2402 62.6489 31.1362 62.7449 31.068L65.5351 29.038C65.6311 28.9715 65.7489 28.9458 65.8634 28.9664C65.9778 28.9869 66.0798 29.052 66.1475 29.1477C66.2153 29.2435 66.2433 29.3623 66.2258 29.4788C66.2082 29.5953 66.1463 29.7002 66.0535 29.771L63.2656 31.801C63.1862 31.8573 63.0909 31.8858 62.9941 31.8822Z" fill="#093F68"/>
<path d="M46.5026 42.436C46.3846 42.436 46.2714 42.3885 46.1879 42.3039C46.1045 42.2193 46.0576 42.1046 46.0576 41.9849V39.9369C46.0656 39.722 46.0307 39.5076 45.9551 39.3067C45.8794 39.1058 45.7646 38.9224 45.6174 38.7675C45.4703 38.6126 45.2938 38.4893 45.0985 38.4052C44.9033 38.321 44.6933 38.2776 44.4812 38.2776C44.269 38.2776 44.0591 38.321 43.8638 38.4052C43.6686 38.4893 43.4921 38.6126 43.345 38.7675C43.1978 38.9224 43.083 39.1058 43.0073 39.3067C42.9317 39.5076 42.8968 39.722 42.9048 39.9369V41.9849C42.9048 42.1046 42.8579 42.2193 42.7744 42.3039C42.691 42.3885 42.5778 42.436 42.4598 42.436C42.3418 42.436 42.2286 42.3885 42.1451 42.3039C42.0617 42.2193 42.0148 42.1046 42.0148 41.9849V39.9369C42.0049 39.6022 42.0613 39.2689 42.1808 38.9568C42.3003 38.6447 42.4804 38.36 42.7104 38.1198C42.9404 37.8795 43.2156 37.6885 43.5198 37.558C43.824 37.4276 44.1509 37.3604 44.4812 37.3604C44.8115 37.3604 45.1384 37.4276 45.4426 37.558C45.7467 37.6885 46.022 37.8795 46.252 38.1198C46.482 38.36 46.6621 38.6447 46.7816 38.9568C46.9011 39.2689 46.9575 39.6022 46.9476 39.9369V41.9849C46.9476 42.1046 46.9007 42.2193 46.8173 42.3039C46.7338 42.3885 46.6206 42.436 46.5026 42.436Z" fill="#093F68"/>
<path d="M47.0565 41.9849H41.91C41.3202 41.9849 40.842 42.4696 40.842 43.0675V47.6914C40.842 48.2894 41.3202 48.7741 41.91 48.7741H47.0565C47.6463 48.7741 48.1245 48.2894 48.1245 47.6914V43.0675C48.1245 42.4696 47.6463 41.9849 47.0565 41.9849Z" fill="#F56132"/>
<path d="M47.0566 48.9996H41.9124C41.5699 48.9996 41.2414 48.8619 40.999 48.6166C40.7567 48.3713 40.6202 48.0386 40.6196 47.6914V43.0675C40.6202 42.7203 40.7567 42.3876 40.999 42.1423C41.2414 41.897 41.5699 41.7593 41.9124 41.7593H47.0566C47.3988 41.7593 47.7271 41.8971 47.9691 42.1424C48.2111 42.3878 48.3471 42.7205 48.3471 43.0675V47.6914C48.3471 48.0384 48.2111 48.3711 47.9691 48.6164C47.7271 48.8618 47.3988 48.9996 47.0566 48.9996ZM41.9124 42.2104C41.6879 42.2104 41.4726 42.3006 41.3137 42.4613C41.1548 42.622 41.0652 42.84 41.0646 43.0675V47.6914C41.0652 47.9189 41.1548 48.1369 41.3137 48.2976C41.4726 48.4583 41.6879 48.5485 41.9124 48.5485H47.0566C47.2808 48.5485 47.4959 48.4582 47.6544 48.2975C47.813 48.1367 47.9021 47.9187 47.9021 47.6914V43.0675C47.9021 42.8402 47.813 42.6222 47.6544 42.4614C47.4959 42.3007 47.2808 42.2104 47.0566 42.2104H41.9124Z" fill="#093F68"/>
<path d="M45.39 44.2694C45.3875 44.1069 45.3417 43.948 45.2574 43.8097C45.1732 43.6713 45.0537 43.5586 44.9114 43.4835C44.7692 43.4084 44.6096 43.3736 44.4495 43.3828C44.2894 43.392 44.1347 43.445 44.0018 43.536C43.869 43.627 43.7628 43.7527 43.6946 43.8999C43.6264 44.047 43.5987 44.2101 43.6144 44.3719C43.6301 44.5337 43.6886 44.6882 43.7838 44.819C43.879 44.9499 44.0073 45.0522 44.1551 45.1153V47.1092H44.8226V45.1153C44.9905 45.0491 45.1347 44.9327 45.236 44.7817C45.3373 44.6307 45.391 44.4521 45.39 44.2694Z" fill="#093F68"/>
<path d="M44.8203 47.335H44.1528C44.0938 47.335 44.0372 47.3112 43.9954 47.2689C43.9537 47.2266 43.9303 47.1692 43.9303 47.1094V45.2553C43.7182 45.1312 43.5524 44.9396 43.4587 44.7102C43.365 44.4809 43.3485 44.2266 43.4119 43.9868C43.4753 43.747 43.615 43.5351 43.8093 43.3839C44.0036 43.2328 44.2416 43.1509 44.4865 43.1509C44.7314 43.1509 44.9695 43.2328 45.1638 43.3839C45.3581 43.5351 45.4977 43.747 45.5611 43.9868C45.6245 44.2266 45.6081 44.4809 45.5143 44.7102C45.4206 44.9396 45.2549 45.1312 45.0428 45.2553V47.1094C45.0428 47.1692 45.0193 47.2266 44.9776 47.2689C44.9359 47.3112 44.8793 47.335 44.8203 47.335ZM44.3753 46.8839H44.5978V45.1155C44.5976 45.0706 44.6106 45.0266 44.6351 44.9893C44.6597 44.9519 44.6947 44.9228 44.7357 44.9057C44.8789 44.8464 44.9974 44.7385 45.0708 44.6004C45.1442 44.4624 45.168 44.3028 45.1382 44.1489C45.1083 43.995 45.0267 43.8564 44.9073 43.7568C44.7878 43.6572 44.6379 43.6027 44.4832 43.6027C44.3285 43.6027 44.1786 43.6572 44.0591 43.7568C43.9397 43.8564 43.858 43.995 43.8282 44.1489C43.7984 44.3028 43.8222 44.4624 43.8956 44.6004C43.969 44.7385 44.0874 44.8464 44.2306 44.9057C44.272 44.9224 44.3075 44.9514 44.3325 44.9888C44.3575 45.0262 44.3709 45.0703 44.3708 45.1155L44.3753 46.8839Z" fill="#093F68"/>
<path d="M62.3 20.6494H26.6666C26.6076 20.6494 26.551 20.6256 26.5093 20.5833C26.4675 20.541 26.4441 20.4836 26.4441 20.4238C26.4441 20.364 26.4675 20.3066 26.5093 20.2643C26.551 20.222 26.6076 20.1982 26.6666 20.1982H62.3C62.359 20.1982 62.4156 20.222 62.4573 20.2643C62.499 20.3066 62.5225 20.364 62.5225 20.4238C62.5225 20.4836 62.499 20.541 62.4573 20.5833C62.4156 20.6256 62.359 20.6494 62.3 20.6494Z" fill="#093F68"/>
<path d="M28.4422 19.6773C28.7469 19.6773 28.994 19.4269 28.994 19.118C28.994 18.809 28.7469 18.5586 28.4422 18.5586C28.1374 18.5586 27.8904 18.809 27.8904 19.118C27.8904 19.4269 28.1374 19.6773 28.4422 19.6773Z" fill="#FFBC0E"/>
<path d="M30.587 19.6773C30.8917 19.6773 31.1388 19.4269 31.1388 19.118C31.1388 18.809 30.8917 18.5586 30.587 18.5586C30.2822 18.5586 30.0352 18.809 30.0352 19.118C30.0352 19.4269 30.2822 19.6773 30.587 19.6773Z" fill="#093F68"/>
<path d="M32.732 19.6773C33.0367 19.6773 33.2838 19.4269 33.2838 19.118C33.2838 18.809 33.0367 18.5586 32.732 18.5586C32.4272 18.5586 32.1802 18.809 32.1802 19.118C32.1802 19.4269 32.4272 19.6773 32.732 19.6773Z" fill="#093F68"/>
</svg>
