<svg width="84" height="84" viewBox="0 0 84 84" fill="none" xmlns="http://www.w3.org/2000/svg">
<path d="M29.2942 59.255H12.3262V19.5112H5.96568V63.6062H32.5382C31.6999 62.4386 30.3845 60.6326 29.2942 59.255Z" fill="#3FE2FD"/>
<path d="M72.7507 19.5112V59.255H51.5374L48.5117 63.6062H79.1935V19.5112H72.7507Z" fill="#3FE2FD"/>
<path d="M15.2309 17.2803H11.4996V57.607H15.2309V17.2803Z" fill="#3FE2FD"/>
<path d="M54.2203 24.5176H50.0422V34.4044H54.2203V24.5176Z" fill="#3FE2FD"/>
<path d="M31.4882 64.7823H6.25464C5.94275 64.7823 5.64363 64.6584 5.42309 64.4379C5.20254 64.2174 5.07864 63.9182 5.07864 63.6063V19.4509C5.07864 19.139 5.20254 18.8399 5.42309 18.6193C5.64363 18.3988 5.94275 18.2749 6.25464 18.2749H10.8931C11.205 18.2749 11.5041 18.3988 11.7247 18.6193C11.9452 18.8399 12.0691 19.139 12.0691 19.4509C12.0691 19.7628 11.9452 20.0619 11.7247 20.2825C11.5041 20.503 11.205 20.6269 10.8931 20.6269H7.43064V62.4303H31.4882C31.8001 62.4303 32.0993 62.5542 32.3198 62.7748C32.5403 62.9953 32.6642 63.2944 32.6642 63.6063C32.6642 63.9182 32.5403 64.2174 32.3198 64.4379C32.0993 64.6584 31.8001 64.7823 31.4882 64.7823Z" fill="#251AC7"/>
<path d="M78.0175 64.7823H49.8456C49.5337 64.7823 49.2346 64.6584 49.014 64.4379C48.7935 64.2174 48.6696 63.9182 48.6696 63.6063C48.6696 63.2944 48.7935 62.9953 49.014 62.7748C49.2346 62.5542 49.5337 62.4303 49.8456 62.4303H76.8415V20.6269H73.6243C73.3124 20.6269 73.0133 20.503 72.7928 20.2825C72.5722 20.0619 72.4483 19.7628 72.4483 19.4509C72.4483 19.139 72.5722 18.8399 72.7928 18.6193C73.0133 18.3988 73.3124 18.2749 73.6243 18.2749H78.0175C78.3294 18.2749 78.6285 18.3988 78.8491 18.6193C79.0696 18.8399 79.1935 19.139 79.1935 19.4509V63.6063C79.1935 63.9182 79.0696 64.2174 78.8491 64.4379C78.6285 64.6584 78.3294 64.7823 78.0175 64.7823Z" fill="#251AC7"/>
<path d="M11.1518 53.8791C10.84 53.8791 10.5408 53.7552 10.3203 53.5346C10.0997 53.3141 9.97585 53.015 9.97585 52.7031V16.1076C9.97585 15.7957 10.0997 15.4966 10.3203 15.2761C10.5408 15.0555 10.84 14.9316 11.1518 14.9316H36.792C38.5198 14.9334 40.1763 15.6206 41.3981 16.8423C42.6198 18.064 43.3069 19.7206 43.3087 21.4484V43.4396C43.3087 43.7515 43.1848 44.0506 42.9643 44.2711C42.7437 44.4917 42.4446 44.6156 42.1327 44.6156C41.8208 44.6156 41.5217 44.4917 41.3012 44.2711C41.0806 44.0506 40.9567 43.7515 40.9567 43.4396V21.4484C40.9554 20.3442 40.5162 19.2857 39.7354 18.5049C38.9547 17.7242 37.8962 17.285 36.792 17.2836H12.3278V52.7031C12.3278 53.015 12.2039 53.3141 11.9834 53.5346C11.7629 53.7552 11.4637 53.8791 11.1518 53.8791Z" fill="#251AC7"/>
<path d="M73.122 53.8791H51.2182C50.9063 53.8791 50.6071 53.7552 50.3866 53.5346C50.1661 53.3141 50.0422 53.015 50.0422 52.7031C50.0422 52.3912 50.1661 52.0921 50.3866 51.8715C50.6071 51.651 50.9063 51.5271 51.2182 51.5271H71.946V17.2836H47.4768C46.3727 17.285 45.3141 17.7242 44.5334 18.5049C43.7526 19.2857 43.3134 20.3442 43.3121 21.4484V43.364C43.3121 43.6759 43.1882 43.975 42.9676 44.1955C42.7471 44.4161 42.448 44.54 42.1361 44.54C41.8242 44.54 41.5251 44.4161 41.3045 44.1955C41.084 43.975 40.9601 43.6759 40.9601 43.364V21.4484C40.9619 19.7206 41.649 18.064 42.8708 16.8423C44.0925 15.6206 45.749 14.9334 47.4768 14.9316H73.122C73.4339 14.9316 73.733 15.0555 73.9536 15.2761C74.1741 15.4966 74.298 15.7957 74.298 16.1076V52.7031C74.298 53.015 74.1741 53.3141 73.9536 53.5346C73.733 53.7552 73.4339 53.8791 73.122 53.8791Z" fill="#251AC7"/>
<path d="M27.5419 59.6933H11.1518C10.84 59.6933 10.5408 59.5694 10.3203 59.3489C10.0997 59.1284 9.97585 58.8292 9.97585 58.5173V52.7029C9.97585 52.391 10.0997 52.0918 10.3203 51.8713C10.5408 51.6508 10.84 51.5269 11.1518 51.5269H22.6514C22.9633 51.5269 23.2625 51.6508 23.483 51.8713C23.7035 52.0918 23.8274 52.391 23.8274 52.7029C23.8274 53.0148 23.7035 53.3139 23.483 53.5344C23.2625 53.755 22.9633 53.8789 22.6514 53.8789H12.3278V57.3413H27.5419C27.8538 57.3413 28.1529 57.4652 28.3735 57.6858C28.594 57.9063 28.7179 58.2054 28.7179 58.5173C28.7179 58.8292 28.594 59.1284 28.3735 59.3489C28.1529 59.5694 27.8538 59.6933 27.5419 59.6933Z" fill="#251AC7"/>
<path d="M73.1002 59.6933H51.2182C50.9063 59.6933 50.6071 59.5694 50.3866 59.3489C50.1661 59.1284 50.0422 58.8292 50.0422 58.5173C50.0422 58.2054 50.1661 57.9063 50.3866 57.6858C50.6071 57.4652 50.9063 57.3413 51.2182 57.3413H71.9242V53.8789H51.8129C51.501 53.8789 51.2019 53.755 50.9813 53.5344C50.7608 53.3139 50.6369 53.0148 50.6369 52.7029C50.6369 52.391 50.7608 52.0918 50.9813 51.8713C51.2019 51.6508 51.501 51.5269 51.8129 51.5269H73.1002C73.4121 51.5269 73.7112 51.6508 73.9317 51.8713C74.1523 52.0918 74.2762 52.391 74.2762 52.7029V58.5173C74.2762 58.8292 74.1523 59.1284 73.9317 59.3489C73.7112 59.5694 73.4121 59.6933 73.1002 59.6933Z" fill="#251AC7"/>
<path d="M33.7109 67.4015C33.5013 67.4017 33.2955 67.3459 33.1147 67.2399C32.934 67.1338 32.7848 66.9814 32.6827 66.7984C31.7806 65.1789 30.5206 62.8722 29.6402 61.0864C29.0102 59.8046 26.8111 57.9062 23.6074 55.8784C22.8751 55.4156 22.3444 54.6936 22.1212 53.8566C21.8979 53.0196 21.9986 52.1292 22.4032 51.3633C22.8077 50.5973 23.4863 50.012 24.3034 49.7245C25.1205 49.4369 26.016 49.4681 26.8111 49.8119L29.9494 51.1643L29.3362 38.7105C29.3128 38.2362 29.383 37.7619 29.543 37.3147C29.7029 36.8675 29.9493 36.4562 30.2682 36.1043C30.587 35.7523 30.9721 35.4666 31.4014 35.2635C31.8307 35.0604 32.2957 34.9438 32.7701 34.9204C33.728 34.8732 34.6655 35.2084 35.3763 35.8524C36.0871 36.4964 36.5129 37.3964 36.5602 38.3543L36.7752 42.7122C37.3772 42.4591 38.0363 42.3732 38.683 42.4637C39.3297 42.5542 39.94 42.8177 40.4494 43.2263C41.1349 42.5548 42.0589 42.183 43.0184 42.1924C43.978 42.2019 44.8945 42.5919 45.5666 43.2767C46.0812 42.8462 46.7057 42.5678 47.3698 42.4727C48.0339 42.3776 48.7114 42.4696 49.3261 42.7384C49.9409 43.0072 50.4684 43.4421 50.8496 43.9942C51.2307 44.5463 51.4503 45.1938 51.4836 45.8639L51.8297 52.9082V52.9602L52.0178 56.8091C52.1198 58.7898 51.7973 60.7693 51.072 62.6152L49.775 65.9181C49.6481 66.1888 49.4228 66.401 49.1449 66.5115C48.8671 66.622 48.5576 66.6225 48.2794 66.5129C48.0012 66.4034 47.7752 66.1919 47.6473 65.9216C47.5194 65.6514 47.4993 65.3425 47.591 65.0579L48.888 61.755C49.493 60.2187 49.7628 58.5708 49.6793 56.9217L49.4928 53.1249C49.4919 53.1075 49.4919 53.0902 49.4928 53.0728L49.1434 45.9765C49.1196 45.6497 48.9697 45.3449 48.7253 45.1267C48.4809 44.9085 48.1611 44.7939 47.8337 44.8072C47.5063 44.8205 47.197 44.9607 46.9711 45.198C46.7452 45.4354 46.6205 45.7513 46.6234 46.079C46.6363 46.3909 46.5248 46.6951 46.3134 46.9248C46.102 47.1545 45.808 47.2908 45.4961 47.3037C45.3416 47.3101 45.1875 47.286 45.0423 47.2328C44.8972 47.1796 44.764 47.0984 44.6503 46.9937C44.4206 46.7823 44.2843 46.4883 44.2714 46.1764L44.2495 45.7362C44.2479 45.4101 44.1201 45.0973 43.8929 44.8633C43.6657 44.6294 43.3567 44.4925 43.0307 44.4814C42.7048 44.4703 42.3872 44.5859 42.1446 44.8039C41.902 45.0219 41.7533 45.3253 41.7295 45.6506C41.6976 45.9291 41.5673 46.1872 41.3619 46.3781C41.1566 46.569 40.8898 46.6803 40.6096 46.6918C40.3295 46.7034 40.0544 46.6145 39.834 46.4411C39.6137 46.2677 39.4625 46.0213 39.4078 45.7463C39.3381 45.4585 39.17 45.2041 38.9325 45.027C38.6951 44.85 38.4033 44.7615 38.1075 44.7769C37.8118 44.7922 37.5307 44.9104 37.3129 45.1111C37.095 45.3117 36.9542 45.5822 36.9146 45.8757C36.8874 46.1683 36.7515 46.4401 36.5339 46.6375C36.3162 46.835 36.0325 46.9438 35.7386 46.9425H35.7134C35.4161 46.9361 35.1323 46.8172 34.9191 46.6099C34.7059 46.4027 34.5791 46.1223 34.5643 45.8253L34.2065 38.4719C34.2008 38.3047 34.1619 38.1403 34.0921 37.9883C34.0223 37.8362 33.9229 37.6996 33.7998 37.5863C33.6766 37.473 33.5322 37.3854 33.3749 37.3284C33.2175 37.2715 33.0505 37.2464 32.8834 37.2547C32.7163 37.2629 32.5525 37.3043 32.4015 37.3764C32.2505 37.4486 32.1154 37.55 32.0041 37.6749C31.8927 37.7997 31.8072 37.9455 31.7527 38.1037C31.6982 38.2618 31.6757 38.4293 31.6865 38.5962L32.3921 52.935C32.4018 53.1344 32.3606 53.333 32.2724 53.5121C32.1841 53.6911 32.0518 53.8448 31.8877 53.9586C31.7237 54.0723 31.5334 54.1425 31.3348 54.1624C31.1362 54.1823 30.9358 54.1513 30.7524 54.0724L25.8804 51.9741C25.63 51.8744 25.3516 51.871 25.0989 51.9645C24.8462 52.058 24.637 52.2417 24.5118 52.4803C24.3865 52.7189 24.3541 52.9954 24.4207 53.2566C24.4873 53.5177 24.6482 53.7449 24.8724 53.8943C27.4277 55.5122 30.697 57.8927 31.7604 60.0532C32.6189 61.7987 33.857 64.0667 34.7458 65.6627C34.8452 65.8416 34.8962 66.0434 34.8937 66.248C34.8913 66.4527 34.8354 66.6532 34.7318 66.8296C34.6281 67.0061 34.4802 67.1525 34.3026 67.2542C34.125 67.356 33.924 67.4097 33.7193 67.4099L33.7109 67.4015Z" fill="#251AC7"/>
<path d="M31.3354 74.7311C31.0334 74.7315 30.7429 74.6157 30.5239 74.4077C30.305 74.1998 30.1745 73.9155 30.1594 73.6139L29.8049 66.4185C29.7972 66.2642 29.82 66.1098 29.872 65.9643C29.924 65.8188 30.0042 65.6849 30.1079 65.5704C30.2117 65.4559 30.337 65.3629 30.4767 65.2969C30.6164 65.2308 30.7677 65.1929 30.9221 65.1854L51.408 64.1757C51.7192 64.1606 52.0236 64.2696 52.2545 64.4788C52.4853 64.6879 52.6238 64.9801 52.6394 65.2912L52.9956 72.4867C53.0032 72.6411 52.9803 72.7955 52.9283 72.9411C52.8762 73.0867 52.796 73.2206 52.6921 73.3352C52.5883 73.4498 52.463 73.5428 52.3232 73.6089C52.1834 73.675 52.032 73.713 51.8776 73.7206C51.7231 73.7282 51.5687 73.7053 51.4231 73.6533C51.2775 73.6012 51.1436 73.521 51.029 73.4172C50.9144 73.3133 50.8214 73.188 50.7553 73.0482C50.6892 72.9084 50.6512 72.757 50.6436 72.6026L50.3479 66.5815L32.219 67.4752L32.5147 73.4963C32.5303 73.8078 32.4215 74.1126 32.2123 74.3439C32.0031 74.5751 31.7106 74.7138 31.3992 74.7295L31.3354 74.7311Z" fill="#251AC7"/>
<path d="M30.9809 25.3193H19.3469C19.035 25.3193 18.7359 25.1954 18.5153 24.9748C18.2948 24.7543 18.1709 24.4552 18.1709 24.1433C18.1709 23.8314 18.2948 23.5323 18.5153 23.3117C18.7359 23.0912 19.035 22.9673 19.3469 22.9673H30.9809C31.2928 22.9673 31.5919 23.0912 31.8124 23.3117C32.033 23.5323 32.1569 23.8314 32.1569 24.1433C32.1569 24.4552 32.033 24.7543 31.8124 24.9748C31.5919 25.1954 31.2928 25.3193 30.9809 25.3193Z" fill="#251AC7"/>
<path d="M30.9809 31.2915H19.3469C19.035 31.2915 18.7359 31.1676 18.5153 30.947C18.2948 30.7265 18.1709 30.4273 18.1709 30.1155C18.1709 29.8036 18.2948 29.5044 18.5153 29.2839C18.7359 29.0634 19.035 28.9395 19.3469 28.9395H30.9809C31.2928 28.9395 31.5919 29.0634 31.8124 29.2839C32.033 29.5044 32.1569 29.8036 32.1569 30.1155C32.1569 30.4273 32.033 30.7265 31.8124 30.947C31.5919 31.1676 31.2928 31.2915 30.9809 31.2915Z" fill="#251AC7"/>
<path d="M66.0593 36.2141H49.8456C49.5337 36.2141 49.2346 36.0902 49.014 35.8696C48.7935 35.6491 48.6696 35.35 48.6696 35.0381V24.1433C48.6696 23.8314 48.7935 23.5323 49.014 23.3117C49.2346 23.0912 49.5337 22.9673 49.8456 22.9673H66.0593C66.3712 22.9673 66.6703 23.0912 66.8908 23.3117C67.1114 23.5323 67.2353 23.8314 67.2353 24.1433V35.0381C67.2353 35.35 67.1114 35.6491 66.8908 35.8696C66.6703 36.0902 66.3712 36.2141 66.0593 36.2141ZM51.0216 33.8621H64.8833V25.3193H51.0216V33.8621Z" fill="#251AC7"/>
</svg>
