<svg width="69" height="40" viewBox="0 0 69 40" fill="none" xmlns="http://www.w3.org/2000/svg">
<g clip-path="url(#clip0_47_103)">
<path d="M14.6417 9.41992L17.2513 12.6603C17.2513 12.6603 19.4762 13.5113 22.0765 15.22L21.4541 16.1038C21.4541 16.1038 17.1621 14.5052 16.0637 13.8297L14.058 10.9696L14.6417 9.41992Z" fill="#A0616A"/>
<path d="M23.637 16.7892C23.886 16.4577 23.5903 15.8797 22.9765 15.4981C22.3627 15.1166 21.6633 15.0761 21.4142 15.4076C21.1652 15.7391 21.4609 16.3171 22.0747 16.6986C22.6885 17.0801 23.3879 17.1207 23.637 16.7892Z" fill="#A0616A"/>
<path d="M13.3662 6.65344L14.2202 6.43311C14.2202 6.43311 14.7173 6.43397 14.9978 6.87811C15.2782 7.32225 17.2639 11.2823 17.1698 11.4357C17.0757 11.5892 16.9443 11.6231 17.1129 11.7087C17.2816 11.7943 17.436 11.7509 17.3211 11.8792C17.2061 12.0074 17.365 12.2893 17.365 12.2893L15.1743 13.7595L13.3662 6.65344V6.65344Z" fill="#E2CBF3"/>
<path d="M10.0529 39.2166L11.0948 39.2165L11.5904 35.561L10.0527 35.5611L10.0529 39.2166Z" fill="#A0616A"/>
<path d="M13.6225 39.1952C13.6549 39.2449 13.672 39.4053 13.672 39.4631C13.672 39.6408 13.5137 39.7848 13.3184 39.7848H10.0918C9.95861 39.7848 9.85061 39.6865 9.85061 39.5653V39.4431C9.85061 39.4431 9.69099 39.0759 10.0196 38.6232C10.0196 38.6232 10.428 38.9777 11.0384 38.4225L11.2183 38.126L12.5211 38.9926L13.2432 39.0735C13.4012 39.0912 13.5412 39.0707 13.6225 39.1952V39.1952Z" fill="#2F2E41"/>
<path d="M13.8238 38.293L14.8513 38.4499L16.0059 34.9196L14.4894 34.688L13.8238 38.293Z" fill="#A0616A"/>
<path d="M17.348 38.8099C17.3709 38.8638 17.3586 39.0245 17.3481 39.0815C17.3157 39.2567 17.1333 39.3749 16.9407 39.3454L13.7588 38.8592C13.6274 38.8391 13.5387 38.7259 13.5608 38.6064L13.5831 38.4859C13.5831 38.4859 13.4926 38.0997 13.8991 37.7028C13.8991 37.7028 14.2373 38.1139 14.9403 37.6584L15.1718 37.3931L16.2987 38.4441L16.9961 38.6326C17.1487 38.6739 17.2905 38.6748 17.348 38.8099H17.348Z" fill="#2F2E41"/>
<path d="M15.9596 19.5361C15.9596 19.5361 17.3594 21.0268 17.3594 22.3933C17.3594 23.7598 17.3935 28.0524 17.3935 28.0524C17.3935 28.0524 16.5741 34.7536 16.3693 35.3127C16.1644 35.8717 16.062 36.8034 16.062 36.8034L14.0817 36.3686C14.0817 36.3686 13.8086 30.0642 14.628 28.5735L12.6478 23.4803L11.9649 37.8903H9.66613C9.66613 37.8903 8.48245 30.3126 9.097 28.325C9.097 28.325 7.73132 20.7473 8.07274 20.3125C8.41416 19.8778 15.9596 19.5361 15.9596 19.5361Z" fill="#2F2E41"/>
<path d="M10.8724 4.69092L12.7161 4.81514L13.3306 5.74683C13.3306 5.74683 14.7646 6.30584 14.9694 7.1133C15.1743 7.92076 15.2426 17.3618 15.2426 17.3618L16.2668 18.7283L16.1986 19.9084L8.00446 20.2811V19.1465L7.25333 17.7966C7.25333 17.7966 8.07274 6.98907 8.2776 6.92696C8.48245 6.86485 10.053 5.87105 10.053 5.87105L10.8724 4.69092V4.69092Z" fill="#E2CBF3"/>
<path d="M11.7068 4.45996C12.989 4.45996 14.0285 3.51447 14.0285 2.34815C14.0285 1.18182 12.989 0.236328 11.7068 0.236328C10.4246 0.236328 9.38515 1.18182 9.38515 2.34815C9.38515 3.51447 10.4246 4.45996 11.7068 4.45996Z" fill="#A0616A"/>
<path d="M13.5613 0.649551C13.4431 0.344786 13.1154 0.159891 12.7602 0.167093C12.7452 0.167394 12.7301 0.167268 12.7152 0.166711C12.5364 0.160059 12.3647 0.104488 12.1893 0.0718875C11.8624 0.011123 11.5177 0.0314669 11.2022 0.130143C11.1041 0.160817 11.006 0.199388 10.9022 0.199399C10.7985 0.199412 10.6856 0.147685 10.6603 0.0562059C10.6543 0.13903 10.6483 0.22185 10.6423 0.304669C10.6085 0.237637 10.5748 0.1706 10.5411 0.103564L10.4735 0.370896L10.2569 0.147474C10.2763 0.245951 10.2132 0.345204 10.1277 0.408164C10.0423 0.471128 9.93673 0.505956 9.83555 0.545182C9.39888 0.714492 8.98887 1.01425 8.86305 1.4306C8.78355 1.69364 8.82513 1.97281 8.86726 2.2429C8.90449 2.48167 8.94498 2.7287 9.08766 2.93195C9.17913 3.06225 9.31097 3.17189 9.36666 3.31796C9.41857 3.4541 9.3989 3.60998 9.47276 3.73747C9.54693 3.86552 9.70006 3.93797 9.84992 3.98662C9.99976 4.0353 10.1591 4.06971 10.2881 4.15438C10.4172 4.23907 10.5669 4.483 10.8481 4.46987L10.9389 4.31479C11.0322 4.2456 10.6867 4.30045 10.6831 4.19097C10.6795 4.08149 11.0988 4.01385 11.0394 3.91858C10.9483 3.77249 10.825 3.64534 10.7223 3.50573C10.6022 3.34246 10.5077 3.1517 10.5492 2.95242C10.5653 2.8749 10.6052 2.80168 10.6659 2.74537C10.8411 2.58304 11.0364 2.65439 11.2261 2.67761C11.3569 2.69363 11.5132 2.67514 11.5811 2.57219C11.6605 2.45175 11.572 2.29853 11.5828 2.15842C11.5943 2.00996 11.718 1.88822 11.8525 1.80357C11.9871 1.71893 12.1399 1.65727 12.261 1.55716C12.382 1.45704 12.4683 1.30064 12.4155 1.15976C12.9894 0.942438 13.0772 0.921883 13.6816 1.05442C13.6528 0.916954 13.6124 0.781516 13.5613 0.649552L13.5613 0.649551Z" fill="#2F2E41"/>
<path d="M3.75998 27.6597V21.2496C3.75998 21.0738 3.84236 20.9056 3.98602 20.7879C4.12966 20.6703 4.32224 20.6134 4.5145 20.6319C6.29546 20.4139 7.97283 20.5176 9.49298 21.1094C9.66517 21.1094 9.80526 21.2368 9.80526 21.3934V27.8259C9.80526 27.9825 9.66517 28.11 9.49298 28.11C7.81964 27.753 6.05471 27.8459 4.25495 28.11C3.98202 28.11 3.75998 27.908 3.75998 27.6597Z" fill="#E6E6E6"/>
<path d="M3.75998 28.2304V21.7526C3.75998 21.4101 4.06634 21.1314 4.44291 21.1314C6.14593 20.7261 7.82932 20.7254 9.49299 21.1314C9.66518 21.1314 9.80526 21.2588 9.80526 21.4154V27.7821C9.80526 27.9385 9.66559 28.0658 9.49375 28.0661C7.85335 27.8065 6.09615 28.0594 4.25495 28.6807C3.98202 28.6807 3.75998 28.4787 3.75998 28.2304Z" fill="#F2F2F2"/>
<path d="M7.69253 23.8083H6.10005C5.52813 23.8083 5.06284 23.3851 5.06284 22.8649C5.06284 22.3447 5.52813 21.9214 6.10005 21.9214H7.69253C8.26449 21.9214 8.72978 22.3447 8.72978 22.8649C8.72978 23.3851 8.26449 23.8083 7.69253 23.8083Z" fill="#E6E6E6"/>
<path d="M9.15206 11.085L9.09119 14.4294C9.09119 14.4294 8.89664 17.0358 8.4135 19.9689L7.26189 20.0358C7.26189 20.0358 7.40358 15.456 7.35196 14.2509L7.4334 11.5743L9.15206 11.085H9.15206Z" fill="#A0616A"/>
<path d="M7.94649 22.0419C8.38764 22.0282 8.72479 21.4693 8.69953 20.7935C8.67428 20.1176 8.29618 19.5808 7.85503 19.5944C7.41388 19.6081 7.07673 20.167 7.10198 20.8429C7.12724 21.5187 7.50534 22.0555 7.94649 22.0419Z" fill="#A0616A"/>
<path d="M9.13416 6.82715L8.24706 6.85654C8.24706 6.85654 7.77436 6.9965 7.65776 7.49759C7.54116 7.99869 6.72386 13.1845 6.86531 13.3041C7.00675 13.4237 7.14323 13.4192 7.01173 13.5479C6.88022 13.6765 6.71861 13.6785 6.87138 13.7684C7.02415 13.8582 6.96834 14.1709 6.96834 14.1709L9.42187 14.0127L9.13416 6.82715Z" fill="#E2CBF3"/>
<path d="M67.6634 36.7069H44.0603C43.9234 36.7069 43.7878 36.6878 43.6573 36.6503L43.6434 36.6452C36.2527 33.3042 29.9162 31.4807 24.2717 31.0705L24.2502 31.0666C23.6918 30.9059 23.3167 30.4401 23.3167 29.9074V1.21689C23.3167 0.825126 23.516 0.467629 23.8634 0.236111C24.2109 0.00459308 24.6456 -0.0603712 25.0564 0.0576632L43.7156 5.42617C43.8273 5.45833 43.9433 5.4746 44.0603 5.4746H67.6634C68.4004 5.4746 69 6.02003 69 6.69041V35.491C69 36.1615 68.4004 36.7069 67.6634 36.7069ZM43.7226 36.4846C43.8321 36.5154 43.9457 36.531 44.0603 36.531H67.6634C68.2938 36.531 68.8067 36.0645 68.8067 35.491V6.69041C68.8067 6.11699 68.2938 5.65047 67.6634 5.65047H44.0603C43.9235 5.65047 43.7879 5.63145 43.6573 5.59388L24.9981 0.225377C24.6468 0.124216 24.2749 0.179949 23.9777 0.377976C23.6805 0.576046 23.51 0.881803 23.51 1.21689V29.9074C23.51 30.3598 23.8263 30.7557 24.2983 30.896C29.9632 31.3095 36.3173 33.1376 43.7226 36.4846L43.7226 36.4846Z" fill="#3F3D56"/>
<path d="M44.6906 35.404C51.1262 33.3325 58.3057 33.5703 65.9329 35.1974C66.8904 35.4017 67.8084 34.7459 67.8084 33.8513V7.63646C67.8084 6.99986 67.3312 6.44326 66.6514 6.29204C58.6054 4.50232 51.09 4.17304 44.4669 6.29974C43.9817 6.45554 43.4431 6.37113 43.0337 6.08763C37.4526 2.22319 31.7407 0.285595 25.8583 0.860915C25.0887 0.936179 24.5083 1.53272 24.5083 2.23673V28.7375C24.5083 29.4471 25.0985 30.0404 25.8744 30.1138C32.206 30.7127 38.0239 32.5281 43.4347 35.3081C43.8178 35.5049 44.2758 35.5375 44.6906 35.404Z" fill="#F2F2F2"/>
<path d="M44.484 33.9341C44.0457 33.9341 43.614 33.8245 43.2336 33.6097C38.6895 31.0426 33.7388 29.543 28.5191 29.1524C27.2954 29.0608 26.3368 28.1114 26.3368 26.9909V4.35491C26.3368 3.19311 27.3273 2.24115 28.5919 2.18769C32.3922 2.0265 37.0065 3.56808 43.1127 7.03738C43.6292 7.33077 44.2573 7.41789 44.836 7.27671C50.6392 5.85978 56.9297 5.81839 64.0675 7.15018C65.1756 7.35696 65.9799 8.25161 65.9799 9.27751V31.3723C65.9799 32.039 65.6502 32.6584 65.0754 33.0713C64.4963 33.4874 63.7512 33.6366 63.031 33.4806C56.2787 32.0188 50.4806 32.1244 45.305 33.8038C45.0362 33.891 44.7587 33.9341 44.484 33.9341ZM29.1344 2.35223C28.9545 2.35223 28.777 2.35592 28.6008 2.36339C27.4397 2.41247 26.5301 3.28723 26.5301 4.35491V26.9909C26.5301 28.0205 27.4108 28.893 28.535 28.9771C33.7855 29.3701 38.7652 30.8784 43.3356 33.4603C43.9042 33.7816 44.5984 33.8464 45.2401 33.6382L45.2725 33.721L45.2401 33.6382C50.4518 31.947 56.286 31.8395 63.0757 33.3096C63.738 33.4529 64.4231 33.3159 64.9555 32.9333C65.4836 32.5539 65.7866 31.9849 65.7866 31.3723V9.27751C65.7866 8.33473 65.0472 7.51253 64.0286 7.32244C56.921 5.99619 50.6595 6.03681 44.8862 7.44657C44.2557 7.60037 43.5721 7.5057 43.0103 7.18654C37.2236 3.89879 32.7923 2.35223 29.1344 2.35223Z" fill="white"/>
<path d="M44.045 7.40804L43.8516 7.40967L44.1206 33.8939L44.314 33.8922L44.045 7.40804Z" fill="white"/>
<path d="M28.2217 5.66022L28.1609 5.82715L41.6984 9.9016L41.7592 9.73467L28.2217 5.66022Z" fill="#3F3D56"/>
<path d="M28.2217 8.91949L28.1609 9.08643L41.6984 13.1609L41.7592 12.9939L28.2217 8.91949Z" fill="#3F3D56"/>
<path d="M28.2217 12.1793L28.1609 12.3462L41.6984 16.4206L41.7592 16.2537L28.2217 12.1793Z" fill="#3F3D56"/>
<path d="M28.2217 15.439L28.1609 15.606L41.6984 19.6804L41.7592 19.5135L28.2217 15.439Z" fill="#3F3D56"/>
<path d="M63.5281 9.91113H47.3031V10.087H63.5281V9.91113Z" fill="#3F3D56"/>
<path d="M63.5281 12.9897H47.3031V13.1656H63.5281V12.9897Z" fill="#3F3D56"/>
<path d="M63.5281 16.0684H47.3031V16.2442H63.5281V16.0684Z" fill="#3F3D56"/>
<path d="M63.5281 19.1465H47.3031V19.3224H63.5281V19.1465Z" fill="#3F3D56"/>
<path d="M63.5281 22.2251H47.3031V22.401H63.5281V22.2251Z" fill="#3F3D56"/>
<path d="M63.5281 25.3037H47.3031V25.4796H63.5281V25.3037Z" fill="#3F3D56"/>
<path d="M5.2454 38.4756C5.04568 38.487 4.9353 38.2613 5.0864 38.1297L5.10144 38.0754C5.09946 38.071 5.09747 38.0667 5.09546 38.0623C4.89349 37.6242 4.20897 37.6273 4.00872 38.066C3.83097 38.4554 3.60468 38.8454 3.54896 39.2572C3.52398 39.4389 3.53522 39.6241 3.57955 39.8024C3.16308 38.9749 2.94391 38.0712 2.94391 37.1625C2.94391 36.9342 2.95765 36.7058 2.98575 36.4781C3.00885 36.2918 3.04069 36.1067 3.08191 35.9232C3.30481 34.9315 3.78748 33.987 4.48369 33.1981C4.81837 33.0317 5.09747 32.7716 5.26606 32.4597C5.32663 32.3473 5.37408 32.2263 5.39656 32.1031C5.35847 32.1076 5.25295 31.58 5.28167 31.5476C5.22859 31.4743 5.13359 31.4379 5.07562 31.3664C4.78731 31.0109 4.39009 31.0729 4.18272 31.5561C3.73974 31.7595 3.73545 32.0967 4.00726 32.4211C4.18019 32.6275 4.20395 32.9067 4.35568 33.1277C4.34007 33.1458 4.32384 33.1635 4.30823 33.1816C4.02197 33.5156 3.77439 33.8746 3.56567 34.2517C3.62466 33.8326 3.53757 33.3276 3.38911 33.0022C3.2201 32.6313 2.90333 32.319 2.62438 31.9984C2.2893 31.6133 1.60221 31.7813 1.54318 32.2695C1.54261 32.2742 1.54205 32.2789 1.5415 32.2837C1.58294 32.3049 1.62353 32.3275 1.66318 32.3514C1.88935 32.4874 1.81118 32.8063 1.5432 32.844L1.53713 32.8448C1.55212 32.9806 1.57772 33.1152 1.61518 33.2475C1.25732 34.5064 2.02992 34.9649 3.1331 34.9855C3.15745 34.9968 3.18118 35.0082 3.20554 35.019C3.09377 35.3052 3.00447 35.5989 2.93829 35.8965C2.87897 36.1595 2.83776 36.4253 2.81466 36.6922C2.78593 37.029 2.78843 37.3675 2.81966 37.7038L2.81778 37.6918C2.73849 37.3215 2.51745 36.9756 2.1965 36.736C1.71839 36.3787 1.04291 36.2471 0.527115 35.96C0.278825 35.8218 -0.039339 36.0004 0.00399401 36.2622L0.00610343 36.2748C0.0829038 36.3032 0.15783 36.3361 0.230261 36.373C0.271696 36.3943 0.312287 36.4169 0.351939 36.4407C0.578106 36.5768 0.499942 36.8957 0.23196 36.9333L0.225887 36.9342C0.221517 36.9347 0.217769 36.9353 0.213405 36.9359C0.345154 37.2204 0.528724 37.4845 0.758503 37.7123C0.982267 38.8112 1.94334 38.9155 2.97138 38.5955H2.97201C3.0844 39.0408 3.24862 39.4758 3.45967 39.8904H5.20175C5.20799 39.8728 5.21361 39.8546 5.21923 39.837C5.05814 39.8461 4.89579 39.8376 4.73719 39.8109C4.86644 39.6667 4.99569 39.5212 5.12495 39.377C5.12807 39.3741 5.13057 39.3713 5.13306 39.3685C5.19862 39.2946 5.26481 39.2214 5.33037 39.1475L5.33041 39.1474C5.33451 38.9208 5.30464 38.6949 5.24545 38.4756L5.2454 38.4756Z" fill="#F2F2F2"/>
<path d="M24.7303 39.8952C24.7303 39.9532 24.6791 39.9998 24.6153 39.9998H0.12882C0.0650186 39.9998 0.0137787 39.9532 0.0137787 39.8952C0.0137787 39.8371 0.0650186 39.7905 0.12882 39.7905H24.6153C24.6791 39.7905 24.7303 39.8371 24.7303 39.8952Z" fill="#CCCCCC"/>
<path d="M64.2096 34.3326C65.4376 34.3326 66.4331 33.4271 66.4331 32.3101C66.4331 31.1931 65.4376 30.2876 64.2096 30.2876C62.9816 30.2876 61.9861 31.1931 61.9861 32.3101C61.9861 33.4271 62.9816 34.3326 64.2096 34.3326Z" fill="#E2CBF3"/>
<path d="M65.2509 32.2341L63.8713 31.5095C63.8068 31.4756 63.7262 31.5179 63.7262 31.5856V32.2223H63.3124C63.259 32.2223 63.2157 32.2617 63.2157 32.3103C63.2157 32.3588 63.259 32.3982 63.3124 32.3982H63.7262V33.0349C63.7262 33.1026 63.8068 33.1449 63.8713 33.111L65.2509 32.3864C65.3153 32.3526 65.3153 32.268 65.2509 32.2341Z" fill="white"/>
<path d="M32.5469 26.609C32.6335 25.7077 33.0449 24.8467 33.7033 24.1691C34.3447 23.509 35.2213 23.0562 36.1667 22.8718C36.6945 22.7688 37.2411 22.7487 37.7756 22.8181C37.9035 22.8347 37.9001 23.0194 37.7708 23.0027C36.8612 22.8846 35.9211 23.0288 35.1038 23.4109C34.266 23.8025 33.5955 24.4394 33.1813 25.2074C32.9444 25.6467 32.7967 26.126 32.7499 26.6133C32.7385 26.7313 32.5355 26.7277 32.5469 26.609Z" fill="white"/>
<path d="M37.5505 22.0769L39.113 22.7781C39.1698 22.8036 39.1792 22.8878 39.1309 22.9241L37.6517 24.0362C37.5516 24.1115 37.4107 23.9785 37.5116 23.9027L38.9908 22.7905L39.0086 22.9365L37.4462 22.2353C37.3288 22.1826 37.4341 22.0246 37.5505 22.0769Z" fill="white"/>
</g>
<defs>
<clipPath id="clip0_47_103">
<rect width="69" height="40" fill="white"/>
</clipPath>
</defs>
</svg>
