<svg width="165" height="113" viewBox="0 0 165 113" fill="none" xmlns="http://www.w3.org/2000/svg">
<g clip-path="url(#clip0_46_213)">
<path d="M16.2263 30.0324C25.1878 30.0324 32.4526 23.3094 32.4526 15.0162C32.4526 6.72299 25.1878 0 16.2263 0C7.26476 0 0 6.72299 0 15.0162C0 23.3094 7.26476 30.0324 16.2263 30.0324Z" fill="#F0F0F0"/>
<path d="M148.774 63.6833C157.735 63.6833 165 56.9603 165 48.6671C165 40.3739 157.735 33.6509 148.774 33.6509C139.812 33.6509 132.547 40.3739 132.547 48.6671C132.547 56.9603 139.812 63.6833 148.774 63.6833Z" fill="#F0F0F0"/>
<path d="M98.0843 111.784L95.2315 110.673L93.2745 97.4382H67.2138L65.0926 110.619L62.5403 111.8C62.4182 111.856 62.3203 111.949 62.2624 112.063C62.2046 112.178 62.1902 112.307 62.2215 112.43C62.2529 112.553 62.3282 112.663 62.4353 112.741C62.5423 112.819 62.6749 112.862 62.8114 112.862H97.8492C97.9891 112.862 98.1247 112.817 98.233 112.735C98.3413 112.653 98.4156 112.539 98.4433 112.412C98.471 112.285 98.4503 112.153 98.3849 112.039C98.3195 111.924 98.2133 111.834 98.0843 111.784Z" fill="#E6E6E6"/>
<path d="M144.396 99.199H16.3785C15.7068 99.1976 15.0632 98.9497 14.5888 98.5097C14.1143 98.0697 13.8479 97.4735 13.8479 96.8519V80.146H146.927V96.8519C146.927 97.4735 146.66 98.0697 146.186 98.5097C145.711 98.9497 145.068 99.1976 144.396 99.199Z" fill="#CCCCCC"/>
<path d="M147.06 88.0416H13.731V16.5606C13.7319 15.8104 14.0543 15.0913 14.6275 14.5608C15.2007 14.0304 15.9779 13.732 16.7885 13.7312H144.003C144.813 13.732 145.591 14.0304 146.164 14.5608C146.737 15.0913 147.059 15.8104 147.06 16.5606V88.0416Z" fill="#3F3D56"/>
<path d="M139.097 82.8533H21.6943C21.0694 82.8527 20.4702 82.6226 20.0283 82.2137C19.5864 81.8048 19.3379 81.2503 19.3372 80.672V21.1003C19.3379 20.522 19.5864 19.9676 20.0283 19.5586C20.4702 19.1497 21.0693 18.9196 21.6943 18.9189H139.097C139.722 18.9196 140.321 19.1497 140.763 19.5586C141.205 19.9676 141.454 20.522 141.454 21.1003V80.672C141.454 81.2503 141.205 81.8048 140.763 82.2137C140.321 82.6226 139.722 82.8527 139.097 82.8533Z" fill="white"/>
<path d="M113.321 113H47.351C47.2835 113.001 47.2173 112.982 47.1629 112.945C47.1085 112.908 47.0688 112.855 47.0502 112.795C47.0385 112.754 47.0371 112.711 47.0462 112.67C47.0552 112.628 47.0744 112.589 47.1023 112.556C47.1302 112.522 47.1661 112.495 47.2071 112.476C47.2481 112.457 47.2932 112.448 47.339 112.448H113.297C113.368 112.445 113.438 112.465 113.496 112.505C113.553 112.544 113.594 112.6 113.613 112.664C113.623 112.704 113.622 112.746 113.612 112.786C113.602 112.827 113.582 112.864 113.554 112.896C113.526 112.929 113.491 112.955 113.451 112.973C113.41 112.991 113.366 113 113.321 113Z" fill="#CCCCCC"/>
<path d="M125.79 72.2485H101.054C100.993 72.2533 100.931 72.2356 100.884 72.1991C100.836 72.1626 100.806 72.1103 100.799 72.0535V53.5891C100.806 53.5322 100.836 53.4799 100.884 53.4435C100.931 53.407 100.993 53.3893 101.054 53.3941H125.79C125.851 53.3893 125.912 53.407 125.96 53.4435C126.008 53.4799 126.038 53.5322 126.044 53.5891V72.0535C126.038 72.1104 126.008 72.1627 125.96 72.1991C125.912 72.2356 125.851 72.2533 125.79 72.2485Z" fill="#F0F0F0"/>
<path d="M123.101 55.437H103.743C103.675 55.4371 103.611 55.462 103.563 55.5062C103.515 55.5503 103.488 55.6102 103.488 55.6727V69.5539C103.488 69.6164 103.515 69.6763 103.563 69.7205C103.611 69.7647 103.675 69.7896 103.743 69.7897H123.101C123.169 69.7896 123.233 69.7647 123.281 69.7205C123.329 69.6763 123.356 69.6164 123.356 69.5539V55.6727C123.356 55.6102 123.329 55.5503 123.281 55.5062C123.233 55.462 123.169 55.4371 123.101 55.437Z" fill="white"/>
<path d="M112.944 64.8431C114.303 64.8431 115.405 63.8233 115.405 62.5654C115.405 61.3074 114.303 60.2876 112.944 60.2876C111.584 60.2876 110.482 61.3074 110.482 62.5654C110.482 63.8233 111.584 64.8431 112.944 64.8431Z" fill="#FFB8B8"/>
<path d="M116.545 69.7897H111.088L111.266 66.0769L111.308 66.0356L111.921 65.4368H113.87L114.592 66.0843L114.65 66.1366L116.188 67.5007L116.545 69.7897Z" fill="#E2CBF3"/>
<path d="M112.026 69.7897H107.897C107.887 68.9515 107.882 68.4497 107.882 68.4497L108.12 68.3151L108.122 68.3146H108.122L110.753 66.8364L111.306 66.0061L111.308 66.0354L111.471 67.7855C111.471 67.7855 111.739 68.588 112.026 69.7897Z" fill="#2F2E41"/>
<path d="M118.965 69.7896H114.592C114.658 67.3455 114.302 66.0061 114.485 66.0061L114.592 66.0842L115.881 67.026L117.579 67.6027H117.581L118.752 68.0003L118.957 68.07V68.1595C118.958 68.3743 118.959 68.9615 118.965 69.7896Z" fill="#2F2E41"/>
<path d="M110.615 63.2779C110.615 63.2779 110.824 62.9381 110.776 61.8027C110.727 60.6673 112.595 61.3095 114.156 61.2012C115.717 61.0929 115.387 63.0967 115.387 63.0967C115.387 63.0967 115.5 62.9776 115.741 62.0105C115.982 61.0434 115.434 60.0796 115.434 60.0796C115.273 59.0633 114.404 59.3891 114.404 59.3891C114.514 59.4149 114.609 59.4777 114.672 59.5652C114.735 59.6526 114.76 59.7585 114.742 59.8622C114.388 59.2874 113.519 59.6131 113.519 59.6131C112.36 58.9401 111.185 59.8264 111.185 59.8264C109.785 60.1205 110.606 61.1509 110.606 61.1509C109.198 61.8094 110.615 63.2779 110.615 63.2779Z" fill="#2F2E41"/>
<path d="M108.449 69.7895H106.752C106.766 69.5961 106.766 69.4021 106.753 69.2086C106.652 68.8351 108.077 68.3302 108.12 68.315L108.122 68.3145H108.122L108.394 68.4496L108.449 69.7895Z" fill="#2F2E41"/>
<path d="M119.271 69.7897H117.489L117.267 67.7573L117.517 67.5886C117.517 67.5886 117.539 67.5933 117.579 67.6028H117.581C117.988 67.6885 118.381 67.8221 118.752 68.0003C118.83 68.0412 118.9 68.0952 118.957 68.1596C118.992 68.1985 119.01 68.2484 119.006 68.2989C118.997 68.3749 119.101 68.9343 119.271 69.7897Z" fill="#2F2E41"/>
<path d="M125.709 48.6898H100.973C100.912 48.6946 100.851 48.6768 100.803 48.6404C100.755 48.6039 100.725 48.5516 100.719 48.4947V30.0238C100.725 29.9669 100.755 29.9146 100.803 29.8781C100.851 29.8416 100.912 29.8239 100.973 29.8287H125.709C125.771 29.8239 125.832 29.8416 125.879 29.8781C125.927 29.9146 125.957 29.9669 125.964 30.0238V48.4947C125.957 48.5516 125.927 48.6039 125.879 48.6404C125.832 48.6768 125.771 48.6946 125.709 48.6898Z" fill="#F0F0F0"/>
<path d="M123.02 31.8716H103.662C103.595 31.8717 103.53 31.8965 103.482 31.9407C103.434 31.9849 103.408 32.0448 103.407 32.1073V45.9885C103.408 46.051 103.434 46.1109 103.482 46.1551C103.53 46.1993 103.595 46.2241 103.662 46.2242H123.02C123.088 46.2241 123.153 46.1993 123.2 46.1551C123.248 46.1109 123.275 46.051 123.275 45.9885V32.1073C123.275 32.0448 123.248 31.9849 123.2 31.9407C123.153 31.8965 123.088 31.8717 123.02 31.8716Z" fill="white"/>
<path d="M118.106 46.224C118.215 45.86 118.3 45.5462 118.344 45.3241C118.357 45.2556 118.359 45.1855 118.348 45.1167C118.185 44.0433 115.24 43.1361 114.863 43.024L114.772 42.0895L111.065 41.7202L110.596 42.9156L109.266 43.3771C109.218 43.3935 109.172 43.4153 109.13 43.442C109.018 43.5117 108.932 43.6114 108.884 43.7276C108.835 43.8439 108.826 43.9711 108.858 44.0921L109.425 46.224H118.106L118.106 46.224Z" fill="#E2CBF3"/>
<path d="M110.423 46.2242H107.547C107.65 45.6302 107.742 45.1048 107.802 44.7706C108.022 43.5543 108.98 43.4506 109.129 43.4422C109.141 43.4412 109.149 43.4412 109.149 43.4412H109.754L110.423 46.2242Z" fill="#E2CBF3"/>
<path d="M118.106 46.2242H118.804C118.77 45.8222 118.612 45.4378 118.348 45.1168C118.216 44.9552 118.045 44.8238 117.849 44.7329L117.797 44.7119L117.184 46.2242H118.106Z" fill="#E2CBF3"/>
<path d="M112.774 41.129C114.248 41.129 115.442 40.0233 115.442 38.6593C115.442 37.2954 114.248 36.1897 112.774 36.1897C111.3 36.1897 110.105 37.2954 110.105 38.6593C110.105 40.0233 111.3 41.129 112.774 41.129Z" fill="#A0616A"/>
<path d="M110.982 37.4559C111.259 37.7585 111.726 37.8438 112.157 37.8785C113.166 37.9301 114.177 37.8537 115.163 37.6515C115.224 38.1994 115.057 38.7902 115.406 39.241C115.569 38.6953 115.665 38.134 115.689 37.5682C115.715 37.3254 115.681 37.0804 115.589 36.8517C115.54 36.7371 115.457 36.6376 115.35 36.5645C115.243 36.4913 115.115 36.4475 114.983 36.4379C115.181 36.2983 115.414 36.2062 115.661 36.1697L114.813 35.7756L115.031 35.5689L113.497 35.482L113.941 35.2208C113.272 35.1358 112.596 35.1161 111.922 35.1621C111.607 35.1622 111.299 35.2416 111.029 35.3917C110.776 35.5594 110.63 35.8925 110.787 36.1386C110.59 36.1685 110.405 36.2444 110.248 36.3592C110.092 36.4739 109.97 36.6237 109.894 36.7943C109.798 37.0655 109.774 37.3544 109.826 37.6359C109.884 38.0874 109.997 38.5313 110.164 38.959" fill="#2F2E41"/>
<path d="M34.7471 71.7322V29.9652C34.7629 29.8356 34.8329 29.7168 34.9421 29.6344C35.0513 29.5519 35.1911 29.5123 35.3314 29.524H92.0792C92.2196 29.5123 92.3593 29.5519 92.4685 29.6344C92.5777 29.7168 92.6477 29.8356 92.6636 29.9652V71.7322C92.6477 71.8618 92.5777 71.9805 92.4685 72.063C92.3593 72.1454 92.2196 72.185 92.0792 72.1734H35.3314C35.1911 72.185 35.0513 72.1454 34.9421 72.063C34.8329 71.9805 34.7629 71.8618 34.7471 71.7322Z" fill="#E4E4E4"/>
<path d="M40.9152 34.7515V66.5974C40.9154 66.7408 40.977 66.8782 41.0866 66.9796C41.1961 67.0809 41.3446 67.138 41.4995 67.1382H85.9108C86.0657 67.138 86.2142 67.0809 86.3238 66.9796C86.4333 66.8782 86.4949 66.7408 86.4952 66.5974V34.7515C86.4949 34.6081 86.4333 34.4707 86.3238 34.3693C86.2142 34.268 86.0657 34.2109 85.9108 34.2107H41.4995C41.3446 34.2109 41.1961 34.268 41.0866 34.3693C40.977 34.4707 40.9154 34.6081 40.9152 34.7515Z" fill="white"/>
<path d="M59.3356 67.1382H68.2736L67.7166 59.4014L64.4922 60.09L61.3562 58.9736L61.273 58.9448L61.2678 58.9424C61.2667 58.9447 61.2658 58.9471 61.2652 58.9496C61.2159 59.1335 60.2316 62.7807 59.3356 67.1382Z" fill="#E2CBF3"/>
<path d="M53.949 60.6646L54.7839 67.1382H62.3171L61.3562 58.9737L61.347 58.8943L61.2731 58.9448L61.2653 58.9496L59.4069 60.2043L53.949 60.6646Z" fill="#2F2E41"/>
<path d="M66.9517 67.1384H73.6977L73.7951 62.0418L68.8307 60.518L67.7165 59.4016C67.7165 59.4016 67.3646 62.7605 66.9517 67.1384Z" fill="#2F2E41"/>
<path d="M50.7013 67.1383H56.2917L55.9333 62.5008L53.9491 60.6646C53.9491 60.6646 52.3791 63.7121 50.7013 67.1383Z" fill="#2F2E41"/>
<path d="M72.1069 67.1383H75.056C75.043 65.653 75.0352 64.6267 75.0352 64.3371C75.05 63.8894 74.9444 63.4453 74.728 63.0446C74.5115 62.644 74.191 62.2994 73.7951 62.0417L72.3056 62.5008L72.1069 67.1383Z" fill="#2F2E41"/>
<path d="M72.5671 56.967H56.9403V50.8719C56.9403 48.7831 58.5305 46.2717 60.4852 45.2735C63.2287 43.8728 66.228 43.8482 68.7139 45.2063C69.8841 45.8475 70.8543 46.7589 71.5297 47.8511C72.2051 48.9434 72.5626 50.1792 72.5671 51.4377V56.967Z" fill="#2F2E41"/>
<path d="M70.0157 54.0988C71.5109 51.5675 70.5057 48.3938 67.7704 47.0101C65.0352 45.6264 61.6057 46.5567 60.1105 49.0879C58.6153 51.6192 59.6205 54.7929 62.3558 56.1766C65.091 57.5603 68.5205 56.63 70.0157 54.0988Z" fill="#FFB8B8"/>
<path d="M70.428 51.8628H62.3757L62.3566 51.7782C62.2634 51.334 62.143 50.8951 61.9959 50.4635C61.6761 50.8971 61.3813 51.3459 61.1125 51.8081L61.0797 51.8628H59.5142C59.4182 51.8627 59.3232 51.8441 59.2353 51.8082C59.1475 51.7722 59.0687 51.7197 59.004 51.654C58.9614 51.6106 58.8618 51.509 59.2741 46.8512C59.2855 46.7403 59.3278 46.634 59.3968 46.5428C59.4659 46.4515 59.5594 46.3784 59.6682 46.3307C63.2013 44.8043 66.7817 44.8447 70.3107 46.4513H70.3737L70.3958 46.5323C71.092 51.4899 70.9918 51.597 70.9491 51.6427C70.8844 51.7118 70.8043 51.7672 70.7144 51.8052C70.6245 51.8432 70.5269 51.8628 70.428 51.8628Z" fill="#2F2E41"/>
</g>
<defs>
<clipPath id="clip0_46_213">
<rect width="165" height="113" fill="white"/>
</clipPath>
</defs>
</svg>
