<svg width="40" height="40" viewBox="0 0 40 40" fill="none" xmlns="http://www.w3.org/2000/svg">
<g clip-path="url(#clip0_46_300)">
<path d="M34.2334 36.5895V39.5739C34.2333 39.6869 34.1968 39.7952 34.1319 39.875C34.0671 39.9549 33.9791 39.9998 33.8874 39.9999H6.40219C6.31048 39.9997 6.22257 39.9547 6.15772 39.8749C6.09287 39.7951 6.05635 39.6869 6.05615 39.5739V35.7935C6.08878 35.7509 6.1214 35.7089 6.15502 35.6669C7.98074 33.3371 10.1789 31.4983 12.6107 30.2666C15.0426 29.0349 17.6554 28.4371 20.2843 28.5107C22.9132 28.5844 25.5012 29.3279 27.8851 30.6945C30.2689 32.0611 32.3968 34.0211 34.1345 36.4508C34.1681 36.4964 34.2008 36.5433 34.2334 36.5895Z" fill="#E2CBF3"/>
<path d="M25.1623 3.85029C25.1346 3.8296 25.1069 3.80952 25.0793 3.79004H22.1903C22.1696 3.83021 22.1498 3.87098 22.1305 3.91176H25.2453C25.2177 3.89106 25.19 3.87098 25.1623 3.85029ZM6.05615 15.8677V16.7745C6.06851 16.7757 6.08136 16.7757 6.09372 16.7763L6.069 18.5193L6.05615 18.5108V18.6824L6.06653 18.6891L6.05615 19.42V21.9395H6.15502V15.457C6.12734 15.5884 6.09438 15.7253 6.05615 15.8677V15.8677ZM25.1623 3.85029C25.1346 3.8296 25.1069 3.80952 25.0793 3.79004H22.1903C22.1696 3.83021 22.1498 3.87098 22.1305 3.91176H25.2453C25.2177 3.89106 25.19 3.87098 25.1623 3.85029ZM33.8874 3.79004H6.40219C6.31045 3.79017 6.22249 3.83509 6.15761 3.91495C6.09274 3.99482 6.05625 4.1031 6.05615 4.21604V39.574C6.05635 39.6869 6.09287 39.7952 6.15772 39.875C6.22257 39.9548 6.31048 39.9998 6.40219 40H33.8874C33.9791 39.9999 34.0671 39.955 34.1319 39.8751C34.1968 39.7953 34.2333 39.687 34.2334 39.574V4.21604C34.2333 4.1031 34.1968 3.99481 34.1319 3.91495C34.0671 3.83508 33.9791 3.79016 33.8874 3.79004V3.79004ZM34.1345 39.574C34.1345 39.6547 34.1085 39.7321 34.0621 39.7892C34.0158 39.8462 33.9529 39.8783 33.8874 39.8783H6.40219C6.33664 39.8783 6.27379 39.8462 6.22744 39.7892C6.18109 39.7321 6.15504 39.6547 6.15502 39.574V4.21604C6.15513 4.13538 6.1812 4.05806 6.22753 4.00103C6.27386 3.94399 6.33667 3.91189 6.40219 3.91176H33.8874C33.9529 3.91189 34.0157 3.94399 34.062 4.00103C34.1083 4.05806 34.1344 4.13538 34.1345 4.21604V39.574Z" fill="#3F3D56"/>
<path d="M17.452 35.2176L16.4716 35.2509C16.3227 35.2603 16.1754 35.2095 16.0522 35.1061C15.9457 35.0086 15.8969 34.8768 15.9183 34.7445L16.1112 33.5509C16.1475 33.3257 16.3717 33.1555 16.6441 33.1462L17.1855 33.1278C17.4579 33.1186 17.6893 33.2733 17.7357 33.4957L17.9819 34.6743C18.0092 34.805 17.9663 34.9399 17.8644 35.0445C17.746 35.1561 17.6011 35.2169 17.452 35.2176Z" fill="#3F3D56"/>
<path d="M23.4153 35.1836L22.4349 35.217C22.286 35.2264 22.1387 35.1755 22.0154 35.0722C21.909 34.9747 21.8601 34.8429 21.8815 34.7105L22.0744 33.517C22.1108 33.2918 22.3349 33.1216 22.6073 33.1123L23.1488 33.0939C23.4212 33.0846 23.6526 33.2394 23.699 33.4617L23.9451 34.6404C23.9724 34.7711 23.9296 34.906 23.8276 35.0106C23.7092 35.1222 23.5644 35.1829 23.4153 35.1836Z" fill="#3F3D56"/>
<path d="M14.0477 25.0506C14.0029 25.0268 13.9661 24.9849 13.9432 24.9319C13.9204 24.8788 13.913 24.8178 13.9222 24.7588C13.9314 24.6998 13.9566 24.6465 13.9938 24.6076C14.031 24.5687 14.0778 24.5467 14.1266 24.545L25.2723 24.1661C25.3004 24.1652 25.3284 24.171 25.3546 24.1834C25.3809 24.1957 25.4049 24.2143 25.4253 24.2381C25.4457 24.2619 25.4622 24.2904 25.4736 24.322C25.4851 24.3536 25.4914 24.3876 25.4922 24.4222V24.4222C25.4937 24.4921 25.4726 24.5598 25.4336 24.6106C25.3946 24.6613 25.3409 24.6909 25.2841 24.6929L25.2841 24.6929L14.1384 25.0718C14.1073 25.073 14.0763 25.0657 14.0477 25.0506Z" fill="#3F3D56"/>
<path d="M18.1612 20.5081L14.9752 20.6165L15.2723 33.8588L18.4582 33.7505L18.1612 20.5081Z" fill="#E6E6E6"/>
<path d="M18.242 20.2703L17.6295 22.3241L17.6301 31.6815L18.3763 31.9449L18.242 20.2703Z" fill="#CCCCCC"/>
<path d="M16.5515 17.0474C15.9555 17.0682 15.5007 18.3381 15.5117 18.8336L15.5318 19.7308L17.69 19.6574L17.6699 18.7603C17.6586 18.2647 17.1476 17.0277 16.5515 17.0474Z" fill="#3F3D56"/>
<path d="M15.0165 26.1003C14.9052 26.104 14.7972 26.0531 14.7163 25.9588C14.6354 25.8646 14.5881 25.7346 14.5849 25.5975L14.5522 24.1375C14.5491 24.0004 14.5904 23.8674 14.667 23.7677C14.7436 23.6681 14.8492 23.6099 14.9606 23.6062C15.072 23.6024 15.18 23.6532 15.261 23.7475C15.3419 23.8418 15.3891 23.9718 15.3922 24.109L15.425 25.569C15.4279 25.7061 15.3866 25.839 15.31 25.9386C15.2334 26.0382 15.1279 26.0964 15.0165 26.1003Z" fill="#3F3D56"/>
<path d="M15.825 20.6479L15.8099 19.683L16.0155 19.6768L16.0306 20.6385L16.2169 34.6567L16.0113 34.6637" fill="#3F3D56"/>
<path d="M18.5264 22.9042L14.8318 23.0298C14.4789 22.5001 14.4469 20.243 15.1833 19.8135L15.4721 19.2097L17.6987 19.0759L17.959 19.7116C18.3253 20.0953 18.5142 22.3383 18.5264 22.9042Z" fill="#E6E6E6"/>
<path d="M17.1359 21.8218L16.2016 21.8536C16.0213 21.8597 15.868 21.5718 15.86 21.2118C15.8519 20.8518 15.992 20.5539 16.1723 20.5477L17.1066 20.516C17.2869 20.5098 17.4402 20.7978 17.4483 21.1578C17.4563 21.5178 17.3162 21.8157 17.1359 21.8218Z" fill="#E2CBF3"/>
<path d="M15.3265 28.3333L13.4007 30.008L13.0642 33.7842L15.3109 32.8601L15.3265 28.3333Z" fill="#E6E6E6"/>
<path d="M24.3112 20.346L21.1252 20.4543L21.4223 33.6967L24.6082 33.5884L24.3112 20.346Z" fill="#E6E6E6"/>
<path d="M21.2015 20.3145L21.8571 22.3481L22.0538 31.7023L21.3133 31.9895L21.2015 20.3145Z" fill="#CCCCCC"/>
<path d="M25.9045 16.6695C26.1352 16.6695 26.3221 16.3609 26.3221 15.9801C26.3221 15.5994 26.1352 15.2908 25.9045 15.2908C25.6739 15.2908 25.4869 15.5994 25.4869 15.9801C25.4869 16.3609 25.6739 16.6695 25.9045 16.6695Z" fill="#E6E6E6"/>
<path d="M28.0874 26.7901C28.318 26.7901 28.505 26.4815 28.505 26.1007C28.505 25.72 28.318 25.4114 28.0874 25.4114C27.8568 25.4114 27.6698 25.72 27.6698 26.1007C27.6698 26.4815 27.8568 26.7901 28.0874 26.7901Z" fill="#E6E6E6"/>
<path d="M11.838 24.8553C12.0686 24.8553 12.2556 24.5466 12.2556 24.1659C12.2556 23.7852 12.0686 23.4766 11.838 23.4766C11.6074 23.4766 11.4204 23.7852 11.4204 24.1659C11.4204 24.5466 11.6074 24.8553 11.838 24.8553Z" fill="#E6E6E6"/>
<path d="M22.6394 16.8874C22.0434 16.9083 21.5886 18.1782 21.5996 18.6737L21.6197 19.5708L23.7779 19.4975L23.7578 18.6003C23.7465 18.1048 23.2355 16.8678 22.6394 16.8874Z" fill="#3F3D56"/>
<path d="M23.2565 20.95L23.2415 19.9851L23.447 19.9788L23.4621 20.9406L23.6484 34.9588L23.4428 34.9658" fill="#3F3D56"/>
<path d="M24.6144 22.7441L20.9198 22.8697C20.8554 22.3903 20.9387 20.1534 21.2713 19.6533L21.5601 19.0496L23.7867 18.9158L24.047 19.5514C24.7044 19.6174 24.9343 21.8155 24.6144 22.7441Z" fill="#E6E6E6"/>
<path d="M23.2282 21.8632L22.2939 21.8949C22.1136 21.901 21.9593 21.5679 21.95 21.1524C21.9407 20.7368 22.0798 20.3937 22.2601 20.3876L23.1944 20.3558C23.3747 20.3497 23.529 20.6828 23.5383 21.0984C23.5477 21.5139 23.4085 21.857 23.2282 21.8632Z" fill="#E2CBF3"/>
<path d="M24.4686 27.3652L26.3305 29.1464L26.5265 32.9376L24.3165 31.8882L24.4686 27.3652Z" fill="#E6E6E6"/>
<path d="M23.9487 9.80529C21.951 9.80529 19.655 7.07607 17.6237 8.3728C11.4734 12.2989 12.32 5.72916 10.5531 3.28582L10.6111 3.14258C11.9488 9.42414 13.1591 19.4336 17.6504 8.20618C18.7755 5.39374 22.468 9.741 24.6415 9.61275L24.6453 9.78492C24.4157 9.79856 24.1835 9.80534 23.9487 9.80529Z" fill="#F2F2F2"/>
<path d="M28.7436 10.1916C27.1511 11.6765 23.9823 11.2074 22.999 13.751C20.0217 21.4521 17.4746 15.5857 14.8678 14.9513L14.8438 14.794C17.4534 15.0604 20.2525 14.647 22.9386 13.5983C25.366 12.6507 27.5317 11.241 29.2014 9.52319L29.2889 9.65764C29.1126 9.83912 28.9308 10.0171 28.7436 10.1916Z" fill="#F2F2F2"/>
<path d="M11.4204 9.85333C11.651 9.85333 11.838 9.54469 11.838 9.16397C11.838 8.78325 11.651 8.47461 11.4204 8.47461C11.1898 8.47461 11.0028 8.78325 11.0028 9.16397C11.0028 9.54469 11.1898 9.85333 11.4204 9.85333Z" fill="#E6E6E6"/>
<path d="M24.3721 4.25469C24.6027 4.25469 24.7896 3.94606 24.7896 3.56533C24.7896 3.18461 24.6027 2.87598 24.3721 2.87598C24.1414 2.87598 23.9545 3.18461 23.9545 3.56533C23.9545 3.94606 24.1414 4.25469 24.3721 4.25469Z" fill="#E6E6E6"/>
<path d="M11.0028 18.7034C11.2334 18.7034 11.4204 18.3948 11.4204 18.0141C11.4204 17.6333 11.2334 17.3247 11.0028 17.3247C10.7722 17.3247 10.5852 17.6333 10.5852 18.0141C10.5852 18.3948 10.7722 18.7034 11.0028 18.7034Z" fill="#E6E6E6"/>
<path d="M15.2436 12.6356C15.0527 12.7922 14.8573 12.4195 15.0518 12.2698C15.2427 12.1133 15.4381 12.486 15.2436 12.6356Z" fill="#E6E6E6"/>
<path d="M22.3125 0.403433C22.1216 0.56003 21.9262 0.187315 22.1208 0.0376711C22.3117 -0.118918 22.5071 0.253798 22.3125 0.403433Z" fill="#E6E6E6"/>
<path d="M26.4788 7.6559L26.3573 7.62309L26.3839 7.47351L26.3029 7.45166L26.2763 7.60125L26.1548 7.56851L26.1371 7.66819L26.2585 7.70099L26.2319 7.85052L26.3129 7.87237L26.3396 7.72278L26.461 7.75558L26.4788 7.6559Z" fill="#E6E6E6"/>
<path d="M15.3456 2.64369C15.6378 2.64369 15.8746 2.35209 15.8746 1.99238C15.8746 1.63267 15.6378 1.34106 15.3456 1.34106C15.0534 1.34106 14.8165 1.63267 14.8165 1.99238C14.8165 2.35209 15.0534 2.64369 15.3456 2.64369Z" fill="#FF6584"/>
<path d="M19.2152 1.16796C18.6192 1.1888 18.1644 2.45869 18.1754 2.95423L18.1955 3.85136L20.3537 3.77799L20.3336 2.88086C20.3223 2.38533 19.8113 1.14827 19.2152 1.16796Z" fill="#3F3D56"/>
<path d="M20.5004 35.1394L19.52 35.1728C19.3711 35.1822 19.2237 35.1313 19.1005 35.028C18.994 34.9305 18.9452 34.7987 18.9666 34.6664L19.1595 33.4728C19.1959 33.2476 19.42 33.0774 19.6924 33.0681L20.2338 33.0497C20.5062 33.0405 20.7377 33.1952 20.7841 33.4175L21.0302 34.5962C21.0575 34.7269 21.0146 34.8618 20.9127 34.9664C20.7943 35.078 20.6495 35.1387 20.5004 35.1394Z" fill="#3F3D56"/>
<path d="M20.9376 6.879L17.7516 6.9873L18.352 33.7552L21.538 33.6469L20.9376 6.879Z" fill="#E6E6E6"/>
<path d="M19.6628 19.8364L19.6477 18.8715L19.8533 18.8652L19.8683 19.827L20.0546 33.8452L19.8491 33.8522" fill="#3F3D56"/>
<path d="M21.5648 9.32889L17.248 9.47564C17.1727 8.91554 17.2701 6.30194 17.6587 5.71757L17.7652 5.02003L20.7459 4.9187L20.9018 5.59854C21.3299 6.04693 21.5506 8.66763 21.5648 9.32889Z" fill="#E6E6E6"/>
<path d="M20.8401 5.00107L17.7642 5.10563C17.6507 5.10949 17.557 5.03611 17.5548 4.94172C17.5546 4.92813 17.5562 4.91457 17.5596 4.90165L18.0374 3.08962C18.0579 3.01202 18.1393 2.95504 18.2343 2.95181L20.2742 2.88247C20.3693 2.87924 20.4531 2.9306 20.477 3.00669L21.0353 4.7835C21.0639 4.87438 20.9979 4.96895 20.888 4.99472C20.8722 4.99841 20.8562 5.00053 20.8401 5.00107Z" fill="#E6E6E6"/>
<path d="M18.0676 19.7133C18.0399 19.6987 18.0136 19.68 17.9895 19.6576C17.9549 19.6277 17.9263 19.5885 17.9059 19.5429C17.8855 19.4973 17.8739 19.4466 17.8719 19.3946L17.7601 14.4118C17.7555 14.2055 17.9196 14.032 18.1258 14.025L20.8794 13.9314C21.0857 13.9243 21.2572 14.0865 21.2619 14.2928L21.3736 19.2756C21.374 19.3277 21.3646 19.3791 21.3463 19.426C21.328 19.4729 21.3012 19.514 21.268 19.5462C21.1945 19.6199 21.1028 19.6609 21.0079 19.6624L18.2544 19.756C18.1903 19.7586 18.1266 19.7441 18.0676 19.7133Z" fill="#3F3D56"/>
<path d="M19.8301 4.68023L18.8958 4.712C18.7155 4.71812 18.5631 4.46736 18.556 4.15307C18.549 3.83878 18.69 3.57804 18.8703 3.57191L19.8046 3.54015C19.9849 3.53402 20.1373 3.78479 20.1444 4.09907C20.1514 4.41336 20.0104 4.67411 19.8301 4.68023Z" fill="#E2CBF3"/>
<path d="M24.3901 25.777C24.2787 25.7806 24.1707 25.7297 24.0898 25.6355C24.0089 25.5412 23.9616 25.4113 23.9584 25.2742L23.9257 23.8142C23.9227 23.6771 23.964 23.5442 24.0406 23.4446C24.1172 23.345 24.2228 23.2869 24.3341 23.2832C24.4455 23.2794 24.5535 23.3302 24.6344 23.4244C24.7154 23.5186 24.7626 23.6485 24.7657 23.7856L24.7985 25.2456C24.8014 25.3827 24.7601 25.5157 24.6835 25.6153C24.607 25.7149 24.5014 25.7731 24.3901 25.777Z" fill="#3F3D56"/>
<path d="M9.0439 29.9171C8.53739 29.9171 8.20811 29.7622 8.06236 29.4542C7.77496 28.8468 8.25631 27.781 9.49302 26.2865L9.59691 26.4168C8.44813 27.8051 7.94865 28.8511 8.19049 29.3623C8.34352 29.6856 8.79895 29.8015 9.50782 29.6973C10.2115 29.5938 11.1441 29.2856 12.2797 28.7811C14.6174 27.7424 17.5504 25.9904 20.5383 23.8477C23.5261 21.7051 26.2109 19.4285 28.0981 17.4373C28.4605 17.0548 28.7895 16.6868 29.0758 16.3437C29.4517 15.9042 29.7984 15.4284 30.1127 14.921C30.536 14.2134 30.6789 13.6685 30.5259 13.3451C30.2703 12.805 29.1967 12.8558 27.5027 13.4883L27.4597 13.3136C29.2772 12.6351 30.3519 12.6147 30.654 13.2532C30.8417 13.6499 30.6998 14.2475 30.2322 15.0293C29.913 15.5447 29.5609 16.028 29.1793 16.4745C28.8907 16.8203 28.5594 17.1909 28.1946 17.5759C26.3008 19.5741 23.6082 21.8575 20.6129 24.0054C17.6176 26.1535 14.6759 27.9105 12.33 28.9528C11.1839 29.462 10.2403 29.7735 9.52539 29.8785C9.36565 29.9031 9.20487 29.916 9.0439 29.9171Z" fill="#3F3D56"/>
<path d="M20.9238 8.47461L22.7855 10.2558L22.9816 14.047L20.7716 12.9976L20.9238 8.47461Z" fill="#E6E6E6"/>
<path d="M18.1112 8.47461L16.2494 10.2558L16.0533 14.047L18.2633 12.9976L18.1112 8.47461Z" fill="#E6E6E6"/>
<path d="M19.1618 5.70993L19.1467 4.74504L19.3523 4.73877L19.3674 5.70062L19.5537 7.54739L19.3481 7.55439" fill="#3F3D56"/>
<path d="M9.78256 13.3638C9.97496 13.2721 10.0889 13.0642 10.0371 12.8994C9.98531 12.7347 9.78734 12.6754 9.59495 12.7671C9.40255 12.8588 9.28858 13.0667 9.34039 13.2314C9.3922 13.3962 9.59017 13.4555 9.78256 13.3638Z" fill="#E6E6E6"/>
<path d="M12.2051 12.9812C12.3974 12.8895 12.5114 12.6816 12.4596 12.5169C12.4078 12.3521 12.2098 12.2928 12.0174 12.3845C11.825 12.4762 11.7111 12.6841 11.7629 12.8489C11.8147 13.0136 12.0127 13.0729 12.2051 12.9812Z" fill="#E6E6E6"/>
<path d="M9.57248 15.908C9.76488 15.8163 9.87885 15.6084 9.82704 15.4436C9.77523 15.2788 9.57726 15.2196 9.38486 15.3113C9.19247 15.403 9.0785 15.6109 9.13031 15.7756C9.18212 15.9404 9.38009 15.9997 9.57248 15.908Z" fill="#E6E6E6"/>
<path d="M8.87172 17.0303C8.95999 17.0046 9.00719 16.8571 8.97716 16.7009C8.94713 16.5447 8.85123 16.4389 8.76297 16.4647C8.6747 16.4904 8.62749 16.6379 8.65753 16.7941C8.68756 16.9503 8.78346 17.056 8.87172 17.0303Z" fill="#E6E6E6"/>
<path d="M8.85732 18.9305C8.94558 18.9047 8.99279 18.7573 8.96276 18.6011C8.93273 18.4449 8.83683 18.3391 8.74856 18.3648C8.6603 18.3905 8.61309 18.538 8.64312 18.6942C8.67315 18.8504 8.76905 18.9562 8.85732 18.9305Z" fill="#E6E6E6"/>
<path d="M10.9834 14.9949C11.0717 14.9692 11.1189 14.8217 11.0889 14.6655C11.0588 14.5093 10.9629 14.4035 10.8747 14.4293C10.7864 14.455 10.7392 14.6025 10.7692 14.7587C10.7993 14.9149 10.8952 15.0206 10.9834 14.9949Z" fill="#E6E6E6"/>
<path d="M9.70754 14.6136C9.7958 14.5879 9.84301 14.4404 9.81298 14.2842C9.78295 14.128 9.68705 14.0222 9.59878 14.0479C9.51052 14.0736 9.46331 14.2211 9.49334 14.3773C9.52337 14.5335 9.61927 14.6393 9.70754 14.6136Z" fill="#E6E6E6"/>
<path d="M11.0598 12.8638C11.1481 12.8381 11.1953 12.6906 11.1653 12.5344C11.1352 12.3782 11.0393 12.2724 10.9511 12.2982C10.8628 12.3239 10.8156 12.4714 10.8456 12.6276C10.8757 12.7838 10.9716 12.8895 11.0598 12.8638Z" fill="#E6E6E6"/>
<path d="M30.9634 21.9477C31.1627 21.8823 31.2944 21.6909 31.2574 21.5202C31.2205 21.3495 31.029 21.264 30.8296 21.3294C30.6302 21.3948 30.4986 21.5862 30.5355 21.7569C30.5724 21.9276 30.764 22.013 30.9634 21.9477Z" fill="#E6E6E6"/>
<path d="M28.5215 22.0033C28.7208 21.938 28.8525 21.7466 28.8156 21.5759C28.7786 21.4051 28.5871 21.3197 28.3877 21.3851C28.1883 21.4504 28.0567 21.6418 28.0936 21.8126C28.1305 21.9833 28.3221 22.0687 28.5215 22.0033Z" fill="#E6E6E6"/>
<path d="M31.3972 19.4467C31.5965 19.3813 31.7282 19.19 31.6913 19.0192C31.6544 18.8485 31.4628 18.7631 31.2634 18.8284C31.0641 18.8938 30.9324 19.0852 30.9693 19.2559C31.0063 19.4266 31.1978 19.5121 31.3972 19.4467Z" fill="#E6E6E6"/>
<path d="M32.1173 18.3835C32.2073 18.3698 32.2673 18.2295 32.2513 18.0702C32.2352 17.9109 32.1492 17.7929 32.0592 17.8067C31.9692 17.8204 31.9092 17.9607 31.9253 18.12C31.9413 18.2793 32.0273 18.3973 32.1173 18.3835Z" fill="#E6E6E6"/>
<path d="M32.2997 16.4966C32.3897 16.4828 32.4497 16.3426 32.4336 16.1833C32.4176 16.024 32.3316 15.906 32.2416 15.9197C32.1516 15.9334 32.0916 16.0737 32.1077 16.233C32.1237 16.3923 32.2097 16.5103 32.2997 16.4966Z" fill="#E6E6E6"/>
<path d="M29.8383 20.124C29.9283 20.1103 29.9883 19.97 29.9722 19.8107C29.9562 19.6514 29.8702 19.5334 29.7802 19.5471C29.6902 19.5609 29.6302 19.7012 29.6462 19.8605C29.6623 20.0198 29.7483 20.1377 29.8383 20.124Z" fill="#E6E6E6"/>
<path d="M31.0728 20.6741C31.1628 20.6603 31.2227 20.52 31.2067 20.3607C31.1907 20.2015 31.1047 20.0835 31.0147 20.0972C30.9247 20.1109 30.8647 20.2512 30.8807 20.4105C30.8968 20.5698 30.9828 20.6878 31.0728 20.6741Z" fill="#E6E6E6"/>
<path d="M29.5739 22.2322C29.6639 22.2184 29.7238 22.0782 29.7078 21.9189C29.6918 21.7596 29.6058 21.6416 29.5158 21.6553C29.4258 21.669 29.3658 21.8093 29.3818 21.9686C29.3979 22.1279 29.4838 22.2459 29.5739 22.2322Z" fill="#E6E6E6"/>
<path d="M35.5256 31.8427C34.8873 31.8427 34.1877 31.813 33.4268 31.7536C29.4912 31.4459 24.3934 30.3762 19.0725 28.7416C13.7515 27.107 8.84312 25.1027 5.2515 23.0981C3.50191 22.1215 2.15911 21.1971 1.26044 20.3505C0.308989 19.4543 -0.10719 18.6731 0.0234178 18.0287C0.277903 16.7732 2.53124 16.4986 4.37675 16.4893L4.37738 16.6718C1.84301 16.6846 0.347853 17.1822 0.167328 18.0729C-0.0626301 19.2073 1.81281 20.9782 5.31274 22.9318C8.89647 24.9321 13.7958 26.9325 19.1084 28.5645C24.4209 30.1965 29.5093 31.2643 33.4362 31.5714C37.2712 31.8713 39.6028 31.3926 39.8327 30.2582C40.0236 29.3163 38.765 27.9289 36.2888 26.3513L36.357 26.1891C38.1562 27.3354 40.2447 28.9795 39.9766 30.3024C39.846 30.9468 39.1805 31.3957 37.9985 31.6366C37.3248 31.7738 36.4972 31.8427 35.5256 31.8427Z" fill="#E2CBF3"/>
</g>
<defs>
<clipPath id="clip0_46_300">
<rect width="40" height="40" fill="white"/>
</clipPath>
</defs>
</svg>
