<svg width="165" height="113" viewBox="0 0 165 113" fill="none" xmlns="http://www.w3.org/2000/svg">
<g clip-path="url(#clip0_46_363)">
<path d="M82.2769 52.0245C85.1812 52.0245 87.5356 49.7349 87.5356 46.9106C87.5356 44.0862 85.1812 41.7966 82.2769 41.7966C79.3726 41.7966 77.0182 44.0862 77.0182 46.9106C77.0182 49.7349 79.3726 52.0245 82.2769 52.0245Z" fill="#E2CBF3"/>
<path d="M24.8359 6.72486V55.4292C24.8374 56.6124 25.3214 57.7467 26.1817 58.5834C27.042 59.42 28.2085 59.8907 29.4252 59.8921H160.411C161.628 59.8907 162.794 59.42 163.654 58.5834C164.515 57.7467 164.999 56.6124 165 55.4292V6.72486C164.999 5.54166 164.515 4.40734 163.654 3.57069C162.794 2.73404 161.628 2.26339 160.411 2.26196H29.4252C28.2085 2.26339 27.042 2.73404 26.1817 3.57069C25.3214 4.40733 24.8374 5.54166 24.8359 6.72486ZM25.2405 6.72486C25.2405 5.64555 25.6813 4.61046 26.4661 3.84728C27.2509 3.0841 28.3153 2.65534 29.4252 2.65534H133.109C141.46 2.65534 149.469 5.88135 155.373 11.6237C161.278 17.366 164.596 25.1543 164.596 33.2752V55.4292C164.596 56.5085 164.155 57.5436 163.37 58.3068C162.585 59.07 161.521 59.4987 160.411 59.4987H29.4252C28.3153 59.4987 27.2509 59.07 26.4661 58.3068C25.6813 57.5436 25.2405 56.5085 25.2405 55.4292V6.72486Z" fill="#3F3D56"/>
<path d="M26.3462 109.336L29.2803 109.336L30.6761 98.3298L26.3456 98.3302L26.3462 109.336Z" fill="#FFB6B6"/>
<path d="M26.2428 112.313L35.2656 112.312V112.201C35.2656 111.296 34.8955 110.427 34.2369 109.787C33.5783 109.146 32.6851 108.786 31.7537 108.786H31.7535L30.1054 107.57L27.0303 108.786L26.2427 108.786L26.2428 112.313Z" fill="#2F2E41"/>
<path d="M13.547 109.336L16.4811 109.336L17.8769 98.3298L13.5464 98.3302L13.547 109.336Z" fill="#FFB6B6"/>
<path d="M13.4438 112.313L22.4666 112.312V112.201C22.4665 111.296 22.0965 110.427 21.4379 109.787C20.7793 109.146 19.886 108.786 18.9546 108.786H18.9544L17.3063 107.57L14.2312 108.786L13.4436 108.786L13.4438 112.313Z" fill="#2F2E41"/>
<path d="M33.6519 49.3677C33.6519 49.3677 36.4749 57.7995 35.9538 58.9093C35.4328 60.019 34.5437 59.1545 35.4328 60.019C36.3218 60.8836 37.0979 59.9646 36.2653 61.4327C35.4328 62.9009 34.1715 74.9874 33.6167 75.5724C33.062 76.1575 32.2993 76.1732 32.977 76.7418C33.6547 77.3103 34.5437 76.1575 33.6547 77.3103C32.7657 78.463 30.4066 105.056 30.4066 105.056H25.7981C25.7981 105.056 24.6503 103.769 25.3 102.932C25.9497 102.094 25.243 101.772 25.3 101.213C25.357 100.653 25.141 99.448 25.1008 98.898C25.0607 98.348 24.2819 85.2444 26.153 77.675L22.741 63.2621L18.6079 80.682C18.6079 80.682 20.5091 95.2936 18.6079 99.9908C18.6079 99.9908 20.1407 101.232 19.4609 101.951C18.7811 102.671 18.1885 102.094 18.7811 102.671C19.3738 103.247 17.8921 105.264 17.8921 105.264L12.8543 104.976L10.0028 77.675C10.0028 77.675 9.52214 74.8278 10.0028 74.3399C10.4835 73.852 10.4835 75.5811 10.4835 73.852V71.5465C10.4835 71.5465 10.7619 57.3663 10.7991 56.5313C10.8362 55.6962 14.3923 49.6443 14.3923 49.6443L33.6519 49.3677Z" fill="#2F2E41"/>
<path d="M33.6098 20.2454V36.8716C33.0579 38.4815 32.7732 40.1666 32.7664 41.8636C32.7846 44.69 33.4237 47.9472 33.4217 49.3712C33.4302 49.5601 33.409 49.7491 33.359 49.9318C30.5294 57.9076 15.5563 50.6596 14.1951 49.981C14.1304 49.9495 14.096 49.9318 14.096 49.9318L14.3913 40.9981L14.3407 38.4294L13.9908 20.8079L14.3043 20.564L17.051 18.4339L17.32 18.2254L18.1452 19.3957L25.5013 18.904L28.3086 18.1487L29.1844 18.4949L33.1324 20.0566L33.6098 20.2454Z" fill="#E2CBF3"/>
<path d="M59.2467 33.3105L54.0918 31.6531L52.7073 34.3847L58.2216 35.9485C58.4018 36.2267 58.6583 36.4505 58.9621 36.5947C59.266 36.7389 59.6052 36.7979 59.9416 36.7649C60.278 36.7319 60.5983 36.6083 60.8664 36.4081C61.1346 36.2078 61.34 35.9387 61.4595 35.6311C61.5791 35.3236 61.608 34.9897 61.5431 34.667C61.4782 34.3443 61.322 34.0456 61.0921 33.8045C60.8622 33.5634 60.5677 33.3894 60.2417 33.3021C59.9157 33.2149 59.5711 33.2178 59.2468 33.3105H59.2467Z" fill="#FFB6B6"/>
<path d="M28.6163 18.6282L28.5949 18.7112C28.1921 20.2783 27.6778 24.7545 28.7799 25.9632C30.1951 27.5172 41.6266 32.2614 43.8976 31.8749C45.6589 31.5751 45.2963 31.6758 46.139 32.5284C46.9817 33.381 45.583 33.5801 47.4628 33.7293C49.3426 33.8785 49.3801 33.1785 49.7827 33.9548C50.1853 34.7311 49.8271 35.1989 51.1065 35.1557C52.3858 35.1125 52.7065 35.3447 53.1466 35.421C53.5867 35.4973 56.3502 36.7711 56.3502 36.7711C56.3502 36.7711 57.4588 33.6956 58.854 32.5244C58.854 32.5244 55.6539 32.1463 55.4117 31.4861C55.1694 30.8259 55.3673 30.242 54.528 30.3615C53.6888 30.481 53.2521 31.3767 53.3681 30.2487C53.484 29.1207 47.4385 26.9247 47.4385 26.9247C43.7901 23.4315 36.2942 21.0046 28.6163 18.6282Z" fill="#E2CBF3"/>
<path d="M12.2609 53.3522L12.027 48.0772L8.90967 47.7866L9.36095 53.3552C9.15735 53.6177 9.0331 53.9303 9.00214 54.2577C8.97119 54.5851 9.03477 54.9145 9.18573 55.2087C9.3367 55.5029 9.56906 55.7503 9.8567 55.9232C10.1443 56.096 10.4759 56.1874 10.814 56.187C11.1521 56.1867 11.4834 56.0946 11.7707 55.9212C12.0579 55.7478 12.2898 55.4999 12.4401 55.2054C12.5904 54.9108 12.6533 54.5814 12.6216 54.254C12.59 53.9266 12.465 53.6143 12.2609 53.3522Z" fill="#FFB6B6"/>
<path d="M15.5195 20.2944L15.4321 20.3044C14.6195 20.3977 13.8426 20.6821 13.1685 21.1331C12.4944 21.5841 11.9436 22.1881 11.5636 22.8927C10.571 24.7305 7.43101 37.1778 8.19985 38.886C8.91685 40.479 8.88719 40.0873 8.36615 41.1559C7.8451 42.2244 7.15776 41.0231 7.68072 42.7853C8.20367 44.5476 8.89005 44.3335 8.28634 44.9748C7.68263 45.6161 7.10584 45.4562 7.60091 46.6042C8.09598 47.7523 7.98639 48.1262 8.06906 48.5534C8.15174 48.9807 7.90658 51.9451 7.90658 51.9451C7.90658 51.9451 11.2568 51.8629 12.8776 52.7164C12.8776 52.7164 12.1066 49.6725 12.6555 49.2181C13.2044 48.7638 13.836 48.7367 13.4236 48.0159C13.0112 47.2951 11.9951 47.2157 13.1208 46.9212C14.2465 46.6267 14.2148 40.351 14.2148 40.351L15.5195 20.2944Z" fill="#E2CBF3"/>
<path d="M23.5515 13.5717C23.42 13.6012 23.2886 13.6268 23.1571 13.6464C22.7555 13.7106 22.3478 13.731 21.9415 13.7074C20.8833 13.6522 19.8615 13.3129 18.9894 12.7274C18.1173 12.1418 17.429 11.3328 17.0009 10.39C16.5728 9.44725 16.4216 8.40759 16.564 7.38634C16.7064 6.3651 17.137 5.40217 17.8078 4.60435C18.4787 3.80653 19.3637 3.205 20.3646 2.86647C21.3656 2.52794 22.4434 2.46564 23.4786 2.68648C24.5137 2.90733 25.4657 3.40267 26.229 4.1176C26.9924 4.83252 27.5371 5.73908 27.803 6.73673C27.8151 6.78197 27.8272 6.82524 27.8373 6.87048C28.1824 8.31178 27.9248 9.82737 27.1211 11.084C26.3174 12.3406 25.0335 13.2355 23.5515 13.5717Z" fill="#FFB6B6"/>
<path d="M18.256 12.9132C17.458 12.3058 17.3806 11.1482 16.6996 10.4184C15.561 9.19829 15.026 7.88563 15.6225 6.4399C16.15 5.1612 16.0379 3.58936 17.1741 2.76628C16.616 2.56984 16.4847 2.16189 16.9771 2.15435C17.3091 2.14928 18.5469 2.76639 17.9513 1.99763C17.3557 1.22887 18.4831 1.53231 18.4085 1.21763C18.334 0.902953 17.8558 0.728662 17.6449 0.978104C18.3182 0.210893 19.7886 0.374462 20.2663 1.26972C20.9374 0.291633 21.6498 -0.38138 22.6767 0.23931C23.6853 0.848921 23.6721 1.60249 24.7567 1.42139C25.2666 1.33625 25.3148 2.27305 25.6631 2.64503C26.0114 3.01701 26.5206 3.3049 27.0289 3.21148C27.5373 3.11805 27.926 2.50198 27.6411 2.08201L28.8393 4.74012L29.3221 4.16413C30.0894 4.6504 29.8374 5.91927 29.0651 6.3979C28.2927 6.87653 26.8188 5.77026 26.3996 6.56212C25.7389 7.81035 24.189 7.18003 23.1246 6.29791C21.8338 5.22811 20.2758 8.48084 20.8976 10.0151C20.2525 9.39905 19.059 9.91032 18.7248 10.7273C18.3906 11.5444 18.6356 12.4649 18.8834 13.3105L18.256 12.9132Z" fill="#2F2E41"/>
<path d="M97.9771 31.2791H91.9058C91.7483 31.2789 91.5973 31.218 91.4859 31.1096C91.3745 31.0013 91.3118 30.8544 91.3116 30.7013V24.8691C91.3118 24.7159 91.3745 24.569 91.4859 24.4607C91.5973 24.3524 91.7483 24.2914 91.9058 24.2913H97.9771C98.1347 24.2914 98.2857 24.3524 98.3971 24.4607C98.5085 24.569 98.5712 24.7159 98.5713 24.8691V30.7013C98.5712 30.8544 98.5085 31.0013 98.3971 31.1096C98.2857 31.218 98.1347 31.2789 97.9771 31.2791Z" fill="#F2F2F2"/>
<path d="M98.988 31.7705H92.9167C92.7592 31.7704 92.6081 31.7094 92.4967 31.6011C92.3853 31.4928 92.3227 31.3459 92.3225 31.1927V25.3606C92.3227 25.2074 92.3853 25.0605 92.4967 24.9521C92.6081 24.8438 92.7592 24.7829 92.9167 24.7827H98.988C99.1455 24.7829 99.2966 24.8438 99.4079 24.9521C99.5193 25.0605 99.582 25.2074 99.5822 25.3606V31.1927C99.582 31.3459 99.5194 31.4928 99.408 31.6011C99.2966 31.7094 99.1455 31.7704 98.988 31.7705Z" fill="#F2F2F2"/>
<path d="M92.0332 24.4634C91.8888 24.4634 91.7503 24.5192 91.6482 24.6184C91.5461 24.7177 91.4888 24.8524 91.4888 24.9928V30.5775C91.4888 30.7179 91.5461 30.8525 91.6482 30.9518C91.7503 31.0511 91.8888 31.1069 92.0332 31.1069H95.7456C96.4481 31.1069 97.1218 30.8355 97.6186 30.3524C98.1153 29.8694 98.3943 29.2142 98.3943 28.531V24.9928C98.3943 24.8524 98.337 24.7177 98.2349 24.6184C98.1328 24.5192 97.9943 24.4634 97.85 24.4634H92.0332Z" fill="white"/>
<path d="M96.5675 26.1582H93.3027C93.2727 26.1582 93.244 26.1466 93.2228 26.126C93.2016 26.1054 93.1897 26.0775 93.1897 26.0483C93.1897 26.0192 93.2016 25.9913 93.2228 25.9706C93.244 25.95 93.2727 25.9385 93.3027 25.9385H96.5675C96.5975 25.9385 96.6262 25.95 96.6474 25.9706C96.6686 25.9913 96.6805 26.0192 96.6805 26.0483C96.6805 26.0775 96.6686 26.1054 96.6474 26.126C96.6262 26.1466 96.5975 26.1582 96.5675 26.1582Z" fill="#F2F2F2"/>
<path d="M96.5675 28.5007H93.3027C93.2727 28.5007 93.244 28.4891 93.2228 28.4685C93.2016 28.4479 93.1897 28.42 93.1897 28.3909C93.1897 28.3617 93.2016 28.3338 93.2228 28.3132C93.244 28.2926 93.2727 28.281 93.3027 28.281H96.5675C96.5975 28.281 96.6262 28.2926 96.6474 28.3132C96.6686 28.3338 96.6805 28.3617 96.6805 28.3909C96.6805 28.42 96.6686 28.4479 96.6474 28.4685C96.6262 28.4891 96.5975 28.5007 96.5675 28.5007Z" fill="#F2F2F2"/>
<path d="M97.8934 27.3303H91.977C91.947 27.3303 91.9183 27.3187 91.8971 27.2981C91.8759 27.2775 91.864 27.2496 91.864 27.2204C91.864 27.1913 91.8759 27.1634 91.8971 27.1428C91.9183 27.1222 91.947 27.1106 91.977 27.1106H97.8934C97.9234 27.1106 97.9521 27.1222 97.9733 27.1428C97.9945 27.1634 98.0064 27.1913 98.0064 27.2204C98.0064 27.2496 97.9945 27.2775 97.9733 27.2981C97.9521 27.3187 97.9234 27.3303 97.8934 27.3303Z" fill="#F2F2F2"/>
<path d="M97.9538 29.4531H95.8164C95.7865 29.4531 95.7578 29.4415 95.7366 29.4209C95.7154 29.4003 95.7035 29.3724 95.7035 29.3433C95.7035 29.3141 95.7154 29.2862 95.7366 29.2656C95.7578 29.245 95.7865 29.2334 95.8164 29.2334H97.9538C97.9837 29.2334 98.0125 29.245 98.0337 29.2656C98.0548 29.2862 98.0667 29.3141 98.0667 29.3433C98.0667 29.3724 98.0548 29.4003 98.0337 29.4209C98.0125 29.4415 97.9837 29.4531 97.9538 29.4531Z" fill="#F2F2F2"/>
<path d="M79.667 34.9299L79.5881 34.8921C74.9811 32.6771 69.9971 32.6791 64.3518 34.8981L64.2003 34.5334C69.9263 32.2829 74.9938 32.2722 79.6882 34.5016C86.2945 32.0567 90.5415 27.9131 92.3123 22.1841L92.6998 22.2974C90.8834 28.1733 86.5262 32.4134 79.7492 34.8998L79.667 34.9299Z" fill="#F2F2F2"/>
<path d="M98.8856 34.9299L98.8063 34.8937C94.2785 32.8279 89.2916 32.8298 83.5608 34.9001L83.4198 34.5313C89.2236 32.4346 94.2882 32.4245 98.8986 34.5015C106.295 31.6274 110.542 27.491 111.521 22.2058L111.919 22.2755C110.91 27.7226 106.552 31.9696 98.9669 34.8985L98.8856 34.9299Z" fill="#F2F2F2"/>
<path d="M114.032 34.7207L113.982 34.6998C110.251 33.1401 105.397 33.1434 98.707 34.7104L98.6122 34.3279C105.362 32.7471 110.282 32.7433 114.091 34.3176C121.651 33.4185 125.773 29.3956 126.689 22.0205L127.091 22.0678C126.146 29.6666 121.892 33.8035 114.086 34.7144L114.032 34.7207Z" fill="#F2F2F2"/>
<path d="M94.2101 23.1111C95.1037 23.1111 95.8282 22.4067 95.8282 21.5376C95.8282 20.6686 95.1037 19.9641 94.2101 19.9641C93.3165 19.9641 92.592 20.6686 92.592 21.5376C92.592 22.4067 93.3165 23.1111 94.2101 23.1111Z" fill="#E2CBF3"/>
<path d="M112.413 23.1111C113.307 23.1111 114.031 22.4067 114.031 21.5376C114.031 20.6686 113.307 19.9641 112.413 19.9641C111.52 19.9641 110.795 20.6686 110.795 21.5376C110.795 22.4067 111.52 23.1111 112.413 23.1111Z" fill="#E2CBF3"/>
<path d="M126.976 22.9144C127.869 22.9144 128.594 22.2099 128.594 21.3409C128.594 20.4718 127.869 19.7673 126.976 19.7673C126.082 19.7673 125.358 20.4718 125.358 21.3409C125.358 22.2099 126.082 22.9144 126.976 22.9144Z" fill="#E2CBF3"/>
<path d="M81.8707 46.9156H64.8626C64.4212 46.9151 63.9981 46.7444 63.6861 46.4409C63.374 46.1375 63.1985 45.726 63.198 45.2968V28.9586C63.1985 28.5294 63.374 28.118 63.6861 27.8145C63.9981 27.511 64.4212 27.3403 64.8626 27.3398H81.8707C82.312 27.3403 82.7352 27.511 83.0472 27.8145C83.3593 28.118 83.5348 28.5294 83.5353 28.9586V45.2968C83.5348 45.726 83.3593 46.1375 83.0472 46.4409C82.7352 46.7444 82.312 46.9151 81.8707 46.9156Z" fill="#E6E6E6"/>
<path d="M79.0391 45.5389H62.0309C61.5896 45.5384 61.1665 45.3677 60.8544 45.0642C60.5424 44.7608 60.3668 44.3493 60.3663 43.9201V27.5819C60.3668 27.1527 60.5424 26.7413 60.8544 26.4378C61.1665 26.1343 61.5896 25.9636 62.0309 25.9631H79.0391C79.4804 25.9636 79.9035 26.1343 80.2156 26.4378C80.5276 26.7413 80.7032 27.1527 80.7036 27.5819V43.9201C80.7032 44.3493 80.5276 44.7608 80.2156 45.0642C79.9035 45.3677 79.4804 45.5384 79.0391 45.5389Z" fill="#E6E6E6"/>
<path d="M65.1984 26.4453C64.0484 26.4453 62.9455 26.8896 62.1323 27.6804C61.3191 28.4712 60.8623 29.5437 60.8623 30.662V43.5733C60.8623 43.7681 60.9017 43.961 60.9784 44.1409C61.055 44.3208 61.1674 44.4843 61.309 44.622C61.4506 44.7598 61.6187 44.869 61.8037 44.9435C61.9888 45.0181 62.1871 45.0564 62.3874 45.0564H72.7874C73.7618 45.0564 74.7267 44.8698 75.627 44.5071C76.5273 44.1445 77.3453 43.613 78.0343 42.9429C78.7234 42.2728 79.2699 41.4773 79.6428 40.6019C80.0157 39.7264 80.2077 38.788 80.2077 37.8404V27.9284C80.2077 27.5351 80.047 27.1578 79.761 26.8797C79.475 26.6016 79.0871 26.4453 78.6826 26.4453H65.1984Z" fill="white"/>
<path d="M75.0903 31.1933H65.9441C65.8602 31.1933 65.7797 31.1609 65.7204 31.1032C65.661 31.0455 65.6277 30.9672 65.6277 30.8856C65.6277 30.804 65.661 30.7257 65.7204 30.668C65.7797 30.6103 65.8602 30.5779 65.9441 30.5779H75.0903C75.1742 30.5779 75.2547 30.6103 75.3141 30.668C75.3734 30.7257 75.4068 30.804 75.4068 30.8856C75.4068 30.9672 75.3734 31.0455 75.3141 31.1032C75.2547 31.1609 75.1742 31.1933 75.0903 31.1933Z" fill="#E6E6E6"/>
<path d="M75.0903 37.7556H65.9441C65.9025 37.7557 65.8612 37.7478 65.8227 37.7324C65.7842 37.717 65.7493 37.6943 65.7198 37.6657C65.6903 37.6372 65.667 37.6032 65.651 37.5658C65.635 37.5284 65.6268 37.4883 65.6268 37.4479C65.6268 37.4074 65.635 37.3673 65.651 37.3299C65.667 37.2925 65.6903 37.2586 65.7198 37.23C65.7493 37.2014 65.7842 37.1788 65.8227 37.1633C65.8612 37.1479 65.9025 37.14 65.9441 37.1401H75.0903C75.174 37.1403 75.2543 37.1729 75.3135 37.2305C75.3727 37.2882 75.4059 37.3664 75.4059 37.4479C75.4059 37.5293 75.3727 37.6075 75.3135 37.6652C75.2543 37.7229 75.174 37.7554 75.0903 37.7556Z" fill="#E6E6E6"/>
<path d="M78.8043 34.4765H62.23C62.1461 34.4765 62.0656 34.4441 62.0063 34.3864C61.9469 34.3287 61.9136 34.2504 61.9136 34.1688C61.9136 34.0872 61.9469 34.0089 62.0063 33.9512C62.0656 33.8935 62.1461 33.8611 62.23 33.8611H78.8043C78.8883 33.8611 78.9688 33.8935 79.0281 33.9512C79.0874 34.0089 79.1208 34.0872 79.1208 34.1688C79.1208 34.2504 79.0874 34.3287 79.0281 34.3864C78.9688 34.4441 78.8883 34.4765 78.8043 34.4765Z" fill="#E6E6E6"/>
<path d="M78.9735 40.4238H72.986C72.9444 40.4238 72.9033 40.4159 72.8649 40.4004C72.8265 40.3849 72.7916 40.3623 72.7622 40.3337C72.7329 40.3051 72.7095 40.2712 72.6936 40.2338C72.6777 40.1965 72.6696 40.1565 72.6696 40.1161C72.6696 40.0757 72.6777 40.0357 72.6936 39.9983C72.7095 39.961 72.7329 39.9271 72.7622 39.8985C72.7916 39.8699 72.8265 39.8472 72.8649 39.8318C72.9033 39.8163 72.9444 39.8083 72.986 39.8083H78.9735C79.0575 39.8083 79.138 39.8408 79.1973 39.8985C79.2566 39.9562 79.29 40.0345 79.29 40.1161C79.29 40.1977 79.2566 40.276 79.1973 40.3337C79.138 40.3914 79.0575 40.4238 78.9735 40.4238Z" fill="#E6E6E6"/>
<path d="M119.416 30.4922H113.345C113.188 30.4921 113.037 30.4311 112.925 30.3228C112.814 30.2145 112.751 30.0676 112.751 29.9144V24.0822C112.751 23.929 112.814 23.7822 112.925 23.6738C113.037 23.5655 113.188 23.5046 113.345 23.5044H119.416C119.574 23.5046 119.725 23.5655 119.836 23.6738C119.948 23.7822 120.01 23.929 120.011 24.0822V29.9144C120.01 30.0676 119.948 30.2145 119.836 30.3228C119.725 30.4311 119.574 30.4921 119.416 30.4922Z" fill="#F2F2F2"/>
<path d="M120.427 30.9837H114.356C114.198 30.9835 114.047 30.9226 113.936 30.8142C113.825 30.7059 113.762 30.559 113.762 30.4058V24.5737C113.762 24.4205 113.825 24.2736 113.936 24.1653C114.047 24.057 114.198 23.996 114.356 23.9958H120.427C120.585 23.996 120.736 24.057 120.847 24.1653C120.959 24.2736 121.021 24.4205 121.021 24.5737V30.4058C121.021 30.559 120.959 30.7059 120.847 30.8142C120.736 30.9226 120.585 30.9835 120.427 30.9837Z" fill="#F2F2F2"/>
<path d="M113.472 23.6765C113.328 23.6765 113.19 23.7323 113.087 23.8316C112.985 23.9309 112.928 24.0655 112.928 24.2059V29.7906C112.928 29.931 112.985 30.0657 113.087 30.165C113.19 30.2642 113.328 30.32 113.472 30.32H117.185C117.887 30.32 118.561 30.0486 119.058 29.5656C119.554 29.0825 119.834 28.4273 119.834 27.7442V24.2059C119.834 24.0655 119.776 23.9309 119.674 23.8316C119.572 23.7323 119.434 23.6765 119.289 23.6765H113.472Z" fill="white"/>
<path d="M118.007 25.3716H114.742C114.712 25.3716 114.683 25.36 114.662 25.3394C114.641 25.3188 114.629 25.2908 114.629 25.2617C114.629 25.2326 114.641 25.2046 114.662 25.184C114.683 25.1634 114.712 25.1519 114.742 25.1519H118.007C118.037 25.1519 118.066 25.1634 118.087 25.184C118.108 25.2046 118.12 25.2326 118.12 25.2617C118.12 25.2908 118.108 25.3188 118.087 25.3394C118.066 25.36 118.037 25.3716 118.007 25.3716Z" fill="#F2F2F2"/>
<path d="M118.007 27.7138H114.742C114.712 27.7138 114.683 27.7023 114.662 27.6817C114.641 27.6611 114.629 27.6331 114.629 27.604C114.629 27.5749 114.641 27.5469 114.662 27.5263C114.683 27.5057 114.712 27.4941 114.742 27.4941H118.007C118.037 27.4941 118.066 27.5057 118.087 27.5263C118.108 27.5469 118.12 27.5749 118.12 27.604C118.12 27.6331 118.108 27.6611 118.087 27.6817C118.066 27.7023 118.037 27.7138 118.007 27.7138Z" fill="#F2F2F2"/>
<path d="M119.333 26.5434H113.416C113.386 26.5434 113.357 26.5319 113.336 26.5113C113.315 26.4907 113.303 26.4627 113.303 26.4336C113.303 26.4044 113.315 26.3765 113.336 26.3559C113.357 26.3353 113.386 26.3237 113.416 26.3237H119.333C119.363 26.3237 119.391 26.3353 119.412 26.3559C119.434 26.3765 119.446 26.4044 119.446 26.4336C119.446 26.4627 119.434 26.4907 119.412 26.5113C119.391 26.5319 119.363 26.5434 119.333 26.5434Z" fill="#F2F2F2"/>
<path d="M119.393 28.6665H117.256C117.226 28.6665 117.197 28.6549 117.176 28.6343C117.155 28.6137 117.143 28.5858 117.143 28.5566C117.143 28.5275 117.155 28.4996 117.176 28.479C117.197 28.4584 117.226 28.4468 117.256 28.4468H119.393C119.423 28.4468 119.452 28.4584 119.473 28.479C119.494 28.4996 119.506 28.5275 119.506 28.5566C119.506 28.5858 119.494 28.6137 119.473 28.6343C119.452 28.6549 119.423 28.6665 119.393 28.6665Z" fill="#F2F2F2"/>
<path d="M49.8179 109.591C49.7239 109.595 49.6308 109.571 49.5513 109.522C49.4718 109.473 49.4097 109.402 49.3734 109.317C49.3371 109.233 49.3283 109.139 49.3483 109.05C49.3683 108.961 49.4161 108.879 49.4852 108.817L49.5167 108.696C49.5126 108.686 49.5084 108.676 49.5042 108.666C49.4095 108.449 49.2508 108.263 49.048 108.133C48.8453 108.003 48.6075 107.934 48.3646 107.935C48.1216 107.936 47.8844 108.007 47.6826 108.138C47.4809 108.27 47.3236 108.456 47.2305 108.675C46.8587 109.546 46.3852 110.418 46.2687 111.339C46.2173 111.746 46.239 112.159 46.3327 112.558C45.4593 110.706 45.0057 108.692 45.0028 106.654C45.0026 106.142 45.0318 105.631 45.0903 105.123C45.1387 104.706 45.2057 104.292 45.2915 103.882C45.7596 101.653 46.7647 99.564 48.2243 97.7864C48.9307 97.4115 49.502 96.8351 49.8611 96.1348C49.9912 95.8831 50.0832 95.6144 50.1341 95.337C50.0545 95.3472 49.8337 94.167 49.8938 94.0946C49.7827 93.9307 49.584 93.8493 49.4627 93.6893C48.8595 92.894 48.0284 93.0329 47.5946 94.1136C46.6678 94.5685 46.6588 95.3229 47.2275 96.0485C47.5893 96.5101 47.639 97.1346 47.9565 97.6288C47.9238 97.6695 47.8898 97.7089 47.8572 97.7495C47.2602 98.4961 46.7398 99.2977 46.3036 100.143C46.4097 99.196 46.2831 98.2381 45.9342 97.3481C45.5806 96.5186 44.9179 95.82 44.3343 95.1029C44.1799 94.9102 43.9703 94.7664 43.7319 94.6896C43.4935 94.6128 43.2371 94.6065 42.995 94.6714C42.7529 94.7363 42.536 94.8695 42.3718 95.0543C42.2075 95.239 42.1033 95.467 42.0722 95.7093C42.071 95.7199 42.0699 95.7305 42.0687 95.741C42.1554 95.7886 42.2403 95.8391 42.3233 95.8925C42.4276 95.9602 42.5084 96.0571 42.5552 96.1703C42.6019 96.2835 42.6124 96.4077 42.5853 96.5268C42.5582 96.6459 42.4947 96.7543 42.4031 96.8377C42.3116 96.9211 42.1963 96.9757 42.0723 96.9943L42.0596 96.9962C42.0905 97.3 42.1451 97.6011 42.2229 97.8969C41.4742 100.713 43.0906 101.738 45.3986 101.784C45.4496 101.81 45.4992 101.835 45.5502 101.859C45.1119 103.067 44.837 104.325 44.7324 105.602C44.6732 106.355 44.6767 107.112 44.7428 107.864L44.7389 107.838C44.5717 107.001 44.1126 106.246 43.4391 105.7C42.4388 104.901 41.0256 104.606 39.9465 103.964C39.8318 103.892 39.6984 103.854 39.5622 103.854C39.4259 103.854 39.2923 103.891 39.1773 103.962C39.0622 104.033 38.9705 104.135 38.9129 104.255C38.8552 104.375 38.8341 104.509 38.852 104.64L38.8564 104.668C39.0173 104.732 39.1739 104.805 39.3254 104.888C39.4121 104.935 39.497 104.986 39.58 105.039C39.6843 105.107 39.7651 105.204 39.8118 105.317C39.8586 105.43 39.8691 105.555 39.842 105.674C39.8148 105.793 39.7513 105.901 39.6598 105.985C39.5682 106.068 39.4529 106.123 39.329 106.141L39.3163 106.143C39.3071 106.144 39.2993 106.146 39.2901 106.147C39.565 106.785 39.9508 107.372 40.4306 107.883C40.8987 110.342 42.9094 110.575 45.0603 109.859H45.0616C45.2976 110.856 45.6395 111.827 46.0819 112.755H49.7266C49.7396 112.716 49.7514 112.675 49.7632 112.636C49.4258 112.657 49.0871 112.637 48.7546 112.578C49.0251 112.255 49.2955 111.93 49.5659 111.607C49.5719 111.601 49.5776 111.595 49.5829 111.588C49.7201 111.423 49.8585 111.259 49.9957 111.094L49.9958 111.094C50.0031 110.587 49.9433 110.082 49.818 109.591L49.8179 109.591Z" fill="#F2F2F2"/>
<path d="M1.06586e-06 112.766C-9.32013e-05 112.797 0.00606629 112.827 0.0181294 112.856C0.0301925 112.884 0.0479192 112.91 0.0702892 112.932C0.0926593 112.954 0.119232 112.971 0.148478 112.982C0.177724 112.994 0.209065 113 0.2407 113H51.4704C51.5342 113 51.5954 112.975 51.6406 112.932C51.6857 112.888 51.7111 112.828 51.7111 112.766C51.7111 112.704 51.6857 112.644 51.6406 112.601C51.5954 112.557 51.5342 112.532 51.4704 112.532H0.2407C0.209065 112.532 0.177723 112.538 0.148478 112.55C0.119233 112.561 0.0926621 112.579 0.0702923 112.6C0.0479225 112.622 0.0301959 112.648 0.0181325 112.676C0.006069 112.705 -9.21275e-05 112.735 1.06586e-06 112.766Z" fill="#CCCCCC"/>
<path d="M21.9415 13.7072L23.1571 13.6462C22.7555 13.7104 22.3478 13.7308 21.9415 13.7072Z" fill="#F2F2F2"/>
<path d="M29.1844 18.4948L28.9842 18.7426L28.4462 19.4075L23.8003 25.1528L17.051 18.4338L17.32 18.2253L18.752 15.2652L26.1081 14.7734L28.3087 18.1486L29.1844 18.4948Z" fill="#3F3D56"/>
</g>
<defs>
<clipPath id="clip0_46_363">
<rect width="165" height="113" fill="white"/>
</clipPath>
</defs>
</svg>
