<svg width="80" height="60" viewBox="0 0 80 60" fill="none" xmlns="http://www.w3.org/2000/svg">
<g clip-path="url(#clip0_46_138)">
<path d="M4.17397 59.8658C4.16862 59.8364 3.65103 56.8922 4.70809 54.4468C5.76514 52.0016 8.02152 50.9232 8.04419 50.9125L8.14732 50.8643L8.17168 50.9983C8.17703 51.0277 8.69462 53.972 7.63756 56.4173C6.58056 58.8626 4.32413 59.941 4.30146 59.9517L4.19829 59.9999L4.17397 59.8658ZM8.00589 51.1915C7.55392 51.434 5.77012 52.4954 4.87735 54.5607C3.98448 56.6261 4.25386 59.0687 4.33976 59.6727C4.79154 59.4308 6.57464 58.371 7.4683 56.3035C8.36112 54.2381 8.09184 51.7958 8.00589 51.1914V51.1915Z" fill="#F1F1F1"/>
<path d="M6.82978 55.5597C4.9302 56.9853 4.19861 59.817 4.19861 59.817C4.19861 59.817 6.54685 60.3373 8.44644 58.9117C10.346 57.4861 11.0776 54.6544 11.0776 54.6544C11.0776 54.6544 8.72937 54.1341 6.82978 55.5597Z" fill="#F1F1F1"/>
<path d="M35.5965 32.7057C35.6255 32.5192 35.6213 32.327 35.5843 32.1427C35.5473 31.9584 35.4783 31.7865 35.3823 31.6391C35.2862 31.4916 35.1654 31.3722 35.0284 31.2893C34.8914 31.2064 34.7414 31.162 34.5891 31.1592L33.7095 28.3997L32.2347 28.6575L33.5209 32.5327C33.5341 32.8522 33.6407 33.1545 33.8206 33.3824C34.0006 33.6103 34.2413 33.748 34.4971 33.7693C34.753 33.7906 35.0062 33.6941 35.2088 33.4981C35.4115 33.3021 35.5494 33.0201 35.5965 32.7057Z" fill="#9F616A"/>
<path d="M32.8797 31.7361L32.4227 30.3768L29.5752 23.6155L29.73 11.1045L29.7598 11.0996C31.5818 10.7993 32.8146 21.2718 32.8662 21.7178L34.6653 29.3933L35.0936 31.0851L32.8797 31.7361Z" fill="#E2CBF3"/>
<path d="M28.5043 58.1175L29.8888 58.1174L30.5474 51.4561L28.504 51.4562L28.5043 58.1175Z" fill="#9F616A"/>
<path d="M28.1511 57.5536L30.8777 57.5535H30.8778C31.3386 57.5535 31.7805 57.7819 32.1064 58.1883C32.4322 58.5948 32.6153 59.1461 32.6153 59.7209V59.7913L28.1512 59.7915L28.1511 57.5536Z" fill="#2F2E41"/>
<path d="M15.7744 55.4863L16.9104 56.4737L20.5039 51.4783L18.8274 50.021L15.7744 55.4863Z" fill="#9F616A"/>
<path d="M15.7432 54.7717L17.9802 56.7162L17.9803 56.7163C18.3583 57.045 18.6163 57.5475 18.6973 58.1134C18.7783 58.6793 18.6759 59.2621 18.4124 59.7338L18.3801 59.7915L14.7175 56.6079L15.7432 54.7717Z" fill="#2F2E41"/>
<path d="M27.7434 56.5517L27.6836 44.0554L26.8125 36.1978L25.1884 43.1078L25.1852 43.1135L19.2997 53.7721L17.0095 52.3247L17.0221 52.2875C17.162 51.8723 20.4599 42.1195 21.3463 42.1195C21.4237 42.1263 21.5013 42.1095 21.5723 42.0705C21.6434 42.0316 21.7058 41.9717 21.7541 41.896C22.0143 41.4626 21.8024 40.543 21.8003 40.5338C21.5465 39.2212 22.1845 38.7742 22.3116 38.6996L22.6534 29.8982L22.6888 29.9012L31.9548 30.712L31.566 41.7161L30.7298 56.1336L30.7011 56.1376L27.7434 56.5517Z" fill="#2F2E41"/>
<path d="M32.0963 32.6624L32.0562 32.6583L22.0909 31.6563L22.1155 27.5433L22.6033 16.8039L22.6061 16.7965L24.5924 11.4173L26.0004 10.6219L28.0547 10.4871L28.0597 10.4886L29.9346 11.068L31.8848 28.5322L32.0963 32.6624Z" fill="#E2CBF3"/>
<path d="M28.3766 9.10835C29.6481 8.24132 30.1154 6.2527 29.4203 4.66663C28.7253 3.08056 27.1311 2.49766 25.8596 3.36468C24.5881 4.23171 24.1208 6.22033 24.8159 7.8064C25.5109 9.39247 27.1051 9.97537 28.3766 9.10835Z" fill="#9F616A"/>
<path d="M24.4795 7.05822V5.78301C24.4795 5.78301 23.6551 4.57183 24.5619 4.26674C24.5619 4.26674 24.8093 1.21577 26.9527 2.63955C26.9527 2.63955 29.9206 2.02936 29.5908 4.16504C29.5908 4.16504 30.3328 3.60748 30.0855 5.03127L29.6071 7.32474C29.6071 7.32474 29.8381 5.80974 29.0962 5.60633L28.684 5.30123C28.684 5.30123 27.5298 6.72502 25.7985 4.99614C25.7985 4.99614 25.0566 4.77524 25.139 5.69053C25.2215 6.60582 24.4795 7.05822 24.4795 7.05822Z" fill="#2F2E41"/>
<path d="M26.8449 29.5908C26.8466 29.4008 26.8148 29.2127 26.7519 29.0397C26.689 28.8667 26.5964 28.713 26.4807 28.5895C26.365 28.4659 26.229 28.3755 26.0822 28.3246C25.9355 28.2737 25.7816 28.2636 25.6314 28.2949L24.369 25.7771L22.9553 26.3609L24.7781 29.8853C24.837 30.1966 24.9854 30.4701 25.1952 30.6541C25.405 30.838 25.6616 30.9195 25.9163 30.8832C26.1711 30.8469 26.4064 30.6953 26.5775 30.4571C26.7486 30.2189 26.8438 29.9107 26.8449 29.5908Z" fill="#9F616A"/>
<path d="M23.5845 28.797L21.3007 23.013L21.3027 22.9989C21.3119 22.9349 22.2312 16.5675 22.9343 14.227C23.6419 11.8717 24.6104 11.3988 24.6513 11.3799L24.6717 11.3704L25.5401 12.4094L24.3372 22.4256L25.6339 27.2562L23.5845 28.797Z" fill="#E2CBF3"/>
<path d="M80 0H75.578V5.51607H80V0Z" fill="#F1F1F1"/>
<path d="M45.3932 21.4646H40.9712V26.9807H45.3932V21.4646Z" fill="#F1F1F1"/>
<path d="M43.4531 24.5636H78.4132V2.48633H43.4531V24.5636Z" fill="white"/>
<path d="M78.7016 24.9233H43.1648V2.12646H78.7016V24.9233ZM43.7416 24.2038H78.1249V2.84595H43.7416V24.2038Z" fill="#E5E5E5"/>
<path d="M74.5473 10.2307H47.6495V11.3434H74.5473V10.2307Z" fill="#E5E5E5"/>
<path d="M74.5473 12.929H47.6495V14.0417H74.5473V12.929Z" fill="#E5E5E5"/>
<path d="M74.5473 16.9133H69.5486V17.879H74.5473V16.9133Z" fill="#E2CBF3"/>
<path d="M36.7217 59.9952H0.09613C0.0706348 59.9952 0.0461836 59.9826 0.0281558 59.9601C0.0101279 59.9376 0 59.9071 0 59.8753C0 59.8435 0.0101279 59.813 0.0281558 59.7905C0.0461836 59.768 0.0706348 59.7554 0.09613 59.7554H36.7217C36.7472 59.7554 36.7716 59.768 36.7897 59.7905C36.8077 59.813 36.8178 59.8435 36.8178 59.8753C36.8178 59.9071 36.8077 59.9376 36.7897 59.9601C36.7716 59.9826 36.7472 59.9952 36.7217 59.9952Z" fill="#CBCBCB"/>
</g>
<defs>
<clipPath id="clip0_46_138">
<rect width="80" height="60" fill="white"/>
</clipPath>
</defs>
</svg>
