<svg width="256" height="162" viewBox="0 0 256 162" fill="none" xmlns="http://www.w3.org/2000/svg">
<g clip-path="url(#clip0_46_4)">
<path d="M54.3229 38.1499L64.0048 51.2733C64.0048 51.2733 72.2595 54.7199 81.9071 61.6402L79.5978 65.2198C79.5978 65.2198 63.6737 58.7453 59.5986 56.0096L52.1573 44.4261L54.3229 38.1499Z" fill="#A0616A"/>
<path d="M87.6967 67.9966C88.6206 66.6541 87.5236 64.3131 85.2463 62.7679C82.969 61.2227 80.3739 61.0585 79.4499 62.4011C78.5259 63.7436 79.623 66.0846 81.9003 67.6298C84.1776 69.175 86.7727 69.3392 87.6967 67.9966Z" fill="#A0616A"/>
<path d="M49.5905 26.9468L52.759 26.0544C52.759 26.0544 54.6034 26.0579 55.6439 27.8567C56.6844 29.6555 64.0516 45.6938 63.7024 46.3151C63.3532 46.9364 62.8657 47.0737 63.4915 47.4205C64.1172 47.7672 64.6901 47.5914 64.2636 48.111C63.8371 48.6305 64.4265 49.7719 64.4265 49.7719L56.2988 55.7262L49.5905 26.9468V26.9468Z" fill="#E2CBF3"/>
<path d="M37.2976 158.827L41.1631 158.827L43.002 144.022L37.2968 144.022L37.2976 158.827Z" fill="#A0616A"/>
<path d="M50.5414 158.74C50.6618 158.941 50.7253 159.591 50.7253 159.825C50.7253 160.545 50.1379 161.128 49.4133 161.128H37.4422C36.9479 161.128 36.5472 160.73 36.5472 160.239V159.744C36.5472 159.744 35.955 158.257 37.1742 156.424C37.1742 156.424 38.6896 157.859 40.9539 155.611L41.6216 154.41L46.455 157.92L49.1341 158.247C49.7202 158.319 50.2399 158.236 50.5414 158.74V158.74Z" fill="#2F2E41"/>
<path d="M51.2883 155.087L55.1004 155.722L59.3842 141.425L53.7579 140.486L51.2883 155.087Z" fill="#A0616A"/>
<path d="M64.3635 157.179C64.4486 157.398 64.4029 158.049 64.3638 158.28C64.2438 158.989 63.5672 159.468 62.8526 159.349L51.047 157.379C50.5595 157.298 50.2307 156.839 50.3126 156.355L50.3952 155.867C50.3952 155.867 50.0593 154.303 51.5676 152.696C51.5676 152.696 52.8225 154.361 55.4307 152.516L56.2896 151.441L60.4706 155.698L63.058 156.462C63.624 156.629 64.1503 156.633 64.3635 157.179H64.3635Z" fill="#2F2E41"/>
<path d="M59.2123 79.1208C59.2123 79.1208 64.4058 85.1582 64.4058 90.6924C64.4058 96.2266 64.5325 113.612 64.5325 113.612C64.5325 113.612 61.4924 140.752 60.7324 143.016C59.9723 145.28 59.5923 149.053 59.5923 149.053L52.2453 147.292C52.2453 147.292 51.232 121.759 54.2721 115.722L46.9251 95.0946L44.3917 153.455H35.8627C35.8627 153.455 31.4711 122.766 33.7512 114.716C33.7512 114.716 28.6843 84.0262 29.951 82.2653C31.2178 80.5044 59.2123 79.1208 59.2123 79.1208Z" fill="#2F2E41"/>
<path d="M40.3382 18.9993L47.1784 19.5024L49.4585 23.2757C49.4585 23.2757 54.7788 25.5397 55.5388 28.8099C56.2988 32.0801 56.5522 70.3165 56.5522 70.3165L60.3523 75.8507L60.099 80.6302L29.6977 82.1395V77.5442L26.9109 72.0773C26.9109 72.0773 29.951 28.3068 30.7111 28.0552C31.4711 27.8037 37.298 23.7788 37.298 23.7788L40.3382 18.9993V18.9993Z" fill="#E2CBF3"/>
<path d="M43.434 18.063C48.1912 18.063 52.0477 14.2338 52.0477 9.51014C52.0477 4.78652 48.1912 0.957275 43.434 0.957275C38.6768 0.957275 34.8203 4.78652 34.8203 9.51014C34.8203 14.2338 38.6768 18.063 43.434 18.063Z" fill="#A0616A"/>
<path d="M50.3143 2.631C49.876 1.3967 48.6601 0.647876 47.3423 0.677043C47.2864 0.678265 47.2306 0.677752 47.1754 0.675498C46.5117 0.648556 45.8747 0.423493 45.224 0.291462C44.0112 0.0453655 42.7324 0.127758 41.5618 0.527397C41.198 0.651626 40.8337 0.807839 40.4489 0.807882C40.0642 0.807935 39.645 0.598443 39.5512 0.227951C39.5289 0.563389 39.5067 0.898808 39.4845 1.23423C39.3593 0.962746 39.2341 0.691246 39.1088 0.41975L38.8581 1.50245L38.0548 0.597589C38.1266 0.996419 37.8924 1.39839 37.5754 1.65338C37.2583 1.90839 36.8667 2.04944 36.4913 2.20831C34.8712 2.89401 33.35 4.10804 32.8832 5.79423C32.5883 6.85955 32.7425 7.99018 32.8988 9.08406C33.0369 10.0511 33.1872 11.0516 33.7165 11.8747C34.0559 12.4024 34.545 12.8465 34.7517 13.4381C34.9443 13.9894 34.8713 14.6207 35.1453 15.1371C35.4205 15.6557 35.9886 15.9491 36.5446 16.1461C37.1006 16.3433 37.6916 16.4827 38.1704 16.8256C38.6492 17.1685 39.2049 18.1565 40.2481 18.1033L40.5848 17.4752C40.9312 17.195 39.6494 17.4172 39.636 16.9737C39.6226 16.5303 41.1783 16.2564 40.9578 15.8705C40.6197 15.2789 40.1622 14.764 39.7812 14.1985C39.3356 13.5373 38.9852 12.7647 39.139 11.9576C39.1988 11.6437 39.3467 11.3471 39.5722 11.1191C40.2219 10.4616 40.9465 10.7506 41.6506 10.8446C42.1359 10.9095 42.7155 10.8346 42.9675 10.4177C43.2623 9.92991 42.9338 9.30938 42.9739 8.74193C43.0165 8.14064 43.4753 7.64759 43.9746 7.30479C44.4739 6.962 45.0409 6.71225 45.49 6.30681C45.9392 5.90134 46.2592 5.2679 46.0634 4.69736C48.1925 3.81719 48.5185 3.73394 50.7606 4.2707C50.6537 3.71398 50.5041 3.16546 50.3143 2.631L50.3143 2.631Z" fill="#2F2E41"/>
<path d="M13.9501 112.021V86.0603C13.9501 85.3484 14.2557 84.6668 14.7887 84.1905C15.3216 83.7142 16.0361 83.4837 16.7495 83.5584C23.3571 82.6757 29.5804 83.0955 35.2203 85.4923C35.8592 85.4923 36.3789 86.0083 36.3789 86.6427V112.694C36.3789 113.329 35.8592 113.845 35.2203 113.845C29.012 112.399 22.4639 112.775 15.7865 113.845C14.7739 113.845 13.9501 113.027 13.9501 112.021Z" fill="#E6E6E6"/>
<path d="M13.9501 114.332V88.097C13.9501 86.7097 15.0867 85.5811 16.4838 85.5811C22.8023 83.9396 29.0479 83.9367 35.2203 85.5811C35.8592 85.5811 36.3789 86.0971 36.3789 86.7315V112.516C36.3789 113.15 35.8607 113.665 35.2232 113.667C29.1371 112.615 22.6176 113.639 15.7865 116.156C14.7739 116.156 13.9501 115.338 13.9501 114.332Z" fill="#F2F2F2"/>
<path d="M28.5404 96.4228H22.6321C20.5102 96.4228 18.7839 94.7089 18.7839 92.602C18.7839 90.495 20.5102 88.7808 22.6321 88.7808H28.5404C30.6625 88.7808 32.3888 90.495 32.3888 92.602C32.3888 94.7089 30.6625 96.4228 28.5404 96.4228Z" fill="#E6E6E6"/>
<path d="M33.9555 44.8938L33.7296 58.4386C33.7296 58.4386 33.0078 68.9946 31.2153 80.8739L26.9426 81.1446C26.9426 81.1446 27.4683 62.5964 27.2768 57.7158L27.579 46.8756L33.9555 44.8938H33.9555Z" fill="#A0616A"/>
<path d="M29.4826 89.2698C31.1193 89.2145 32.3702 86.9509 32.2765 84.2137C32.1828 81.4766 30.78 79.3025 29.1433 79.3577C27.5066 79.413 26.2557 81.6767 26.3494 84.4138C26.4431 87.1509 27.8459 89.325 29.4826 89.2698Z" fill="#A0616A"/>
<path d="M33.8891 27.6497L30.5978 27.7687C30.5978 27.7687 28.844 28.3355 28.4114 30.365C27.9788 32.3944 24.9465 53.3969 25.4713 53.8814C25.9961 54.3659 26.5024 54.3476 26.0145 54.8686C25.5266 55.3897 24.927 55.3975 25.4938 55.7616C26.0606 56.1256 25.8535 57.3917 25.8535 57.3917L34.9565 56.7513L33.8891 27.6497Z" fill="#E2CBF3"/>
<path d="M251.041 148.663H163.47C162.962 148.663 162.459 148.586 161.975 148.434L161.923 148.413C134.503 134.882 110.993 127.497 90.0514 125.835L89.9717 125.82C87.9001 125.169 86.5083 123.282 86.5083 121.125V4.92839C86.5083 3.34176 87.2477 1.8939 88.5367 0.95625C89.8258 0.018602 91.4388 -0.244503 92.963 0.233536L162.191 21.976C162.606 22.1062 163.036 22.1721 163.47 22.1721H251.041C253.775 22.1721 256 24.3811 256 27.0962V143.739C256 146.454 253.775 148.663 251.041 148.663ZM162.217 147.763C162.623 147.887 163.045 147.951 163.47 147.951H251.041C253.38 147.951 255.283 146.061 255.283 143.739V27.0962C255.283 24.7738 253.38 22.8844 251.041 22.8844H163.47C162.963 22.8844 162.46 22.8074 161.975 22.6552L92.7465 0.912776C91.443 0.503077 90.0633 0.728795 88.9607 1.5308C87.858 2.33299 87.2256 3.5713 87.2256 4.92839V121.125C87.2256 122.957 88.399 124.561 90.1502 125.129C111.168 126.804 134.742 134.207 162.217 147.763L162.217 147.763Z" fill="#3F3D56"/>
<path d="M165.809 143.386C189.686 134.997 216.323 135.96 244.62 142.55C248.173 143.377 251.579 140.721 251.579 137.098V30.9277C251.579 28.3495 249.809 26.0952 247.286 25.4828C217.435 18.2344 189.551 16.9008 164.979 25.514C163.178 26.145 161.18 25.8031 159.661 24.6549C138.954 9.00395 117.763 1.15668 95.9379 3.48673C93.0829 3.79155 90.9294 6.20754 90.9294 9.05879V116.387C90.9294 119.261 93.1192 121.663 95.9978 121.961C119.489 124.387 141.074 131.739 161.149 142.998C162.57 143.795 164.27 143.927 165.809 143.386Z" fill="#F2F2F2"/>
<path d="M165.042 137.433C163.416 137.433 161.814 136.989 160.403 136.119C143.544 125.722 125.176 119.649 105.81 118.067C101.27 117.696 97.7133 113.85 97.7133 109.312V17.6367C97.7133 12.9314 101.388 9.07598 106.08 8.85948C120.18 8.20668 137.3 14.4501 159.954 28.5007C161.871 29.689 164.201 30.0418 166.348 29.47C187.879 23.7314 211.218 23.5638 237.7 28.9576C241.811 29.795 244.795 33.4183 244.795 37.5732V127.057C244.795 129.757 243.572 132.266 241.439 133.938C239.291 135.623 236.526 136.227 233.854 135.596C208.802 129.675 187.29 130.103 168.088 136.905C167.091 137.258 166.061 137.433 165.042 137.433ZM108.093 9.52585C107.425 9.52585 106.767 9.54081 106.113 9.57107C101.805 9.76983 98.4307 13.3126 98.4307 17.6367V109.312C98.4307 113.482 101.698 117.016 105.869 117.357C125.349 118.948 143.824 125.057 160.781 135.513C162.891 136.815 165.467 137.077 167.847 136.234L167.968 136.569L167.847 136.234C187.183 129.385 208.829 128.949 234.02 134.903C236.477 135.484 239.019 134.929 240.994 133.379C242.954 131.842 244.078 129.538 244.078 127.057V37.5732C244.078 33.755 241.335 30.4251 237.555 29.6552C211.185 24.2839 187.954 24.4484 166.534 30.158C164.195 30.7809 161.659 30.3974 159.574 29.1048C138.105 15.7894 121.664 9.52585 108.093 9.52585Z" fill="white"/>
<path d="M163.413 30.002L162.696 30.0085L163.694 137.27L164.411 137.263L163.413 30.002Z" fill="white"/>
<path d="M104.706 22.9235L104.481 23.5996L154.707 40.1012L154.933 39.4251L104.706 22.9235Z" fill="#3F3D56"/>
<path d="M104.706 36.1249L104.481 36.801L154.707 53.3026L154.933 52.6265L104.706 36.1249Z" fill="#3F3D56"/>
<path d="M104.706 49.3261L104.481 50.0022L154.707 66.5037L154.933 65.8277L104.706 49.3261Z" fill="#3F3D56"/>
<path d="M104.706 62.5273L104.481 63.2034L154.707 79.7049L154.933 79.0288L104.706 62.5273Z" fill="#3F3D56"/>
<path d="M235.699 40.1404H175.501V40.8527H235.699V40.1404Z" fill="#3F3D56"/>
<path d="M235.699 52.6084H175.501V53.3207H235.699V52.6084Z" fill="#3F3D56"/>
<path d="M235.699 65.0759H175.501V65.7882H235.699V65.0759Z" fill="#3F3D56"/>
<path d="M235.699 77.5439H175.501V78.2562H235.699V77.5439Z" fill="#3F3D56"/>
<path d="M235.699 90.0117H175.501V90.724H235.699V90.0117Z" fill="#3F3D56"/>
<path d="M235.699 102.48H175.501V103.192H235.699V102.48Z" fill="#3F3D56"/>
<path d="M19.4612 155.827C18.7202 155.873 18.3107 154.959 18.8713 154.426L18.9271 154.206C18.9197 154.188 18.9123 154.171 18.9049 154.153C18.1556 152.379 15.6159 152.391 14.8729 154.168C14.2135 155.745 13.3739 157.325 13.1671 158.992C13.0745 159.728 13.1162 160.478 13.2807 161.201C11.7355 157.849 10.9223 154.189 10.9223 150.509C10.9223 149.584 10.9733 148.66 11.0775 147.737C11.1633 146.983 11.2814 146.233 11.4343 145.49C12.2613 141.474 14.0521 137.648 16.6351 134.453C17.8768 133.779 18.9124 132.726 19.5378 131.463C19.7626 131.007 19.9386 130.517 20.022 130.018C19.8807 130.037 19.4892 127.9 19.5958 127.769C19.3988 127.472 19.0464 127.324 18.8313 127.035C17.7616 125.595 16.2879 125.846 15.5185 127.803C13.875 128.627 13.8591 129.993 14.8675 131.306C15.5091 132.142 15.5973 133.273 16.1602 134.168C16.1023 134.242 16.0421 134.313 15.9841 134.386C14.9221 135.739 14.0035 137.193 13.2292 138.72C13.448 137.023 13.1249 134.978 12.5741 133.66C11.9471 132.158 10.7718 130.893 9.73682 129.594C8.49365 128.035 5.94443 128.715 5.72541 130.692C5.72329 130.711 5.72123 130.731 5.7192 130.75C5.87293 130.836 6.02353 130.927 6.17064 131.024C7.00976 131.575 6.71976 132.867 5.72551 133.019L5.70299 133.022C5.7586 133.572 5.85358 134.117 5.99256 134.653C4.66483 139.752 7.53131 141.609 11.6243 141.692C11.7146 141.738 11.8027 141.784 11.893 141.828C11.4783 142.987 11.147 144.176 10.9015 145.382C10.6814 146.447 10.5285 147.523 10.4428 148.604C10.3362 149.968 10.3455 151.339 10.4613 152.701L10.4544 152.653C10.1602 151.153 9.34009 149.752 8.14933 148.781C6.37547 147.335 3.86935 146.802 1.95567 145.639C1.03448 145.079 -0.145953 145.802 0.0148184 146.863L0.0226446 146.914C0.307585 147.029 0.585571 147.162 0.854303 147.312C1.00803 147.398 1.15863 147.489 1.30574 147.586C2.14486 148.137 1.85486 149.428 0.860605 149.581L0.838073 149.584C0.821861 149.587 0.807956 149.589 0.791765 149.591C1.28057 150.744 1.96164 151.813 2.81416 152.736C3.64435 157.186 7.21006 157.609 11.0243 156.313H11.0266C11.4436 158.116 12.0528 159.878 12.8359 161.557H19.2992C19.3224 161.486 19.3433 161.412 19.3641 161.341C18.7664 161.378 18.1641 161.343 17.5757 161.235C18.0552 160.651 18.5347 160.062 19.0143 159.478C19.0259 159.466 19.0352 159.455 19.0444 159.443C19.2876 159.144 19.5332 158.847 19.7765 158.548L19.7766 158.548C19.7918 157.63 19.681 156.715 19.4614 155.827L19.4612 155.827Z" fill="#F2F2F2"/>
<path d="M91.7522 161.576C91.7522 161.811 91.5621 162 91.3254 162H0.477099C0.240385 162 0.0502777 161.811 0.0502777 161.576C0.0502777 161.341 0.240385 161.152 0.477099 161.152H91.3254C91.5621 161.152 91.7522 161.341 91.7522 161.576Z" fill="#CCCCCC"/>
<path d="M238.227 139.047C242.783 139.047 246.476 135.38 246.476 130.856C246.476 126.332 242.783 122.665 238.227 122.665C233.671 122.665 229.977 126.332 229.977 130.856C229.977 135.38 233.671 139.047 238.227 139.047Z" fill="#E2CBF3"/>
<path d="M242.09 130.547L236.972 127.612C236.732 127.475 236.434 127.647 236.434 127.921V130.5H234.898C234.7 130.5 234.539 130.659 234.539 130.856C234.539 131.052 234.7 131.212 234.898 131.212H236.434V133.79C236.434 134.065 236.732 134.236 236.972 134.099L242.09 131.164C242.329 131.027 242.329 130.684 242.09 130.547Z" fill="white"/>
<path d="M120.754 107.766C121.075 104.116 122.601 100.629 125.044 97.8844C127.424 95.2111 130.676 93.3773 134.184 92.6302C136.142 92.2132 138.17 92.1318 140.153 92.4128C140.628 92.48 140.615 93.2283 140.135 93.1604C136.761 92.6822 133.272 93.2664 130.24 94.8137C127.132 96.3996 124.644 98.9792 123.108 102.09C122.229 103.869 121.68 105.81 121.507 107.784C121.465 108.261 120.712 108.247 120.754 107.766Z" fill="white"/>
<path d="M139.318 89.4114L145.115 92.2513C145.326 92.3546 145.36 92.6956 145.181 92.8427L139.693 97.347C139.322 97.6518 138.799 97.1132 139.174 96.8059L144.661 92.3016L144.728 92.893L138.931 90.053C138.495 89.8398 138.886 89.1999 139.318 89.4114Z" fill="white"/>
</g>
<defs>
<clipPath id="clip0_46_4">
<rect width="256" height="162" fill="white"/>
</clipPath>
</defs>
</svg>
