<svg width="40" height="40" viewBox="0 0 40 40" fill="none" xmlns="http://www.w3.org/2000/svg">
<g clip-path="url(#clip0_46_409)">
<path d="M36.8506 9.72343C32.3107 1.21841 22.7203 -2.23159 13.2885 1.48414C8.30219 3.44854 3.49445 7.38451 1.11186 15.0058C-3.14729 28.6297 5.79533 32.9808 11.6428 34.3676C14.4704 35.0382 17.1334 36.1646 19.5669 37.6982C23.9451 40.4572 31.6947 42.9021 37.5384 31.4092C41.7739 23.0792 39.8747 15.3886 36.8506 9.72343Z" fill="#F2F2F2"/>
<path d="M10.5297 11.4062C10.517 11.271 10.4913 11.1386 10.4533 11.0124C10.4484 10.9885 10.4399 10.9662 10.4283 10.947C10.4167 10.9278 10.4023 10.912 10.3859 10.9007C10.3641 10.8931 10.3411 10.8927 10.3191 10.8997L9.97621 10.9704C9.94751 10.9721 9.92003 10.9865 9.89797 11.0113C9.85331 11.0745 9.89729 11.1764 9.89592 11.2636C9.89438 11.3617 9.82964 11.4413 9.75943 11.4677C9.68776 11.4872 9.61383 11.486 9.54254 11.4641L9.06303 11.3638C9.20425 11.3031 9.32995 11.1901 9.42578 11.0379C9.48889 10.9372 9.52246 10.7493 9.43126 10.7017C9.40416 10.6917 9.37591 10.6886 9.34797 10.6927C9.13072 10.6949 8.95976 10.4507 8.75637 10.3479C8.6262 10.2863 8.4849 10.2817 8.35268 10.3348C8.22046 10.3879 8.10408 10.4959 8.0202 10.6433L8.27564 10.6599C8.29968 10.6581 8.32351 10.6667 8.34369 10.6843C8.39967 10.7463 8.33007 10.8652 8.33796 10.9622C8.3482 11.0881 8.47245 11.115 8.5661 11.1278C8.65976 11.1405 8.77857 11.243 8.73352 11.3542C8.26279 11.5725 7.78377 10.9275 7.28941 11.0069C7.16428 11.027 7.04613 11.0932 6.92397 11.1348C6.17774 11.389 5.40626 10.7108 4.64393 10.8544C4.47446 10.8933 4.30789 10.9525 4.14622 11.0311C4.04246 11.077 3.93424 11.1266 3.85885 11.2329C3.78347 11.3393 3.75478 11.5212 3.82619 11.6324C3.62935 11.6542 3.43119 11.6289 3.24092 11.5575C3.29238 11.596 3.33518 11.6525 3.36484 11.7209C3.3945 11.7894 3.40993 11.8673 3.4095 11.9466C3.10215 12.014 2.80294 12.1369 2.51992 12.3117C2.57274 12.43 2.63444 12.5406 2.70404 12.6419L2.31494 12.9785C2.4464 13.0231 2.51436 13.2644 2.43792 13.4151C2.57422 13.3335 2.6587 13.1223 2.80445 13.0795C2.89994 13.0514 2.9971 13.104 3.08769 13.1534C3.17827 13.2028 3.27784 13.2507 3.37161 13.2136C3.46539 13.1765 3.53455 13.0128 3.47497 12.9086C3.87579 12.7511 4.29003 12.664 4.70742 12.6493C4.73962 12.6439 4.77227 12.6522 4.80076 12.6732C4.85509 12.7239 4.84079 12.8335 4.83787 12.9225C4.83494 13.0114 4.88643 13.1283 4.94548 13.0882C4.87601 13.1693 4.9354 13.322 5.00204 13.4073C5.06869 13.4925 5.14902 13.6102 5.10822 13.7211C5.09757 13.7501 5.0795 13.7733 5.06926 13.8025C5.03901 13.8887 5.08703 13.9892 5.14367 14.0465C5.20032 14.1038 5.2697 14.1438 5.30904 14.2231C5.34839 14.3024 5.33052 14.4412 5.26016 14.4523L5.06019 14.1105C4.99186 14.2058 4.94502 14.3253 4.9251 14.4551C5.13716 14.6885 5.16905 15.1635 4.99152 15.4443C4.90079 15.5878 4.77178 15.675 4.65917 15.7869C4.54657 15.8988 4.44237 16.0582 4.44266 16.2466C4.44315 16.5722 4.42339 16.8746 4.514 17.1765C4.6811 17.733 4.87401 18.2749 5.09161 18.7988C5.14875 18.9364 5.2226 19.0872 5.33836 19.1109C5.19207 18.6314 5.06037 18.1445 4.94328 17.6501C5.01954 17.6505 5.10768 17.6587 5.15239 17.7418C5.18941 17.8107 5.18146 17.9044 5.19296 17.988C5.20759 18.069 5.23199 18.1462 5.26518 18.2165L5.96379 19.8919C6.0217 20.0307 6.08813 20.1798 6.19881 20.2361C6.26958 20.272 6.35145 20.2653 6.41658 20.317C6.46764 20.3576 6.50202 20.4296 6.55407 20.4679C6.70123 20.5759 6.90588 20.3687 7.04341 20.4977C7.08273 20.5346 7.10775 20.5932 7.14398 20.6355C7.271 20.7835 7.47937 20.6845 7.626 20.7949C7.7205 20.8661 7.76948 21.0085 7.81988 21.1376C7.94614 21.4608 8.15043 21.7774 8.42102 21.8032C8.50602 21.8113 8.59284 21.7896 8.67592 21.815C8.759 21.8405 8.84079 21.9381 8.82745 22.0514C8.80459 22.2456 8.87587 22.4583 8.85673 22.6533C8.82186 23.0084 8.44768 23.1645 8.41554 23.5201C8.40851 23.5979 8.41952 23.6783 8.40575 23.7545C8.38887 23.8479 8.33677 23.924 8.31825 24.0168C8.28316 24.1927 8.3768 24.3678 8.47965 24.4862C8.58251 24.6046 8.70521 24.7066 8.76144 24.8723C8.82088 25.0475 8.79168 25.2517 8.81101 25.4425C8.85321 25.859 9.12043 26.1677 9.39543 26.3668C9.47922 26.4275 9.56919 26.4862 9.62342 26.5914C9.6942 26.7288 9.68715 26.9098 9.71078 27.0739C9.76867 27.4759 10.02 27.807 10.0271 28.2163C10.0322 28.5072 9.91208 28.7711 9.84033 29.0456C9.77306 29.3086 9.74872 29.588 9.76896 29.8648C9.78921 30.1416 9.85356 30.4093 9.95764 30.6496C10.0113 30.7716 10.0755 30.8866 10.1135 31.0189C10.1812 31.2549 10.1593 31.5233 10.2217 31.7619C10.3043 32.0775 10.5313 32.3381 10.5096 32.6714C10.6126 32.9595 10.8401 33.101 11.0689 33.1868L11.479 33.3404C11.5575 33.3699 11.6395 33.3995 11.7195 33.3782C11.7994 33.3569 11.8757 33.2675 11.8737 33.1578C11.6726 33.0968 11.465 33.0319 11.2993 32.8669C11.1335 32.7019 11.02 32.4082 11.0829 32.1439C11.112 32.0214 11.1741 31.8799 11.1151 31.7786C11.0813 31.7206 11.0196 31.7055 10.9815 31.6526C10.922 31.5701 10.9425 31.4315 10.9852 31.332C11.0279 31.2325 11.0896 31.1436 11.1069 31.031C11.1156 30.9681 11.1097 30.903 11.0902 30.8447C11.0707 30.7863 11.0383 30.7373 10.9975 30.7044C11.0736 30.6657 11.1427 30.606 11.2005 30.529C11.2539 30.447 11.2785 30.3205 11.2365 30.2272C11.3612 30.2485 11.5084 30.2589 11.5903 30.1305C11.6556 30.028 11.6511 29.8747 11.6253 29.7441C11.5995 29.6136 11.5558 29.4867 11.5545 29.3516C11.8421 29.37 12.1303 29.3568 12.4164 29.3123C12.375 29.1248 12.281 28.9663 12.1543 28.8705C12.2839 28.841 12.4019 28.6322 12.4428 28.4641C12.4837 28.296 12.4733 28.1129 12.448 27.9394C12.4383 27.8947 12.437 27.8474 12.4441 27.8019C12.4587 27.7393 12.5044 27.7011 12.5466 27.6684L13.1897 27.1713C13.228 27.1454 13.2628 27.1108 13.2925 27.0691C13.3599 26.9626 13.3499 26.8017 13.3154 26.6698C13.2809 26.5378 13.2256 26.4137 13.2123 26.2749C13.1726 25.8599 13.5026 25.5621 13.614 25.1715C13.6577 25.0182 13.6666 24.8515 13.675 24.6877C13.6841 24.5118 13.6848 24.3074 13.5844 24.194C13.4882 24.0853 13.3379 24.1096 13.2373 24.0085C13.145 23.9158 13.1132 23.7358 13.0124 23.6609C12.9208 23.5929 12.806 23.6362 12.7042 23.6042C12.5249 23.5479 12.4121 23.2697 12.229 23.244C12.1257 23.2294 12.0088 23.2974 11.9241 23.2164C11.8495 23.1451 11.8465 23.0016 11.8323 22.8799C11.8074 22.6907 11.74 22.5163 11.6393 22.3803C11.5386 22.2442 11.4093 22.153 11.2688 22.1189C11.1623 22.0959 11.0464 22.1046 10.9557 22.0258C10.864 21.946 10.8219 21.7966 10.7498 21.6861C10.6337 21.508 10.4507 21.4447 10.2793 21.3905L9.58224 21.1698C9.45849 21.1307 9.29898 21.1099 9.23257 21.2558C9.21291 21.3114 9.19899 21.3703 9.1912 21.431C9.16632 21.5407 9.11625 21.6369 9.04817 21.7059C8.9801 21.7749 8.89753 21.8131 8.81234 21.8149C8.75392 21.6807 8.65927 21.5821 8.54814 21.5397C8.47745 21.5132 8.40179 21.5102 8.33437 21.4712C8.29765 21.4471 8.26498 21.4131 8.23835 21.3714C8.21172 21.3297 8.1917 21.2811 8.1795 21.2286C8.1673 21.1761 8.16319 21.1208 8.16742 21.0661C8.17164 21.0114 8.18412 20.9584 8.20408 20.9104C8.24427 20.8141 8.25979 20.7026 8.24825 20.5932C8.2367 20.4838 8.19874 20.3826 8.14021 20.3051C8.02166 20.1618 7.85017 20.1272 7.69121 20.1416C7.64958 20.0193 7.71919 19.8813 7.7942 19.7924C7.86922 19.7035 7.96031 19.6162 7.97664 19.4834C8.00234 19.2747 7.80447 19.1161 7.65424 19.1784C7.50401 19.2406 7.40812 19.437 7.34474 19.6307C7.30837 19.7418 7.27745 19.8588 7.22009 19.9525C7.16272 20.0462 7.07034 20.1133 6.98296 20.0832C6.85926 20.0406 6.81148 19.8428 6.78411 19.6749C6.74737 19.4496 6.71043 19.2212 6.71812 18.9908C6.72582 18.7605 6.78351 18.5239 6.9097 18.3679C7.11534 18.1138 7.4308 18.1387 7.70832 18.1792C7.64275 18.0798 7.65895 17.9122 7.72911 17.8186C7.76614 17.7743 7.81064 17.7428 7.85875 17.7269C7.90686 17.711 7.95712 17.7111 8.00518 17.7273C8.08881 17.7507 8.16414 17.8113 8.21906 17.8994C8.29792 18.0289 8.32035 18.2036 8.37996 18.3506C8.43957 18.4975 8.57361 18.6228 8.68332 18.544C8.77808 18.4759 8.79312 18.299 8.76953 18.1579C8.74595 18.0168 8.69586 17.8797 8.7044 17.7355C8.7207 17.4605 8.93249 17.2949 9.11937 17.1816C9.30626 17.0684 9.52025 16.916 9.54986 16.643C9.55087 16.5895 9.55836 16.5367 9.57204 16.4865C9.59276 16.4421 9.62157 16.4056 9.65571 16.3805C10.2011 15.8952 10.7556 15.4041 11.379 15.1389C11.4115 15.1251 11.4153 15.1404 11.4483 15.1296C11.4946 15.0936 11.4639 14.9941 11.4196 14.9539C11.3752 14.9138 11.316 14.8831 11.3047 14.8128C11.2964 14.7611 11.3191 14.7103 11.3249 14.658C11.3394 14.5296 11.2252 14.4109 11.1366 14.4623C11.0865 14.373 11.1856 14.2693 11.2657 14.2396C11.5063 14.1504 11.7533 14.0961 12.0024 14.0776C12.0312 14.0714 12.0606 14.0782 12.0862 14.0968C12.1281 14.1358 12.1227 14.2253 12.0931 14.281C12.0634 14.3367 12.0173 14.3717 11.9803 14.4188C11.94 14.4718 11.9112 14.5386 11.8971 14.6121C11.883 14.6856 11.8842 14.7629 11.9005 14.8355C12.0306 14.9246 12.172 15.0163 12.316 14.9849C12.4601 14.9535 12.588 14.7356 12.5202 14.5616C12.4572 14.3995 12.2678 14.363 12.2352 14.1854C12.1971 13.9774 12.4157 13.7924 12.3665 13.5888C12.3449 13.4995 12.2789 13.447 12.2282 13.3826C12.1683 13.3036 12.1276 13.2021 12.1114 13.0915C12.0952 12.9808 12.1042 12.8661 12.1373 12.7624C12.0547 12.7819 11.9699 12.7746 11.8899 12.7409C11.8099 12.7072 11.7371 12.6481 11.6775 12.5687C11.5676 12.4193 11.4799 12.1837 11.3237 12.1903C11.1804 12.1965 11.057 12.4215 10.923 12.3529C10.8901 12.336 10.8553 12.3016 10.8234 12.3217C10.8129 12.3309 10.8041 12.3431 10.7977 12.3575C10.7912 12.3719 10.7873 12.3881 10.7862 12.4048C10.7522 12.624 10.8107 12.8737 10.722 13.063C10.6255 13.2691 10.4021 13.2977 10.2851 13.4835C10.2216 13.5844 10.1969 13.7203 10.1385 13.8267C10.0801 13.933 9.9562 14.0006 9.88611 13.908C9.92056 13.8126 9.92996 13.7044 9.91279 13.6009C9.89563 13.4975 9.8529 13.4049 9.79159 13.3384C9.72652 13.2812 9.65638 13.2353 9.58281 13.2017C9.50061 13.1548 9.42241 13.0961 9.34957 13.0267C9.31309 12.997 9.28344 12.9543 9.26395 12.9033C9.24853 12.8394 9.25061 12.7702 9.26981 12.7083C9.30535 12.5711 9.36804 12.4496 9.45112 12.3569C9.5342 12.2642 9.63452 12.2038 9.74123 12.1822C9.83455 12.1651 9.94316 12.1712 10.0049 12.0754C10.0376 12.0248 10.0547 11.9482 10.1022 11.9276C10.1325 11.9194 10.164 11.9247 10.1919 11.9425L10.5402 12.1076C10.5791 12.1312 10.6219 12.1407 10.6643 12.1352C10.6854 12.1314 10.7046 12.117 10.7181 12.0949C10.7315 12.0728 10.7383 12.0447 10.7371 12.0162C10.7259 11.9383 10.6369 11.901 10.645 11.8224C10.6496 11.797 10.6597 11.774 10.6742 11.7564C10.7999 11.5763 10.9536 11.4359 11.1243 11.3451C11.2951 11.2543 11.4786 11.2155 11.6618 11.2314C11.7058 11.3286 11.6362 11.4437 11.5784 11.5267C11.5205 11.6096 11.4741 11.7579 11.544 11.8218C11.5727 11.8415 11.6046 11.8511 11.6368 11.8499C11.7225 11.8655 11.8058 11.8996 11.8836 11.9507C12.004 12.0212 12.122 12.0984 12.2377 12.1821C12.2275 12.0794 12.2178 11.9712 12.2467 11.8751C12.2756 11.7791 12.3578 11.7037 12.4296 11.7411C12.4988 11.7772 12.5343 11.9005 12.608 11.9118C12.7064 11.9269 12.7452 11.7313 12.7041 11.6101C12.663 11.4888 12.5817 11.3873 12.5749 11.2544C12.5703 11.1647 12.5957 11.0535 12.5425 10.9992C12.5235 10.9829 12.502 10.9727 12.4797 10.9695L11.151 10.6404C11.0721 10.6208 10.9581 10.6358 10.9546 10.7437C10.9526 10.8039 10.9926 10.8635 10.9749 10.9189C10.956 10.978 10.8939 10.9726 10.8487 10.9935C10.7786 11.0259 10.7434 11.1381 10.7501 11.2375C10.7625 11.3363 10.7909 11.4302 10.8334 11.5124C10.7469 11.4638 10.6161 11.4548 10.5297 11.4062Z" fill="#3F3D56"/>
<path d="M9.46946 9.88773C9.38567 9.8504 9.29539 9.84866 9.21084 9.88275C9.1263 9.91684 9.05158 9.9851 8.99683 10.0783C8.97495 10.1171 8.95658 10.1705 8.97489 10.2125C9.00115 10.2727 9.06806 10.2489 9.11739 10.2274C9.1899 10.1925 9.26881 10.19 9.34247 10.2202C9.38879 10.2416 9.43023 10.2794 9.47675 10.3C9.4994 10.3128 9.5242 10.317 9.54849 10.3122C9.57278 10.3074 9.59564 10.2938 9.61463 10.2729C9.64656 10.2291 9.64856 10.1609 9.64862 10.0995C9.65083 10.079 9.64961 10.058 9.64505 10.0382C9.64048 10.0184 9.63268 10.0002 9.62222 9.9849C9.6036 9.97038 9.58268 9.96205 9.56118 9.96059C9.51305 9.9486 9.46953 9.91437 9.43813 9.8638" fill="#3F3D56"/>
<path d="M9.94866 9.70798C9.92991 9.70661 9.91121 9.71175 9.89436 9.72292C9.87751 9.73408 9.86308 9.75089 9.85246 9.77174C9.84183 9.79258 9.83537 9.81676 9.83369 9.84193C9.83201 9.86711 9.83517 9.89245 9.84287 9.91551C9.90045 9.93665 9.96061 9.94193 10.0197 9.93104C10.0492 9.92487 10.0767 9.90709 10.0987 9.87993C10.1207 9.85278 10.1363 9.81746 10.1434 9.77844C10.0738 9.79549 10.0019 9.77702 9.94186 9.72662" fill="#3F3D56"/>
<path d="M11.556 9.40816C11.3993 9.45302 11.247 9.52265 11.1024 9.61559C11.1706 9.65087 11.2285 9.71469 11.2677 9.79765C11.3069 9.88062 11.3253 9.97833 11.3201 10.0764C11.314 10.1141 11.3147 10.1531 11.3221 10.1903C11.3388 10.2447 11.3871 10.2651 11.4295 10.2791C11.5058 10.3103 11.5854 10.324 11.665 10.3195C11.7048 10.3167 11.7435 10.3006 11.7776 10.2726C11.8116 10.2446 11.8399 10.2056 11.8599 10.1592C11.8715 10.1151 11.885 10.072 11.9005 10.0302C12.0022 9.8216 12.3044 10.0738 12.4136 9.8722C12.4521 9.80119 12.4485 9.6943 12.4987 9.63803C12.5246 9.61352 12.5547 9.59807 12.5862 9.59309C12.8058 9.53434 13.0277 9.4918 13.2508 9.46566C13.3565 9.45328 13.4942 9.40218 13.4951 9.25935C13.097 9.15408 12.6842 9.22885 12.3208 9.47202C12.1899 9.56028 12.0168 9.74595 11.8907 9.62894C11.8435 9.58512 11.8459 9.46714 11.7809 9.41787C11.7144 9.3675 11.6265 9.38799 11.556 9.40816Z" fill="#3F3D56"/>
<path d="M12.8581 9.7359L13.045 9.78425C13.0106 9.78219 12.9763 9.79004 12.9443 9.80727C12.9123 9.82449 12.8835 9.8507 12.8596 9.88414C12.8358 9.91758 12.8175 9.95748 12.806 10.0012C12.7945 10.0449 12.7901 10.0914 12.793 10.1376C12.968 10.2163 13.1588 10.1397 13.3432 10.1502C13.5275 10.1606 13.742 10.3379 13.7106 10.5827C13.701 10.6567 13.6693 10.7307 13.6858 10.8024C13.6974 10.8527 13.7303 10.8884 13.7489 10.9347C13.7877 11.0312 13.7567 11.1533 13.7078 11.241C13.6588 11.3287 13.5931 11.3987 13.5501 11.492C13.4433 11.7239 13.504 12.0236 13.5676 12.2827C13.586 12.3806 13.62 12.4719 13.6672 12.5504C13.7615 12.6853 13.9151 12.697 14.0527 12.6998C14.1528 12.7017 14.2675 12.6951 14.3308 12.5906C14.4135 12.4543 14.3557 12.2415 14.4101 12.0815C14.4595 11.9361 14.5855 11.8738 14.6996 11.8295C14.9086 11.7485 15.1217 11.6796 15.3193 11.5573C15.5647 11.4053 15.7941 11.1685 16.0638 11.1489C16.1395 11.1434 16.217 11.1554 16.2899 11.1275C16.3628 11.0996 16.432 11.0148 16.4265 10.913C16.4218 10.8261 16.3672 10.7622 16.3245 10.6967C16.2818 10.6312 16.2483 10.5304 16.2875 10.461L16.9945 10.2833C16.9444 10.0994 16.9054 9.85724 17.0205 9.73755C17.0621 9.69437 17.1177 9.67711 17.1531 9.62491C17.2134 9.53593 17.183 9.38266 17.1134 9.30699C17.0438 9.23132 16.9497 9.21375 16.8606 9.20378C16.5506 9.16912 16.2388 9.19202 15.9282 9.21495C15.321 9.25975 14.7138 9.30456 14.1067 9.34936C13.9845 9.35838 13.8433 9.3446 13.7312 9.40074C13.6363 9.44827 13.5689 9.53551 13.4603 9.56616C13.2599 9.62274 13.0394 9.58445 12.8581 9.7359Z" fill="#3F3D56"/>
<path d="M16.2062 11.7247C16.1871 11.7207 16.1676 11.7266 16.1518 11.7414C16.1413 11.7569 16.135 11.7768 16.134 11.7978C16.122 11.8904 16.1364 11.9858 16.1743 12.0648C16.1936 12.1035 16.2203 12.1346 16.2515 12.1547C16.2828 12.1749 16.3175 12.1834 16.352 12.1795C16.4362 12.165 16.4982 12.0684 16.5756 12.0212C16.6948 11.9486 17.2012 11.8354 16.8509 11.5806C16.7302 11.4928 16.6522 11.5703 16.557 11.6281C16.4488 11.7027 16.3275 11.7361 16.2062 11.7247Z" fill="#3F3D56"/>
<path d="M19.2743 9.59217C19.2334 9.61467 19.1992 9.65477 19.177 9.70621C19.1667 9.73233 19.1644 9.76274 19.1703 9.79115C19.1763 9.81956 19.1902 9.8438 19.209 9.85884C19.2243 9.8663 19.2405 9.86976 19.2567 9.86903L19.4231 9.87572C19.4937 9.87857 19.582 9.89882 19.6009 9.99049C19.615 10.0585 19.5835 10.146 19.6216 10.1946C19.6379 10.2117 19.6575 10.222 19.6781 10.2244C19.7329 10.2433 19.7901 10.2458 19.8457 10.2316C19.9667 10.1879 19.9031 10.0885 19.9413 9.99997C19.9996 9.86451 19.9895 9.94651 20.0922 9.86888C20.1681 9.81154 20.2662 9.70753 20.2028 9.56139C20.0927 9.30727 19.4368 9.483 19.2743 9.59217Z" fill="#3F3D56"/>
<path d="M22.557 9.46443L22.4604 9.48178C22.2426 9.5209 22.0236 9.56038 21.8138 9.64843C21.9046 9.69675 21.9999 9.72822 22.097 9.74196C22.1504 9.74549 22.2035 9.75565 22.2556 9.77232C22.3482 9.80944 22.4416 9.90532 22.5311 9.85621C22.5866 9.82576 22.6047 9.74796 22.6507 9.70674C22.6824 9.67827 22.8028 9.63219 22.8163 9.60346C22.9251 9.37117 22.6406 9.4494 22.557 9.46443Z" fill="#3F3D56"/>
<path d="M22.981 10.0552C22.852 10.1523 22.7323 10.2703 22.6246 10.4065C22.5792 10.4639 22.5329 10.5354 22.537 10.619C22.5425 10.7302 22.6304 10.7947 22.7067 10.8381L23.0154 11.0141C23.0528 10.9431 23.0186 10.845 22.9799 10.7751C22.9412 10.7053 22.8952 10.6245 22.9123 10.5404C22.9318 10.4445 23.0186 10.4119 23.0915 10.3953C23.2101 10.3684 23.5303 10.3706 23.4918 10.1131C23.4465 9.80971 23.1001 9.96551 22.981 10.0552Z" fill="#3F3D56"/>
<path d="M22.9189 27.2239C22.8895 27.3385 22.8867 27.4734 22.9375 27.5734C22.9946 27.6857 23.1088 27.7275 23.2075 27.699C23.3059 27.6638 23.3936 27.5879 23.4582 27.4821C23.5173 27.3934 23.5659 27.293 23.6024 27.1844C23.6533 27.0152 23.6891 26.8385 23.7093 26.6579L23.8051 25.9804C23.8265 25.829 23.8257 25.3647 23.619 25.516C23.5625 25.5573 23.4317 25.8836 23.3725 25.9761C23.2659 26.1428 23.2518 26.3046 23.1956 26.5066C23.1253 26.7596 22.9839 26.9705 22.9189 27.2239Z" fill="#3F3D56"/>
<path d="M33.8378 30.6913C33.7701 30.6558 33.7045 30.6137 33.6413 30.5654C33.578 30.7998 33.5444 31.0468 33.5417 31.2961L34.0046 30.9435C34.0743 30.8904 34.1532 30.8167 34.1517 30.709C34.1523 30.6957 34.1503 30.6824 34.1458 30.6706C34.1413 30.6587 34.1345 30.6487 34.1261 30.6416C34.1158 30.636 34.1046 30.6343 34.0937 30.6365C34.025 30.6442 33.9624 30.6896 33.8977 30.7213C33.8329 30.7529 33.7572 30.7696 33.6978 30.7227" fill="#3F3D56"/>
<path d="M36.2796 30.9005C36.2288 30.9191 36.1792 30.9431 36.1312 30.9722C36.0249 31.045 35.9527 31.1832 35.8571 31.279C35.7656 31.3707 35.6555 31.4211 35.5474 31.47C35.5156 31.5079 35.5302 31.5841 35.5647 31.6173C35.6018 31.6457 35.6444 31.6586 35.687 31.6543C35.7993 31.6576 35.9176 31.6591 36.016 31.5861C36.0714 31.5377 36.1232 31.4823 36.1708 31.4206C36.2859 31.2914 36.424 31.2061 36.5607 31.1238C36.6105 31.0985 36.6565 31.0614 36.6966 31.0144C36.7825 30.9004 36.7885 30.7247 36.6646 30.6859C36.5646 30.6545 36.3749 30.859 36.2796 30.9005Z" fill="#3F3D56"/>
<path d="M37.3586 29.9518C37.3642 29.8734 37.3564 29.7943 37.336 29.7205C37.3155 29.6468 37.2828 29.5802 37.2405 29.5259C37.2392 29.6828 37.2357 29.8499 37.1701 29.9796C37.1234 30.072 37.0502 30.1345 36.9991 30.2225C36.9479 30.3106 36.9252 30.4501 36.9852 30.5274C37.0236 30.5667 37.0703 30.5883 37.1185 30.5892C37.2379 30.6081 37.3762 30.6186 37.46 30.5025C37.5057 30.439 37.5279 30.3451 37.5837 30.2985C37.6045 30.2868 37.623 30.2689 37.638 30.2462C37.661 30.1969 37.6244 30.132 37.5833 30.1142C37.5421 30.0964 37.4967 30.1048 37.4553 30.0879C37.4139 30.0711 37.3759 30.0084 37.3972 29.9577" fill="#3F3D56"/>
<path d="M35.441 24.2001C35.3784 24.2206 35.3135 24.2257 35.2494 24.2153C35.1431 24.189 35.0603 24.0811 34.9745 23.9926C34.7704 23.7834 34.5222 23.6667 34.2658 23.6592C34.0325 23.6533 33.797 23.7384 33.5679 23.679C33.5828 23.7911 33.6541 23.8752 33.7301 23.9252C33.8061 23.9752 33.89 24.0003 33.9664 24.0493C34.0888 24.1284 34.1858 24.2643 34.2397 24.432C34.2643 24.5093 34.2798 24.5935 34.3171 24.661C34.3933 24.799 34.5376 24.8293 34.6651 24.818C34.8312 24.8033 35.0047 24.7389 35.1593 24.8223C35.2775 24.886 35.3621 25.0253 35.4608 25.1337C35.5596 25.242 35.6986 25.3224 35.812 25.2442C35.6942 25.1929 35.5917 25.0923 35.5195 24.957C35.4472 24.8217 35.409 24.6589 35.4103 24.4923C35.5215 24.506 35.8417 24.5007 35.8245 24.2464C35.8099 24.0308 35.5365 24.1768 35.441 24.2001Z" fill="#3F3D56"/>
<path d="M33.9865 25.9539C34.0062 25.8081 34.1142 25.6794 34.0806 25.5383C34.0573 25.4408 33.9733 25.3926 33.8972 25.3902C33.8211 25.3878 33.7464 25.4183 33.6703 25.4212C33.6208 25.4176 33.5711 25.4186 33.5217 25.424C33.3707 25.4574 33.2776 25.6706 33.1352 25.7463C33.0487 25.7924 32.9515 25.7836 32.8615 25.8155C32.6572 25.8878 32.5279 26.1477 32.3851 26.3572C32.1543 26.6943 31.8537 26.9303 31.5221 27.0348C31.4059 27.071 31.2811 27.0941 31.1887 27.1957C31.0664 27.3302 31.0363 27.5608 31.0091 27.7702C30.934 28.3485 30.8191 28.9162 30.666 29.4659L31.1512 29.5493C31.2434 29.5652 31.339 29.5807 31.4278 29.5439C31.4924 29.5111 31.5536 29.4673 31.6098 29.4134C31.8259 29.2328 32.0677 29.1153 32.3197 29.0685C32.4467 29.045 32.5799 29.0407 32.6991 29.1043C32.8183 29.1678 32.9206 29.312 32.9306 29.4841C32.9822 29.4625 33.0371 29.4602 33.0896 29.4774C33.142 29.4945 33.1901 29.5306 33.2285 29.5816C33.3045 29.6859 33.3542 29.8195 33.3707 29.9639C33.3835 30.0532 33.3963 30.1603 33.4579 30.1978C33.5081 30.2283 33.5657 30.1954 33.6207 30.1895C33.8072 30.1694 33.962 30.4622 34.1453 30.4118C34.3419 30.3577 34.3902 29.9613 34.582 29.8819C34.6922 29.8363 34.8467 29.8917 34.8995 29.7537C34.946 29.6322 34.8532 29.4918 34.8628 29.3557C34.8746 29.188 35.0215 29.1169 35.1347 29.0453C35.5251 28.7987 35.7104 28.0913 35.5212 27.5696C35.4091 27.2604 35.1885 27.0171 35.1478 26.6775C35.1165 26.4162 35.193 26.1116 35.0692 25.9059C35.0063 25.8013 34.8997 25.7435 34.8623 25.6187C34.8387 25.5401 34.8482 25.451 34.8355 25.368C34.8228 25.2849 34.769 25.1981 34.7081 25.2196C34.5314 25.2821 34.475 26.0171 34.3803 26.1957C34.2365 26.4672 33.9412 26.2884 33.9865 25.9539Z" fill="#3F3D56"/>
<path d="M30.7197 24.4777C30.6593 24.4549 30.5934 24.4325 30.5355 24.4651C30.4776 24.4977 30.4438 24.612 30.4903 24.6688C30.8537 24.6497 31.2193 24.6308 31.5795 24.6973C31.9946 24.7738 32.4054 24.9634 32.8224 24.9076C32.5842 24.813 32.3421 24.7374 32.0973 24.6811L31.6892 24.5762C31.5797 24.5453 31.4691 24.5223 31.3578 24.5072C31.1249 24.4813 30.9487 24.5642 30.7197 24.4777Z" fill="#3F3D56"/>
<path d="M31.0835 22.7742C31.0533 22.7708 31.016 22.7679 31.0004 22.8028C30.9855 22.8362 31.0025 22.8802 30.9945 22.9177C30.9836 22.9688 30.9338 22.9818 30.8947 22.9749C30.8555 22.9679 30.8131 22.9512 30.7784 22.9767C30.7608 22.9929 30.7476 23.0163 30.7407 23.0434C30.7339 23.0706 30.7337 23.1 30.7403 23.1273C30.7545 23.1815 30.7775 23.2307 30.8075 23.2715C30.8588 23.3586 30.9173 23.4375 30.9818 23.5069C31.1067 23.631 31.2759 23.6908 31.3546 23.871C31.3657 23.9059 31.3827 23.9368 31.4044 23.9612C31.4421 23.9934 31.4914 23.9689 31.532 23.9439L31.6745 23.8562C31.7002 23.8438 31.7231 23.8228 31.7412 23.7952C31.7737 23.7357 31.7537 23.6512 31.7264 23.5871C31.6991 23.523 31.6641 23.4567 31.6699 23.3833C31.6804 23.2523 31.8055 23.2022 31.8569 23.0901C31.9088 22.9772 31.875 22.8316 31.881 22.6991C31.888 22.5441 31.9603 22.3425 31.8439 22.2267C31.745 22.1282 31.6505 22.2192 31.5794 22.3278C31.4297 22.557 31.3588 22.8052 31.0835 22.7742Z" fill="#3F3D56"/>
<path d="M31.9485 20.4581C31.9972 20.5835 32.0986 20.6584 32.1517 20.7805C32.2092 20.9129 32.2026 21.084 32.265 21.2123C32.329 21.3439 32.4578 21.4138 32.4937 21.5636C32.5329 21.727 32.444 21.9257 32.5149 22.0686C32.5281 22.0919 32.5448 22.1113 32.5639 22.1256C32.5829 22.1398 32.604 22.1485 32.6257 22.1512C32.6474 22.1539 32.6693 22.1505 32.69 22.1412C32.7107 22.1319 32.7297 22.1169 32.7459 22.0972C32.7758 22.0534 32.7918 21.9956 32.7905 21.9361C32.7891 21.8767 32.7706 21.8203 32.7389 21.7789C32.6969 21.7274 32.6367 21.7051 32.6016 21.645C32.5834 21.6102 32.5712 21.5704 32.5661 21.5284C32.547 21.4074 32.55 21.2819 32.575 21.1628C32.5844 21.1326 32.5867 21.0992 32.5818 21.0671C32.566 21.0054 32.504 21.001 32.4604 20.9724C32.3614 20.9074 32.3638 20.7193 32.3811 20.5729C32.3696 20.6704 32.1117 20.5046 32.0846 20.4494C32.031 20.3397 32.0602 20.1281 32.0496 20.0068C31.9337 20.082 31.8891 20.3048 31.9485 20.4581Z" fill="#3F3D56"/>
<path d="M29.35 22.3878C29.3024 22.316 29.2307 22.241 29.1668 22.2842C29.1181 22.3172 29.1047 22.4079 29.1238 22.4767C29.1471 22.5435 29.1829 22.6009 29.2277 22.6434C29.3607 22.7911 29.5039 22.9244 29.62 23.096C29.8276 23.4033 29.9376 23.8178 30.1635 24.1008C30.2089 24.1665 30.269 24.2102 30.3346 24.2255C30.4004 24.2338 30.4743 24.1771 30.4818 24.0887C30.4881 24.0159 30.4504 23.9507 30.4135 23.8968C30.3258 23.7683 30.2298 23.6501 30.1469 23.5158C30.1087 23.4643 30.0846 23.3967 30.0788 23.3242C30.0784 23.252 30.1273 23.1763 30.1793 23.1942C30.1161 23.1724 30.0692 23.0306 29.9763 23.0039C29.8987 22.9816 29.88 23.0463 29.7876 22.9929C29.6115 22.8912 29.4733 22.5736 29.35 22.3878Z" fill="#3F3D56"/>
<path d="M33.4884 15.4013C33.4379 15.3811 33.3882 15.3572 33.3396 15.3298C33.2088 15.2769 33.0358 15.4063 33.0533 15.5887C33.0648 15.7098 33.1486 15.7914 33.1948 15.8965C33.2634 16.0523 33.2451 16.2499 33.2091 16.4244C33.2002 16.4785 33.1834 16.5295 33.1596 16.5746C33.1263 16.6223 33.0865 16.6608 33.0424 16.6881C32.8658 16.8214 32.7101 16.9996 32.5838 17.2126C32.5701 17.2323 32.5605 17.2566 32.5561 17.2829C32.5499 17.3445 32.5958 17.3893 32.6218 17.4407C32.6795 17.5547 32.6378 17.7082 32.6435 17.8459C32.6426 17.8654 32.6455 17.8849 32.6518 17.9025C32.658 17.9201 32.6675 17.9352 32.6794 17.9465C32.7142 17.9703 32.7554 17.9298 32.7743 17.8839C32.8368 17.7312 32.7897 17.4863 32.9071 17.4127C32.9293 17.3987 32.9562 17.3929 32.971 17.3666C32.9945 17.325 32.9718 17.2633 32.9838 17.2135C33.0016 17.1387 33.0776 17.1354 33.1359 17.1387C33.2363 17.1443 33.3367 17.1263 33.4325 17.0855C33.47 17.0735 33.5042 17.0469 33.5306 17.009C33.5657 16.95 33.5626 16.8662 33.5556 16.7912C33.5205 16.4175 33.4326 16.0564 33.2966 15.7272C33.3997 15.7449 33.5119 15.7602 33.6009 15.6879C33.6507 15.6474 33.7104 15.5262 33.6857 15.4438C33.6466 15.3134 33.576 15.4231 33.4884 15.4013Z" fill="#3F3D56"/>
<path d="M20.2691 17.4568C20.2814 17.5459 20.2935 17.6397 20.2718 17.7255C20.2501 17.8113 20.1819 17.883 20.1175 17.8567C20.0675 17.8363 20.0386 17.7687 20.0031 17.717C19.8056 17.4301 19.3602 17.5962 19.2382 17.2412C19.1884 17.0963 19.2222 16.9227 19.1883 16.7697C19.1668 16.6813 19.1242 16.605 19.0671 16.5527C19.01 16.5005 18.9415 16.4753 18.8726 16.481C18.8097 16.4933 18.7485 16.5179 18.691 16.554C18.3053 16.762 17.9004 16.8983 17.4875 16.9593C17.409 16.9657 17.3313 16.9847 17.2562 17.0159C17.0866 17.0987 16.9708 17.3103 16.8883 17.5263C16.8059 17.7422 16.745 17.976 16.6345 18.1679C16.5183 18.3696 16.3555 18.5108 16.2036 18.6635C16.1451 18.7143 16.0964 18.783 16.0615 18.864C16.0286 18.955 16.0304 19.0609 16.033 19.162L16.064 20.3906C16.068 20.5486 16.073 20.7123 16.1256 20.8537C16.1912 21.0303 16.3208 21.146 16.4107 21.302C16.5024 21.4623 16.5502 21.6603 16.546 21.8626C16.5441 21.944 16.5381 22.0402 16.5851 22.0913C16.6137 22.1162 16.6472 22.1292 16.6813 22.1285L17.9158 22.2645C18.1329 22.2885 18.3736 22.3278 18.5154 22.5505C18.5823 22.6556 18.636 22.8068 18.7385 22.8181C18.7825 22.8229 18.8252 22.7986 18.8692 22.7939C18.9801 22.7821 19.0776 22.8955 19.1391 23.0203C19.2322 23.2106 19.2744 23.4378 19.2589 23.6647C19.2488 23.8072 19.216 23.9456 19.2089 24.0884C19.182 24.6315 19.5241 25.1034 19.5307 25.6477C19.5346 25.9679 19.4217 26.267 19.3116 26.5509C19.4893 26.9132 19.3438 27.3956 19.4145 27.8191C19.4816 28.221 19.7305 28.5355 19.7925 28.9388C19.8209 29.1235 19.8225 29.3507 19.9435 29.4458C19.9965 29.4806 20.0554 29.4964 20.1143 29.4918C20.4698 29.4975 20.8212 29.3898 21.1398 29.1775C21.2893 29.0776 21.4443 28.9285 21.4704 28.7065C21.4915 28.5275 21.424 28.3273 21.4927 28.1713C21.5735 27.9876 21.7807 28.0021 21.8997 27.8608C22.0928 27.6316 21.9422 27.1945 22.0205 26.8643C22.0908 26.5676 22.3328 26.4099 22.4528 26.1436C22.5 26.029 22.5339 25.9054 22.5532 25.777C22.6082 25.4702 22.6424 25.1573 22.6554 24.8421C22.6586 24.6507 22.6691 24.4596 22.6869 24.2695C22.8162 23.1877 23.6106 22.4633 23.8686 21.424C23.8932 21.3247 23.9048 21.1925 23.8392 21.1363C23.8003 21.1114 23.7562 21.1051 23.7143 21.1187L23.1452 21.2153C23.0745 21.2273 22.9996 21.2385 22.9347 21.199C22.8698 21.1595 22.8233 21.0489 22.8577 20.965C22.9543 20.7293 22.7555 20.4315 22.6672 20.1899C22.4293 19.5395 22.1461 18.9211 21.8212 18.3429C21.8004 18.3131 21.7874 18.2751 21.7841 18.2345L21.9456 18.2417C21.8911 17.9783 21.8012 17.6901 21.6111 17.5938C21.504 17.5395 21.3854 17.5583 21.2711 17.5667C20.9439 17.5908 20.593 17.5242 20.2691 17.4568Z" fill="#3F3D56"/>
<path d="M21.2714 11.5219C21.3571 11.6443 21.4531 11.7741 21.577 11.7955C21.7958 11.8332 21.9532 11.5285 22.0534 11.2638C22.0571 11.3313 22.0802 11.3942 22.1178 11.439C22.1554 11.4839 22.2045 11.5073 22.2547 11.5042C22.3088 11.4919 22.3603 11.4648 22.4062 11.4244C22.8398 11.1054 23.3256 10.9364 23.8197 10.9325C23.815 10.8821 23.8243 10.8311 23.8458 10.7894C23.8673 10.7477 23.8996 10.7182 23.9363 10.7066C24.0368 10.6798 24.1273 10.7967 24.1757 10.9182C24.2242 11.0397 24.2544 11.1805 24.3314 11.2714C24.4084 11.3623 24.5575 11.3584 24.5879 11.2267C24.6171 11.1003 24.5193 10.9925 24.438 10.918C24.3568 10.8434 24.2711 10.7055 24.3258 10.5955C24.741 10.4718 25.1588 10.3476 25.5837 10.323C25.656 10.3264 25.7281 10.3096 25.7954 10.2739C25.8602 10.2311 25.9117 10.1339 25.8943 10.0396C25.8016 10.0689 25.7045 10.0604 25.6154 10.0152C25.5262 9.96994 25.4492 9.88998 25.3939 9.78551C25.9835 9.72002 26.6105 9.6642 27.1329 10.0376C27.1956 10.2188 26.8761 10.3696 26.9616 10.533C26.9889 10.5851 27.0435 10.5913 27.0908 10.5924C27.4539 10.6015 27.8191 10.6104 28.178 10.5366C28.3092 10.5097 28.4417 10.4716 28.5734 10.4935C28.7928 10.5299 28.9804 10.7269 29.1962 10.7912C29.284 10.8173 29.3825 10.8182 29.4566 10.7494C29.5306 10.6806 29.5625 10.524 29.5018 10.4346C29.705 10.1665 30.0422 10.233 30.3103 10.3613C30.5784 10.4897 30.8323 10.6967 31.116 10.7253C31.3195 10.7458 31.5258 10.6721 31.7268 10.719C31.8532 10.7484 31.9707 10.824 32.0942 10.8705C32.3277 10.9584 32.5748 10.9399 32.8172 10.9441C33.4359 10.9553 34.0478 11.119 34.6226 11.4271C34.6974 11.4599 34.7659 11.5144 34.8233 11.5867C34.8768 11.6638 34.9041 11.7837 34.8682 11.8774L34.2742 11.7606C34.3301 11.9089 34.4749 11.9342 34.5925 11.9853C34.7101 12.0365 34.832 12.2113 34.7613 12.3478C34.6339 12.2932 34.5185 12.4647 34.4541 12.6224C34.3898 12.7802 34.3113 12.9692 34.1778 12.9788C34.0583 12.9874 33.9137 12.8504 33.8357 12.9727C33.9434 13.1556 34.0356 13.354 34.1106 13.5643C34.1876 13.7803 34.2424 14.0524 34.1384 14.2467C34.122 14.2813 34.0972 14.3073 34.0682 14.32C33.9832 14.3489 33.9279 14.209 33.867 14.1241C33.7902 14.0172 33.6741 13.9869 33.57 13.9368C33.466 13.8867 33.3565 13.788 33.3483 13.6397C33.3433 13.5474 33.3795 13.4617 33.4061 13.3764C33.4509 13.2326 33.4705 13.0769 33.4634 12.9213C33.4576 12.7961 33.4315 12.6659 33.3647 12.5784C33.2979 12.4909 33.1826 12.4632 33.1109 12.5433C33.0775 12.5807 33.0507 12.6405 33.0072 12.6427C32.9305 12.6467 32.8715 12.4665 32.8098 12.528C32.817 12.5935 32.8069 12.6604 32.7813 12.7169C32.597 12.9327 32.3139 12.8414 32.0763 12.9176C31.9633 12.9611 31.8552 13.0247 31.7547 13.1067C31.7171 13.1284 31.6851 13.1645 31.6628 13.2106C31.6331 13.2882 31.6658 13.3875 31.7181 13.4391C31.7735 13.4849 31.8358 13.5135 31.9004 13.5229C32.1901 13.5968 32.4839 13.7111 32.7126 13.9615C32.9413 14.212 33.0912 14.626 33.0188 15.0107L32.4477 14.276C32.4694 14.5845 32.4817 14.8938 32.4846 15.204C32.4883 15.2646 32.4821 15.3255 32.4665 15.3825C32.4258 15.5036 32.3154 15.5443 32.2187 15.5711C32.1918 15.578 32.1663 15.5924 32.1439 15.6135C32.1214 15.6346 32.1025 15.6619 32.0885 15.6935C32.0744 15.7251 32.0654 15.7604 32.0622 15.797C32.059 15.8336 32.0616 15.8707 32.0697 15.9059C32.1041 16.0566 32.1898 16.1742 32.2682 16.2913C32.3467 16.4084 32.4238 16.5416 32.4341 16.6987C32.4444 16.8558 32.3563 17.0328 32.2395 17.0219C32.1509 17.0136 32.0852 16.9069 32.0474 16.7987C32.0096 16.6905 31.9871 16.57 31.9303 16.478C31.7585 16.1998 31.3725 16.319 31.2185 16.0224C31.1793 16.0823 31.1521 16.1547 31.1395 16.2328C31.1269 16.3109 31.1293 16.392 31.1465 16.4684C31.2182 16.4081 31.3162 16.4641 31.37 16.5518C31.4238 16.6396 31.4492 16.752 31.4915 16.8505C31.5485 16.9834 31.6392 17.1013 31.6472 17.2544C31.6451 17.3123 31.6458 17.3703 31.6494 17.4281C31.6635 17.5209 31.7218 17.5875 31.7621 17.665C31.8561 17.8455 31.8515 18.0934 31.7909 18.2981C31.7303 18.5029 31.6215 18.6739 31.5137 18.8398C31.3255 19.1295 31.1334 19.4175 30.9102 19.6581C30.8465 19.7268 30.7785 19.7943 30.7389 19.8903C30.6992 19.9862 30.6972 20.121 30.7581 20.194C30.7145 20.1969 30.6363 20.2258 30.5927 20.2287C30.5773 19.9932 30.574 19.7565 30.5827 19.5204C30.4106 19.4091 30.2253 19.7071 30.2475 19.9623C30.2697 20.2176 30.4068 20.4225 30.5045 20.6434C30.5759 20.8049 30.629 20.9932 30.6051 21.1784C30.5813 21.3636 30.4585 21.5345 30.3194 21.5181C30.0982 21.4921 30.0056 21.0646 29.7866 21.0156C29.7672 21.0095 29.7469 21.0122 29.7289 21.0233C29.6964 21.0474 29.6907 21.1059 29.6889 21.1558C29.6799 21.4006 29.6722 21.6552 29.7432 21.8809C29.847 22.2111 30.1153 22.4885 30.059 22.839C29.7558 22.6492 29.5982 22.1915 29.5267 21.7519C29.4551 21.3122 29.4432 20.8506 29.3149 20.435C29.2174 20.6031 29.0127 20.4642 28.9237 20.2878C28.8393 20.1206 28.7873 19.9272 28.7055 19.7578C28.6236 19.5884 28.4982 19.4366 28.3482 19.4273C28.191 19.4176 28.0546 19.5628 27.9347 19.7001C27.836 19.813 27.7348 19.9303 27.6771 20.0863C27.5932 20.3134 27.6152 20.581 27.6112 20.8345C27.6068 21.1086 27.5636 21.3978 27.4249 21.5985C27.2861 21.7991 27.03 21.869 26.877 21.6882C26.797 21.5938 26.7584 21.4527 26.7239 21.3173C26.5578 20.6646 26.4195 19.9998 26.3096 19.3259C26.2838 19.4797 26.1835 19.6779 26.0877 19.5873C26.0662 19.563 26.0488 19.5328 26.0366 19.4987C25.8578 19.0908 25.5268 18.8461 25.1923 18.6994C24.8578 18.5528 24.5059 18.4843 24.1751 18.3231C23.9897 18.2327 23.8127 18.114 23.6474 17.9693C23.6053 18.0526 23.5807 18.1497 23.5763 18.2503C23.5718 18.3509 23.5876 18.4513 23.6221 18.5407C23.6955 18.7156 23.8615 18.8168 24.0036 18.7557C24.0771 18.7241 24.1391 18.6555 24.212 18.6216C24.2848 18.5877 24.3827 18.6043 24.4145 18.6988C24.445 18.7893 24.3989 18.8988 24.4218 18.9932C24.4566 19.1371 24.6178 19.1482 24.6742 19.2791C24.7161 19.3765 24.6816 19.5059 24.6217 19.5845C24.5619 19.6631 24.482 19.7062 24.4089 19.761C24.1717 19.9385 24.0031 20.2416 23.7958 20.4774C23.5885 20.7132 23.2961 20.8854 23.0491 20.7341C23.108 20.3327 22.7528 20.038 22.6875 19.6384C22.666 19.5069 22.6771 19.3672 22.6464 19.2391C22.602 19.0535 22.4797 18.9259 22.3794 18.7853C22.2577 18.6129 22.1629 18.4094 22.1006 18.1869C22.0382 17.9643 22.0097 17.7272 22.0165 17.4896C22.0219 17.3245 22.0445 17.1566 22.0165 16.9957C21.9886 16.8347 21.8896 16.6789 21.7669 16.6862C21.4868 16.7029 21.1338 16.7309 20.9868 16.4094C20.9344 16.2946 20.9115 16.1266 20.9874 16.0387C21.0409 15.9766 21.1199 15.9825 21.1901 15.9918L21.8214 16.0754C21.969 16.0949 22.1286 16.1111 22.2553 16.0072C22.382 15.9032 22.4369 15.6274 22.3196 15.5052C22.2339 15.4158 22.0803 15.4207 22.0554 15.2787C22.0346 15.1604 22.1319 15.0262 22.0794 14.9273C22.0417 14.8565 21.957 14.8761 21.9057 14.9292C21.8544 14.9824 21.8172 15.0601 21.7598 15.1003C21.659 15.1709 21.5387 15.1037 21.4303 15.0581C21.322 15.0124 21.1767 15.0086 21.1241 15.1441C21.0653 15.2956 21.1762 15.4942 21.1179 15.646C21.0408 15.8468 20.7796 15.7325 20.6712 15.9052C20.5469 16.1034 20.7558 16.3989 20.7139 16.652C20.6604 16.6877 20.6009 16.7041 20.5413 16.6996C20.4816 16.6951 20.4239 16.6698 20.3737 16.6263C20.3243 16.5811 20.2849 16.5187 20.2598 16.4457C20.2346 16.3728 20.2247 16.292 20.2309 16.2121C20.2413 16.0982 20.2854 15.9819 20.2558 15.8743C20.2319 15.7873 20.167 15.7355 20.1067 15.6906L19.4933 15.2343C19.4363 15.3765 19.5083 15.5528 19.5984 15.6597C19.6884 15.7665 19.8012 15.847 19.8604 15.9876C19.8978 16.085 19.9062 16.1979 19.8838 16.3034C19.8615 16.4089 19.81 16.4988 19.7401 16.555C19.7313 16.5631 19.7213 16.5686 19.7108 16.5711C19.7003 16.5736 19.6896 16.5729 19.6793 16.5693C19.6695 16.5615 19.6609 16.5512 19.6542 16.539C19.6474 16.5267 19.6425 16.5127 19.6398 16.4979C19.5316 16.125 19.3691 15.7573 19.1093 15.5625C18.8495 15.3678 18.4762 15.4078 18.3058 15.7359C18.2653 15.8139 18.2382 15.9027 18.2029 15.9851C18.0157 16.4229 17.6141 16.6302 17.239 16.6167C17.2023 16.6194 17.1658 16.6078 17.1339 16.5834C17.0732 16.527 17.076 16.4074 17.0853 16.309L17.1246 15.8914C17.1325 15.8076 17.144 15.7149 17.1933 15.6625C17.2628 15.5887 17.363 15.6353 17.4515 15.6336C17.5186 15.6294 17.583 15.5975 17.6362 15.5423C17.6893 15.4871 17.7286 15.4112 17.7486 15.3249C17.7665 15.2378 17.7664 15.1458 17.7483 15.0588C17.7302 14.9718 17.6948 14.8931 17.6459 14.8311C17.6053 14.7799 17.5509 14.7154 17.5723 14.6463C17.5809 14.6272 17.5924 14.6108 17.6062 14.5983C17.6199 14.5858 17.6356 14.5776 17.6519 14.5741C17.8109 14.512 17.9789 14.4957 18.1352 14.4223C18.2915 14.349 18.4431 14.199 18.4801 13.9818C18.4915 13.9152 18.4966 13.8346 18.541 13.8016C18.5633 13.7889 18.5873 13.7823 18.6115 13.7822C18.6962 13.766 18.7734 13.7076 18.8278 13.6186C18.8821 13.5296 18.9098 13.4165 18.9053 13.3014C18.9802 13.2309 19.0852 13.2827 19.1577 13.3577C19.2301 13.4327 19.2941 13.5317 19.3823 13.564C19.5467 13.6242 19.7055 13.4283 19.8758 13.4274C19.9474 13.427 20.0216 13.4611 20.0889 13.4284C20.1573 13.3953 20.198 13.3038 20.2505 13.2361C20.3029 13.1685 20.3949 13.1272 20.4433 13.2001L20.4021 12.789C20.4851 12.8172 20.5716 12.8212 20.6559 12.8007C20.7402 12.7802 20.8202 12.7357 20.8906 12.6701L20.3578 12.4277C20.3393 12.4215 20.3222 12.4092 20.308 12.3919C20.2693 12.3357 20.3078 12.2482 20.3393 12.1844C20.4146 12.0317 20.4273 11.7802 20.3033 11.7041C20.2188 11.6522 20.1217 11.7145 20.0405 11.7755L19.6516 12.0674C19.6393 12.1669 19.7297 12.2233 19.7857 12.2903C19.8196 12.3309 19.8435 12.3843 19.8545 12.4435C19.8654 12.5028 19.8628 12.5651 19.8469 12.6223C19.8311 12.6794 19.8027 12.7288 19.7656 12.764C19.7286 12.7991 19.6845 12.8183 19.6391 12.819C19.6647 12.8638 19.6825 12.9158 19.6912 12.9712C19.6998 13.0265 19.6991 13.0837 19.6891 13.1387L19.4275 13.164C19.3981 13.1719 19.3676 13.1639 19.3426 13.1417C19.3146 13.1082 19.3184 13.0496 19.312 13C19.2963 12.8802 19.2092 12.7963 19.1203 12.7747C19.0314 12.7532 18.9404 12.7808 18.8524 12.808C18.815 12.8262 18.774 12.8249 18.7372 12.8045C18.7162 12.7861 18.7002 12.7589 18.6917 12.7271C18.6531 12.6011 18.6892 12.453 18.7511 12.3452C18.8131 12.2375 18.898 12.1587 18.9742 12.069C19.1565 11.8538 19.2904 11.5742 19.3608 11.2618C19.5048 11.1806 19.6539 11.0702 19.798 10.9889C20.02 10.8376 20.269 10.7726 20.517 10.8014L21.0048 10.8139C21.1492 10.8176 21.2975 10.8224 21.4311 10.8965C21.5646 10.9706 21.682 11.1309 21.6912 11.325C21.694 11.347 21.6925 11.3695 21.6871 11.3906C21.6816 11.4116 21.6723 11.4304 21.6599 11.4453C21.641 11.4591 21.6197 11.4656 21.5982 11.464C21.4635 11.4703 21.4061 11.5155 21.2714 11.5219Z" fill="#3F3D56"/>
<path d="M17.3835 13.5799C17.4025 13.5556 17.4163 13.5247 17.4231 13.4906C17.43 13.4566 17.4297 13.4206 17.4224 13.3867C17.376 13.3626 17.3256 13.3564 17.2767 13.3688C17.2279 13.3812 17.1826 13.4117 17.146 13.4569C17.1171 13.4963 17.0922 13.5406 17.0719 13.5887C17.0078 13.7295 16.9511 13.8977 16.9883 14.0551C16.9913 14.0722 16.9968 14.0884 17.0046 14.1026C17.0123 14.1169 17.0221 14.1289 17.0333 14.138C17.0499 14.147 17.0679 14.1508 17.0858 14.149C17.1564 14.1489 17.2269 14.1431 17.297 14.1315C17.3401 14.1245 17.39 14.1081 17.4067 14.0542C17.4285 13.9833 17.3756 13.9031 17.3911 13.8292C17.4012 13.7962 17.4166 13.7665 17.4361 13.7423C17.4458 13.7302 17.4533 13.7151 17.4579 13.6983C17.4625 13.6816 17.4641 13.6636 17.4627 13.6459C17.4565 13.6112 17.4171 13.5916 17.4029 13.6217" fill="#3F3D56"/>
<path d="M17.7497 12.9408C17.6869 12.9214 17.6223 12.916 17.5582 12.9247C17.5441 12.9241 17.53 12.9284 17.5175 12.9371C17.5053 12.9492 17.4964 12.9665 17.4923 12.9861C17.4788 13.0446 17.4821 13.1077 17.5016 13.163C17.5211 13.2183 17.5554 13.2617 17.5976 13.2845C17.6206 13.2916 17.6426 13.3035 17.6629 13.3198C17.717 13.3763 17.6825 13.4919 17.6928 13.5831C17.7043 13.6856 17.7779 13.7715 17.7644 13.8735C17.7538 13.9539 17.69 14.0175 17.7003 14.0979C17.711 14.1822 17.7904 14.2075 17.8537 14.2142C17.8904 14.2229 17.9282 14.2171 17.9625 14.1975C17.9968 14.1658 18.0213 14.1182 18.031 14.0637C18.057 13.9599 18.0678 13.8503 18.0631 13.741C18.0628 13.6912 18.0536 13.6423 18.0361 13.5985C18.017 13.5638 17.9959 13.5312 17.9729 13.5011C17.8517 13.3112 17.9793 13.028 17.7497 12.9408Z" fill="#3F3D56"/>
<path opacity="0.8" d="M33.696 27.8168C33.696 27.8168 24.4082 20.6394 20.4097 21.9994C20.4097 21.9994 11.9356 23.2271 10.9535 25.928C10.9535 25.928 8.2598 14.5953 7.27771 14.2175" stroke="#6C63FF" stroke-width="2" stroke-miterlimit="10"/>
<path opacity="0.8" d="M10.9535 25.9282C12.5109 20.3373 26.5407 14.1421 26.5407 14.1421C24.5485 14.8221 20.4097 21.9995 20.4097 21.9995C20.4097 21.9995 11.655 13.4243 7.27771 14.2176C7.27771 14.2176 26.5548 15.0676 33.696 27.8169" stroke="#6C63FF" stroke-width="2" stroke-miterlimit="10"/>
<path d="M7.27772 14.7654C7.50242 14.7654 7.68458 14.5202 7.68458 14.2177C7.68458 13.9152 7.50242 13.6699 7.27772 13.6699C7.05301 13.6699 6.87085 13.9152 6.87085 14.2177C6.87085 14.5202 7.05301 14.7654 7.27772 14.7654Z" fill="#E2CBF3"/>
<path d="M10.9535 26.4759C11.1782 26.4759 11.3604 26.2306 11.3604 25.9281C11.3604 25.6256 11.1782 25.3804 10.9535 25.3804C10.7288 25.3804 10.5466 25.6256 10.5466 25.9281C10.5466 26.2306 10.7288 26.4759 10.9535 26.4759Z" fill="#E2CBF3"/>
<path d="M26.5407 14.6897C26.7654 14.6897 26.9475 14.4445 26.9475 14.142C26.9475 13.8395 26.7654 13.5942 26.5407 13.5942C26.3159 13.5942 26.1338 13.8395 26.1338 14.142C26.1338 14.4445 26.3159 14.6897 26.5407 14.6897Z" fill="#E2CBF3"/>
<path d="M33.6959 28.3645C33.9206 28.3645 34.1028 28.1193 34.1028 27.8168C34.1028 27.5143 33.9206 27.269 33.6959 27.269C33.4712 27.269 33.2891 27.5143 33.2891 27.8168C33.2891 28.1193 33.4712 28.3645 33.6959 28.3645Z" fill="#E2CBF3"/>
<path d="M20.4097 22.5472C20.6344 22.5472 20.8165 22.3019 20.8165 21.9994C20.8165 21.6969 20.6344 21.4517 20.4097 21.4517C20.185 21.4517 20.0028 21.6969 20.0028 21.9994C20.0028 22.3019 20.185 22.5472 20.4097 22.5472Z" fill="#E2CBF3"/>
</g>
<defs>
<clipPath id="clip0_46_409">
<rect width="40" height="40" fill="white"/>
</clipPath>
</defs>
</svg>
