<svg width="130" height="68" viewBox="0 0 130 68" fill="none" xmlns="http://www.w3.org/2000/svg">
<g clip-path="url(#clip0_46_63)">
<path d="M60.0315 64.5029C59.8395 64.5028 59.6507 64.4575 59.4837 64.3716L27.8124 48.1588C27.555 48.0267 27.3659 47.8075 27.2868 47.5493C27.2076 47.2911 27.2448 47.015 27.3901 46.7816L52.3353 6.83097C52.4074 6.71541 52.504 6.61385 52.6195 6.53209C52.7349 6.45033 52.8671 6.38996 53.0083 6.35445C53.1496 6.31894 53.2971 6.30898 53.4426 6.32514C53.5881 6.34129 53.7287 6.38324 53.8563 6.4486L85.5275 22.6614C85.785 22.7935 85.974 23.0127 86.0532 23.2709C86.1324 23.5291 86.0953 23.8052 85.95 24.0386L61.0047 63.9891C60.9329 64.1049 60.8365 64.2067 60.7209 64.2885C60.6054 64.3703 60.4731 64.4305 60.3317 64.4657C60.234 64.4903 60.133 64.5029 60.0315 64.5029Z" fill="#E6E6E6"/>
<path d="M51.452 8.39627L51.3247 8.6001L84.7969 25.7348L84.9242 25.531L51.452 8.39627Z" fill="white"/>
<path d="M49.1611 12.0652L49.0338 12.269L82.506 29.4037L82.6333 29.1999L49.1611 12.0652Z" fill="white"/>
<path d="M46.8702 15.7342L46.7429 15.938L80.2151 33.0727L80.3424 32.8689L46.8702 15.7342Z" fill="white"/>
<path d="M44.5793 19.4031L44.452 19.6069L77.9242 36.7416L78.0515 36.5378L44.5793 19.4031Z" fill="white"/>
<path d="M42.2884 23.0721L42.1611 23.2759L75.6333 40.4106L75.7606 40.2067L42.2884 23.0721Z" fill="white"/>
<path d="M39.9976 26.741L39.8703 26.9448L73.3425 44.0795L73.4698 43.8757L39.9976 26.741Z" fill="white"/>
<path d="M37.7067 30.4099L37.5794 30.6138L71.0516 47.7485L71.1789 47.5446L37.7067 30.4099Z" fill="white"/>
<path d="M35.4158 34.0786L35.2885 34.2825L68.7607 51.4172L68.888 51.2133L35.4158 34.0786Z" fill="white"/>
<path d="M33.1249 37.7476L32.9976 37.9514L66.4698 55.0861L66.5971 54.8823L33.1249 37.7476Z" fill="white"/>
<path d="M30.834 41.4165L30.7067 41.6204L64.1789 58.755L64.3062 58.5512L30.834 41.4165Z" fill="white"/>
<path d="M28.5432 45.0855L28.4159 45.2893L61.8881 62.424L62.0154 62.2202L28.5432 45.0855Z" fill="white"/>
<path d="M57.0853 58.4267C56.8932 58.4266 56.7045 58.3814 56.5375 58.2955L24.8662 42.0827C24.6087 41.9505 24.4197 41.7313 24.3405 41.4731C24.2614 41.2149 24.2985 40.9388 24.4439 40.7054L49.3891 0.754803C49.4612 0.639244 49.5577 0.53768 49.6732 0.455918C49.7887 0.374155 49.9208 0.313794 50.0621 0.278284C50.2033 0.242775 50.3509 0.232812 50.4964 0.248965C50.6419 0.265118 50.7825 0.307072 50.9101 0.372427L82.5813 16.5852C82.8388 16.7174 83.0278 16.9366 83.107 17.1947C83.1862 17.4529 83.1491 17.729 83.0038 17.9624L58.0585 57.913C57.9867 58.0287 57.8902 58.1305 57.7747 58.2123C57.6592 58.2941 57.5269 58.3543 57.3855 58.3895C57.2877 58.4142 57.1868 58.4267 57.0853 58.4267Z" fill="#F2F2F2"/>
<path d="M48.5057 2.31986L48.3785 2.52368L81.8507 19.6584L81.9779 19.4545L48.5057 2.31986Z" fill="white"/>
<path d="M46.2149 5.9888L46.0876 6.19263L79.5598 23.3273L79.687 23.1235L46.2149 5.9888Z" fill="white"/>
<path d="M43.924 9.65775L43.7967 9.86157L77.2689 26.9963L77.3961 26.7924L43.924 9.65775Z" fill="white"/>
<path d="M41.6331 13.3267L41.5058 13.5305L74.978 30.6652L75.1053 30.4614L41.6331 13.3267Z" fill="white"/>
<path d="M39.3422 16.9956L39.2149 17.1995L72.6871 34.3341L72.8144 34.1303L39.3422 16.9956Z" fill="white"/>
<path d="M37.0513 20.6646L36.9241 20.8684L70.3963 38.0031L70.5235 37.7993L37.0513 20.6646Z" fill="white"/>
<path d="M34.7604 24.3335L34.6332 24.5374L68.1054 41.672L68.2326 41.4682L34.7604 24.3335Z" fill="white"/>
<path d="M32.4696 28.0025L32.3423 28.2063L65.8145 45.341L65.9417 45.1372L32.4696 28.0025Z" fill="white"/>
<path d="M30.1787 31.6714L30.0514 31.8752L63.5236 49.0099L63.6508 48.8061L30.1787 31.6714Z" fill="white"/>
<path d="M27.8878 35.3404L27.7605 35.5442L61.2327 52.6789L61.36 52.4751L27.8878 35.3404Z" fill="white"/>
<path d="M25.5969 39.0093L25.4696 39.2131L58.9418 56.3478L59.0691 56.144L25.5969 39.0093Z" fill="white"/>
<path d="M53.9292 0H3.31348V63.7275H53.9292C54.111 63.7275 54.2854 63.6621 54.414 63.5457C54.5425 63.4293 54.6147 63.2714 54.6147 63.1068V0.620722C54.6147 0.456097 54.5425 0.298217 54.414 0.18181C54.2854 0.0654031 54.111 3.53739e-06 53.9292 0ZM6.16989 61.9688C5.92132 61.9688 5.67832 61.9021 5.47164 61.777C5.26495 61.652 5.10386 61.4742 5.00874 61.2663C4.91361 61.0584 4.88872 60.8295 4.93722 60.6088C4.98571 60.3881 5.10541 60.1853 5.28118 60.0261C5.45695 59.867 5.6809 59.7586 5.9247 59.7147C6.1685 59.6708 6.4212 59.6933 6.65086 59.7794C6.88051 59.8656 7.0768 60.0114 7.2149 60.1986C7.35301 60.3857 7.42672 60.6057 7.42672 60.8308C7.42672 60.9803 7.39421 61.1282 7.33105 61.2663C7.26789 61.4044 7.17531 61.5298 7.0586 61.6355C6.9419 61.7412 6.80335 61.825 6.65086 61.8822C6.49837 61.9394 6.33494 61.9688 6.16989 61.9688ZM6.16989 56.1754C5.92132 56.1754 5.67832 56.1087 5.47164 55.9836C5.26496 55.8586 5.10386 55.6808 5.00874 55.4729C4.91361 55.265 4.88872 55.0361 4.93722 54.8154C4.98571 54.5946 5.10541 54.3919 5.28118 54.2327C5.45695 54.0736 5.6809 53.9652 5.9247 53.9213C6.1685 53.8774 6.4212 53.8999 6.65086 53.986C6.88051 54.0722 7.0768 54.218 7.2149 54.4052C7.35301 54.5923 7.42672 54.8123 7.42672 55.0374C7.42672 55.1868 7.39421 55.3348 7.33105 55.4729C7.26789 55.611 7.17531 55.7364 7.05861 55.8421C6.9419 55.9478 6.80335 56.0316 6.65086 56.0888C6.49837 56.146 6.33494 56.1754 6.16989 56.1754ZM6.16989 50.382C5.92132 50.382 5.67832 50.3152 5.47164 50.1902C5.26496 50.0652 5.10386 49.8874 5.00874 49.6795C4.91361 49.4715 4.88872 49.2427 4.93722 49.022C4.98571 48.8012 5.10541 48.5985 5.28118 48.4393C5.45695 48.2802 5.6809 48.1718 5.9247 48.1279C6.1685 48.084 6.4212 48.1065 6.65086 48.1926C6.88051 48.2788 7.0768 48.4246 7.2149 48.6118C7.35301 48.7989 7.42672 49.0189 7.42672 49.244C7.42672 49.3934 7.39421 49.5414 7.33105 49.6795C7.26789 49.8175 7.17531 49.943 7.0586 50.0487C6.9419 50.1543 6.80335 50.2382 6.65086 50.2954C6.49837 50.3525 6.33494 50.382 6.16989 50.382ZM6.16989 44.5886C5.92132 44.5886 5.67832 44.5218 5.47164 44.3968C5.26496 44.2717 5.10386 44.094 5.00874 43.8861C4.91361 43.6781 4.88872 43.4493 4.93722 43.2286C4.98571 43.0078 5.10541 42.805 5.28118 42.6459C5.45695 42.4867 5.6809 42.3784 5.9247 42.3345C6.1685 42.2905 6.4212 42.3131 6.65086 42.3992C6.88051 42.4853 7.0768 42.6312 7.2149 42.8183C7.35301 43.0055 7.42672 43.2255 7.42672 43.4506C7.42672 43.6 7.39421 43.748 7.33105 43.8861C7.26789 44.0241 7.17531 44.1496 7.0586 44.2553C6.9419 44.3609 6.80335 44.4448 6.65086 44.5019C6.49837 44.5591 6.33494 44.5886 6.16989 44.5886ZM6.16989 38.7952C5.92132 38.7952 5.67832 38.7284 5.47164 38.6034C5.26496 38.4783 5.10386 38.3006 5.00874 38.0927C4.91361 37.8847 4.88872 37.6559 4.93722 37.4352C4.98571 37.2144 5.10541 37.0116 5.28118 36.8525C5.45695 36.6933 5.6809 36.585 5.9247 36.541C6.1685 36.4971 6.4212 36.5197 6.65086 36.6058C6.88051 36.6919 7.0768 36.8378 7.2149 37.0249C7.35301 37.2121 7.42672 37.4321 7.42672 37.6572C7.42672 37.8066 7.39421 37.9546 7.33105 38.0927C7.26789 38.2307 7.17531 38.3562 7.0586 38.4619C6.9419 38.5675 6.80335 38.6513 6.65086 38.7085C6.49837 38.7657 6.33494 38.7952 6.16989 38.7952ZM6.16989 33.0018C5.92132 33.0018 5.67832 32.935 5.47164 32.81C5.26496 32.6849 5.10386 32.5072 5.00874 32.2993C4.91361 32.0913 4.88872 31.8625 4.93722 31.6417C4.98571 31.421 5.10541 31.2182 5.28118 31.0591C5.45695 30.8999 5.6809 30.7915 5.9247 30.7476C6.1685 30.7037 6.4212 30.7263 6.65086 30.8124C6.88051 30.8985 7.0768 31.0444 7.2149 31.2315C7.35301 31.4187 7.42672 31.6387 7.42672 31.8638C7.42672 32.0132 7.39421 32.1612 7.33105 32.2993C7.26789 32.4373 7.17531 32.5628 7.0586 32.6684C6.9419 32.7741 6.80335 32.8579 6.65086 32.9151C6.49837 32.9723 6.33494 33.0018 6.16989 33.0018ZM6.16989 27.2083C5.92132 27.2083 5.67832 27.1416 5.47164 27.0166C5.26496 26.8915 5.10386 26.7138 5.00874 26.5058C4.91361 26.2979 4.88872 26.0691 4.93722 25.8483C4.98571 25.6276 5.10541 25.4248 5.28118 25.2657C5.45695 25.1065 5.6809 24.9981 5.9247 24.9542C6.1685 24.9103 6.4212 24.9328 6.65086 25.019C6.88051 25.1051 7.0768 25.251 7.2149 25.4381C7.35301 25.6253 7.42672 25.8453 7.42672 26.0703C7.42672 26.2198 7.39421 26.3678 7.33105 26.5058C7.26789 26.6439 7.17531 26.7694 7.0586 26.875C6.9419 26.9807 6.80335 27.0645 6.65086 27.1217C6.49837 27.1789 6.33494 27.2083 6.16989 27.2083ZM6.16989 21.4149C5.92132 21.4149 5.67832 21.3482 5.47164 21.2231C5.26496 21.0981 5.10386 20.9204 5.00874 20.7124C4.91361 20.5045 4.88872 20.2757 4.93722 20.0549C4.98571 19.8342 5.10541 19.6314 5.28118 19.4723C5.45695 19.3131 5.6809 19.2047 5.9247 19.1608C6.1685 19.1169 6.4212 19.1394 6.65086 19.2256C6.88051 19.3117 7.0768 19.4576 7.2149 19.6447C7.35301 19.8318 7.42672 20.0519 7.42672 20.2769C7.42672 20.4264 7.39421 20.5744 7.33105 20.7124C7.26789 20.8505 7.17531 20.9759 7.0586 21.0816C6.9419 21.1873 6.80335 21.2711 6.65086 21.3283C6.49837 21.3855 6.33494 21.4149 6.16989 21.4149ZM6.16989 15.6215C5.92132 15.6215 5.67832 15.5548 5.47164 15.4297C5.26496 15.3047 5.10386 15.127 5.00874 14.919C4.91361 14.7111 4.88872 14.4823 4.93722 14.2615C4.98571 14.0408 5.10541 13.838 5.28118 13.6788C5.45695 13.5197 5.6809 13.4113 5.9247 13.3674C6.1685 13.3235 6.4212 13.346 6.65086 13.4322C6.88051 13.5183 7.0768 13.6642 7.2149 13.8513C7.35301 14.0384 7.42672 14.2585 7.42672 14.4835C7.42672 14.633 7.39421 14.7809 7.33105 14.919C7.26789 15.0571 7.17531 15.1825 7.0586 15.2882C6.9419 15.3939 6.80335 15.4777 6.65086 15.5349C6.49837 15.5921 6.33494 15.6215 6.16989 15.6215ZM6.16989 9.82811C5.92132 9.82811 5.67832 9.76137 5.47164 9.63632C5.26495 9.51128 5.10386 9.33355 5.00874 9.12561C4.91361 8.91767 4.88872 8.68886 4.93722 8.46811C4.98571 8.24736 5.10541 8.04458 5.28118 7.88543C5.45695 7.72628 5.6809 7.6179 5.9247 7.57399C6.1685 7.53008 6.4212 7.55261 6.65086 7.63875C6.88051 7.72488 7.0768 7.87074 7.2149 8.05788C7.35301 8.24502 7.42672 8.46504 7.42672 8.69011C7.42672 8.83956 7.39421 8.98754 7.33105 9.12561C7.26789 9.26367 7.17531 9.38913 7.0586 9.4948C6.9419 9.60047 6.80335 9.6843 6.65086 9.74149C6.49837 9.79868 6.33494 9.82811 6.16989 9.82811ZM6.16989 4.0347C5.92132 4.0347 5.67832 3.96796 5.47164 3.84291C5.26495 3.71787 5.10386 3.54014 5.00874 3.3322C4.91361 3.12426 4.88872 2.89544 4.93722 2.67469C4.98571 2.45395 5.10541 2.25118 5.28118 2.09202C5.45695 1.93287 5.6809 1.82449 5.9247 1.78058C6.1685 1.73667 6.4212 1.7592 6.65086 1.84534C6.88051 1.93147 7.0768 2.07733 7.2149 2.26447C7.35301 2.45161 7.42672 2.67163 7.42672 2.89671C7.42672 3.04615 7.39421 3.19413 7.33105 3.3322C7.26789 3.47026 7.17531 3.59572 7.0586 3.70139C6.9419 3.80706 6.80335 3.89088 6.65086 3.94807C6.49837 4.00526 6.33494 4.0347 6.16989 4.0347Z" fill="#3F3D56"/>
<path d="M3.31344 3.51745C2.9743 3.51745 0 3.50295 0 3.00018C0 2.49741 2.9743 2.48291 3.31344 2.48291V2.68982C1.56161 2.68982 0.4257 2.86738 0.242767 3.00018C0.4257 3.13298 1.56161 3.31054 3.31344 3.31054C5.06137 3.31054 6.19611 3.13373 6.38287 3.00109C6.29399 2.94426 5.93093 2.82515 4.95712 2.74892L4.97678 2.54282C6.62689 2.67194 6.62689 2.91042 6.62689 3.00018C6.62689 3.50295 3.65259 3.51745 3.31344 3.51745Z" fill="#2F2E41"/>
<path d="M3.31344 9.20739C2.9743 9.20739 0 9.19289 0 8.69012C0 8.18735 2.9743 8.17285 3.31344 8.17285V8.37976C1.56161 8.37976 0.4257 8.55732 0.242767 8.69012C0.4257 8.82292 1.56161 9.00049 3.31344 9.00049C5.06137 9.00049 6.19611 8.82368 6.38287 8.69103C6.29399 8.63421 5.93093 8.5151 4.95712 8.43887L4.97678 8.23277C6.62689 8.36188 6.62689 8.60036 6.62689 8.69013C6.62689 9.19289 3.65259 9.20739 3.31344 9.20739Z" fill="#2F2E41"/>
<path d="M3.31344 15.0008C2.9743 15.0008 0 14.9863 0 14.4836C0 13.9808 2.9743 13.9663 3.31344 13.9663V14.1732C1.56161 14.1732 0.4257 14.3508 0.242767 14.4836C0.4257 14.6164 1.56161 14.7939 3.31344 14.7939C5.06137 14.7939 6.19611 14.6171 6.38287 14.4845C6.29399 14.4277 5.93093 14.3085 4.95712 14.2323L4.97678 14.0262C6.62689 14.1553 6.62689 14.3938 6.62689 14.4836C6.62689 14.9863 3.65259 15.0008 3.31344 15.0008Z" fill="#2F2E41"/>
<path d="M3.31344 20.7943C2.9743 20.7943 0 20.7798 0 20.277C0 19.7743 2.9743 19.7598 3.31344 19.7598V19.9667C1.56161 19.9667 0.4257 20.1442 0.242767 20.277C0.4257 20.4098 1.56161 20.5874 3.31344 20.5874C5.06137 20.5874 6.19611 20.4106 6.38287 20.2779C6.29399 20.2211 5.93093 20.102 4.95712 20.0258L4.97678 19.8197C6.62689 19.9488 6.62689 20.1873 6.62689 20.277C6.62689 20.7798 3.65259 20.7943 3.31344 20.7943Z" fill="#2F2E41"/>
<path d="M3.31344 26.5875C2.9743 26.5875 0 26.573 0 26.0702C0 25.5675 2.9743 25.553 3.31344 25.553V25.7599C1.56161 25.7599 0.4257 25.9374 0.242767 26.0702C0.4257 26.2031 1.56161 26.3806 3.31344 26.3806C5.06137 26.3806 6.19611 26.2038 6.38287 26.0712C6.29399 26.0143 5.93093 25.8952 4.95712 25.819L4.97678 25.6129C6.62689 25.742 6.62689 25.9805 6.62689 26.0702C6.62689 26.573 3.65259 26.5875 3.31344 26.5875Z" fill="#2F2E41"/>
<path d="M3.31344 32.381C2.9743 32.381 0 32.3665 0 31.8637C0 31.3609 2.9743 31.3464 3.31344 31.3464V31.5533C1.56161 31.5533 0.4257 31.7309 0.242767 31.8637C0.4257 31.9965 1.56161 32.1741 3.31344 32.1741C5.06137 32.1741 6.19611 31.9973 6.38287 31.8646C6.29399 31.8078 5.93093 31.6887 4.95712 31.6124L4.97678 31.4063C6.62689 31.5355 6.62689 31.7739 6.62689 31.8637C6.62689 32.3665 3.65259 32.381 3.31344 32.381Z" fill="#2F2E41"/>
<path d="M3.31344 38.1744C2.9743 38.1744 0 38.1599 0 37.6572C0 37.1544 2.9743 37.1399 3.31344 37.1399V37.3468C1.56161 37.3468 0.4257 37.5244 0.242767 37.6572C0.4257 37.79 1.56161 37.9675 3.31344 37.9675C5.06137 37.9675 6.19611 37.7907 6.38287 37.6581C6.29399 37.6012 5.93093 37.4821 4.95712 37.4059L4.97678 37.1998C6.62689 37.3289 6.62689 37.5674 6.62689 37.6572C6.62689 38.1599 3.65259 38.1744 3.31344 38.1744Z" fill="#2F2E41"/>
<path d="M3.31344 43.9679C2.9743 43.9679 0 43.9534 0 43.4506C0 42.9478 2.9743 42.9333 3.31344 42.9333V43.1403C1.56161 43.1403 0.4257 43.3178 0.242767 43.4506C0.4257 43.5834 1.56161 43.761 3.31344 43.761C5.06137 43.761 6.19611 43.5842 6.38287 43.4515C6.29399 43.3947 5.93093 43.2756 4.95712 43.1994L4.97678 42.9933C6.62689 43.1224 6.62689 43.3609 6.62689 43.4506C6.62689 43.9534 3.65259 43.9679 3.31344 43.9679Z" fill="#2F2E41"/>
<path d="M3.31344 49.7613C2.9743 49.7613 0 49.7469 0 49.2441C0 48.7413 2.9743 48.7268 3.31344 48.7268V48.9337C1.56161 48.9337 0.4257 49.1113 0.242767 49.2441C0.4257 49.3769 1.56161 49.5544 3.31344 49.5544C5.06137 49.5544 6.19611 49.3776 6.38287 49.245C6.29399 49.1882 5.93093 49.069 4.95712 48.9928L4.97678 48.7867C6.62689 48.9158 6.62689 49.1543 6.62689 49.2441C6.62689 49.7469 3.65259 49.7613 3.31344 49.7613Z" fill="#2F2E41"/>
<path d="M3.31344 55.5545C2.9743 55.5545 0 55.5401 0 55.0373C0 54.5345 2.9743 54.52 3.31344 54.52V54.7269C1.56161 54.7269 0.4257 54.9045 0.242767 55.0373C0.4257 55.1701 1.56161 55.3476 3.31344 55.3476C5.06137 55.3476 6.19611 55.1708 6.38287 55.0382C6.29399 54.9814 5.93093 54.8623 4.95712 54.786L4.97678 54.5799C6.62689 54.709 6.62689 54.9475 6.62689 55.0373C6.62689 55.5401 3.65259 55.5545 3.31344 55.5545Z" fill="#2F2E41"/>
<path d="M3.31344 61.348C2.9743 61.348 0 61.3335 0 60.8307C0 60.328 2.9743 60.3135 3.31344 60.3135V60.5204C1.56161 60.5204 0.4257 60.6979 0.242767 60.8307C0.4257 60.9635 1.56161 61.1411 3.31344 61.1411C5.06137 61.1411 6.19611 60.9643 6.38287 60.8317C6.29399 60.7748 5.93093 60.6557 4.95712 60.5795L4.97678 60.3734C6.62689 60.5025 6.62689 60.741 6.62689 60.8307C6.62689 61.3335 3.65259 61.348 3.31344 61.348Z" fill="#2F2E41"/>
<path d="M43.5889 24.3633H18.4524C18.2555 24.3631 18.0668 24.2921 17.9275 24.1661C17.7883 24.04 17.71 23.8691 17.7098 23.6908V14.7938C17.71 14.6155 17.7883 14.4446 17.9275 14.3185C18.0668 14.1925 18.2555 14.1215 18.4524 14.1213H43.5889C43.7858 14.1215 43.9746 14.1925 44.1138 14.3185C44.2531 14.4446 44.3314 14.6155 44.3316 14.7938V23.6908C44.3314 23.8691 44.2531 24.04 44.1138 24.1661C43.9746 24.2921 43.7858 24.3631 43.5889 24.3633Z" fill="white"/>
<path d="M34.2199 17.1732H27.8215C27.67 17.1732 27.5247 17.1187 27.4176 17.0217C27.3104 16.9247 27.2502 16.7931 27.2502 16.6559C27.2502 16.5187 27.3104 16.3872 27.4176 16.2902C27.5247 16.1932 27.67 16.1387 27.8215 16.1387H34.2199C34.3714 16.1387 34.5167 16.1932 34.6239 16.2902C34.731 16.3872 34.7912 16.5187 34.7912 16.6559C34.7912 16.7931 34.731 16.9247 34.6239 17.0217C34.5167 17.1187 34.3714 17.1732 34.2199 17.1732H34.2199Z" fill="#E2CBF3"/>
<path d="M37.7618 19.7596H24.2795C24.128 19.7596 23.9827 19.7051 23.8756 19.6081C23.7684 19.5111 23.7083 19.3796 23.7083 19.2424C23.7083 19.1052 23.7684 18.9736 23.8756 18.8766C23.9827 18.7796 24.128 18.7251 24.2795 18.7251H37.7618C37.9133 18.7251 38.0587 18.7796 38.1658 18.8766C38.2729 18.9736 38.3331 19.1052 38.3331 19.2424C38.3331 19.3796 38.2729 19.5111 38.1658 19.6081C38.0587 19.7051 37.9133 19.7596 37.7618 19.7596Z" fill="#E2CBF3"/>
<path d="M37.7618 22.3461H24.2795C24.128 22.3461 23.9827 22.2916 23.8756 22.1946C23.7684 22.0975 23.7083 21.966 23.7083 21.8288C23.7083 21.6916 23.7684 21.56 23.8756 21.463C23.9827 21.366 24.128 21.3115 24.2795 21.3115H37.7618C37.9133 21.3115 38.0587 21.366 38.1658 21.463C38.2729 21.56 38.3331 21.6916 38.3331 21.8288C38.3331 21.966 38.2729 22.0975 38.1658 22.1946C38.0587 22.2916 37.9133 22.3461 37.7618 22.3461Z" fill="#E2CBF3"/>
<path d="M103.057 21.4791C103.414 21.4792 103.764 21.3879 104.066 21.2159C104.368 21.0438 104.611 20.798 104.765 20.5066C104.92 20.2153 104.981 19.8904 104.94 19.5692C104.9 19.248 104.76 18.9438 104.537 18.6914C103.604 17.6352 101.56 17.797 100.743 16.6648C100.05 15.7054 100.69 14.3879 101.612 13.6029C103.419 12.0663 106.31 11.6887 108.522 12.7005C110.734 13.7124 112.114 16.0436 111.819 18.2717C111.707 19.1204 111.447 20.1504 112.175 20.6951C112.82 21.1786 113.774 20.9042 114.585 20.7138C115.788 20.4393 117.042 20.4036 118.261 20.6091C119.481 20.8147 120.636 21.2566 121.649 21.9046C123.372 23.0224 124.627 24.8278 124.628 26.7467C124.629 28.6655 123.186 30.5993 121.12 31.0289C119.096 31.45 117.009 30.4261 115.576 29.0636C114.144 27.7011 113.161 26.0065 111.856 24.5432C110.55 23.0799 108.744 21.791 106.667 21.7571C105.464 21.7375 104.146 22.121 103.125 21.5443" fill="#2F2E41"/>
<path d="M103.95 22.2432C106.17 22.2432 107.97 20.6135 107.97 18.6032C107.97 16.5928 106.17 14.9631 103.95 14.9631C101.73 14.9631 99.9301 16.5928 99.9301 18.6032C99.9301 20.6135 101.73 22.2432 103.95 22.2432Z" fill="#FFB8B8"/>
<path d="M95.3985 42.7505C95.3277 42.5423 95.3081 42.3225 95.3411 42.1067C95.3742 41.8909 95.4591 41.6843 95.5899 41.5014C95.7206 41.3185 95.8941 41.1638 96.0981 41.0482C96.302 40.9326 96.5315 40.8589 96.7703 40.8323L97.9983 35.6543L100.128 37.618L98.6353 42.234C98.6581 42.6003 98.5317 42.9613 98.2801 43.2489C98.0286 43.5364 97.6692 43.7303 97.2703 43.794C96.8713 43.8576 96.4604 43.7866 96.1154 43.5942C95.7704 43.4019 95.5154 43.1017 95.3985 42.7505Z" fill="#FFB8B8"/>
<path d="M116.048 65.2406L114.076 65.5755L108.13 47.8935L112.35 47.3989L116.048 65.2406Z" fill="#FFB8B8"/>
<path d="M112.561 65.3048L116.364 64.6587L116.814 66.8271L110.615 67.8801C110.556 67.5954 110.56 67.3029 110.625 67.0193C110.691 66.7358 110.818 66.4668 110.999 66.2276C111.179 65.9885 111.41 65.7839 111.678 65.6256C111.946 65.4673 112.246 65.3583 112.561 65.3048Z" fill="#2F2E41"/>
<path d="M103.123 66.1928L101.117 66.1927L100.817 49.8181L105.088 49.8183L103.123 66.1928Z" fill="#FFB8B8"/>
<path d="M99.6834 65.6736H103.553V67.8799H97.2468C97.2468 67.5901 97.3098 67.3032 97.4322 67.0356C97.5547 66.7679 97.7342 66.5247 97.9605 66.3198C98.1867 66.1149 98.4553 65.9524 98.751 65.8415C99.0466 65.7306 99.3635 65.6736 99.6834 65.6736Z" fill="#2F2E41"/>
<path d="M99.8934 52.0465L100.078 44.044C100.064 43.9314 98.614 31.8073 98.0738 28.7093C97.5249 25.5613 100.361 23.9471 100.39 23.9312C100.517 23.8841 100.632 23.8442 100.747 23.8059C102.088 23.3463 103.546 23.2396 104.952 23.4983C106.358 23.7569 107.654 24.3704 108.691 25.2678C109.765 26.165 110.542 27.3155 110.933 28.5902C111.325 29.8648 111.316 31.2131 110.908 32.4835L109.908 35.6201C115.034 44.0114 116.086 47.6224 116.096 47.6579L116.099 47.6687L116.098 47.68C115.914 51.0079 100.633 52.0004 99.9828 52.041L99.8934 52.0465Z" fill="#E2CBF3"/>
<path d="M98.7015 27.2126L95.2383 39.5899L101.435 40.25L98.7015 27.2126Z" fill="#E2CBF3"/>
<path d="M107.073 37.4432C107.115 37.2288 107.209 37.0253 107.348 36.8472C107.486 36.6691 107.666 36.5207 107.875 36.4124C108.084 36.3042 108.317 36.2387 108.556 36.2205C108.796 36.2024 109.037 36.2321 109.263 36.3076L112.975 32.2148L113.874 34.8438L110.211 38.3273C110.046 38.6623 109.751 38.9307 109.382 39.0819C109.013 39.233 108.595 39.2563 108.208 39.1473C107.822 39.0384 107.492 38.8047 107.283 38.4906C107.074 38.1765 106.999 37.8039 107.073 37.4432Z" fill="#FFB8B8"/>
<path d="M111.921 37.4532L108.69 35.5604L111.765 32.612L103.427 30.314L105.572 24.655L108.211 24.9964L114.92 29.496C115.773 30.0724 116.342 30.9289 116.505 31.8813C116.668 32.8336 116.413 33.806 115.792 34.5893L115.778 34.6033L111.921 37.4532Z" fill="#E2CBF3"/>
<path d="M100.33 16.5341C102.06 17.4903 104.01 18.0721 106.029 18.2344L105.428 17.5827C105.866 17.7291 106.326 17.8118 106.792 17.8278C107.258 17.8213 107.745 17.659 108.009 17.3119C108.127 17.1394 108.197 16.9437 108.213 16.7413C108.23 16.539 108.192 16.3362 108.102 16.1501C107.919 15.7789 107.634 15.4563 107.275 15.213C106.637 14.7563 105.885 14.4496 105.084 14.3201C104.284 14.1906 103.461 14.2424 102.688 14.4708C102.158 14.6142 101.683 14.89 101.318 15.2664C100.972 15.6531 100.217 16.0009 100.394 16.4722L100.33 16.5341Z" fill="#2F2E41"/>
<path d="M129.805 67.9999H79.9984C79.9467 67.9999 79.8972 67.9813 79.8606 67.9482C79.8241 67.9151 79.8035 67.8702 79.8035 67.8234C79.8035 67.7766 79.8241 67.7317 79.8606 67.6987C79.8972 67.6656 79.9467 67.647 79.9984 67.647H129.805C129.857 67.6471 129.906 67.6658 129.943 67.6988C129.979 67.7319 129.999 67.7767 129.999 67.8234C129.999 67.8701 129.979 67.915 129.943 67.948C129.906 67.9811 129.857 67.9998 129.805 67.9999Z" fill="#3F3D56"/>
</g>
<defs>
<clipPath id="clip0_46_63">
<rect width="130" height="68" fill="white"/>
</clipPath>
</defs>
</svg>
