<svg width="17" height="10" viewBox="0 0 17 10" fill="none" xmlns="http://www.w3.org/2000/svg">
<path fill-rule="evenodd" clip-rule="evenodd" d="M8.43509 2.60284C10.7132 2.60292 12.9042 3.28233 14.5553 4.50064C14.6796 4.5947 14.8783 4.59351 15.0008 4.49798L16.1892 3.56703C16.2513 3.51858 16.2858 3.45295 16.2853 3.38466C16.2848 3.31637 16.2492 3.25106 16.1865 3.20317C11.853 -0.0201967 5.01647 -0.0201967 0.682991 3.20317C0.620218 3.25102 0.584601 3.31631 0.584022 3.3846C0.583443 3.45289 0.61795 3.51855 0.679907 3.56703L1.86872 4.49798C1.99109 4.59365 2.18997 4.59484 2.31422 4.50064C3.96548 3.28225 6.15674 2.60284 8.43509 2.60284ZM8.43508 5.6316C9.68676 5.63154 10.8938 5.99264 11.8216 6.64473C11.9471 6.73728 12.1448 6.73527 12.2671 6.64021L13.4542 5.70927C13.5167 5.66044 13.5514 5.59419 13.5505 5.52536C13.5496 5.45652 13.5132 5.39084 13.4494 5.34301C10.624 3.30314 6.24855 3.30314 3.42317 5.34301C3.35935 5.39084 3.32293 5.45656 3.3221 5.52541C3.32126 5.59427 3.35607 5.66051 3.41871 5.70927L4.60547 6.64021C4.7278 6.73527 4.92548 6.73728 5.05097 6.64473C5.97817 5.99307 7.18423 5.632 8.43508 5.6316ZM10.813 7.66943C10.8149 7.73845 10.7799 7.80501 10.7164 7.85337L8.66298 9.46177C8.60279 9.50904 8.52072 9.53564 8.43509 9.53564C8.34946 9.53564 8.26739 9.50904 8.20719 9.46177L6.15342 7.85337C6.08998 7.80497 6.05508 7.7384 6.05696 7.66937C6.05884 7.60034 6.09734 7.53497 6.16336 7.4887C7.47476 6.6278 9.39542 6.6278 10.7068 7.4887C10.7728 7.53501 10.8112 7.6004 10.813 7.66943Z" fill="#8E33BB"/>
</svg>
